# Blender3D v249 OBJ File: earth.blend
# www.blender3d.org
mtllib earth.mtl
v 0.064705 0.241481 -0.000000
v 0.241481 -0.064705 0.000000
v 0.176777 -0.176777 0.000000
v 0.125000 -0.216506 0.000000
v 0.056036 -0.241481 -0.032352
v 0.108253 -0.216506 -0.062500
v 0.153093 -0.176777 -0.088388
v 0.187500 -0.125000 -0.108253
v 0.209129 -0.064705 -0.120741
v 0.216506 0.000000 -0.125000
v 0.209129 0.064705 -0.120741
v 0.187500 0.125000 -0.108253
v 0.153093 0.176777 -0.088388
v 0.108253 0.216506 -0.062500
v 0.056036 0.241481 -0.032352
v 0.000000 0.250000 -0.000000
v 0.032352 0.241481 -0.056036
v 0.062500 0.216506 -0.108253
v 0.088388 0.176777 -0.153093
v 0.108253 0.125000 -0.187500
v 0.120741 0.064705 -0.209129
v 0.125000 0.000000 -0.216506
v 0.120741 -0.064705 -0.209129
v 0.108253 -0.125000 -0.187500
v 0.088388 -0.176777 -0.153093
v 0.062500 -0.216506 -0.108253
v 0.032352 -0.241481 -0.056036
v -0.000000 -0.241481 -0.064705
v -0.000000 -0.216506 -0.125000
v -0.000000 -0.176777 -0.176777
v -0.000000 -0.125000 -0.216506
v -0.000000 -0.064705 -0.241481
v -0.000000 0.000000 -0.250000
v -0.000000 0.064705 -0.241481
v -0.000000 0.125000 -0.216506
v -0.000000 0.176777 -0.176777
v -0.000000 0.216506 -0.125000
v 0.000000 0.241481 -0.064705
v -0.032352 0.241481 -0.056036
v -0.062500 0.216506 -0.108253
v -0.088388 0.176777 -0.153093
v -0.108253 0.125000 -0.187500
v -0.120741 0.064705 -0.209129
v -0.125000 0.000000 -0.216506
v -0.120741 -0.064705 -0.209129
v -0.108253 -0.125000 -0.187500
v -0.088388 -0.176777 -0.153093
v -0.062500 -0.216506 -0.108253
v -0.032352 -0.241481 -0.056036
v -0.056036 -0.241481 -0.032352
v -0.108253 -0.216506 -0.062500
v -0.153093 -0.176777 -0.088388
v -0.187500 -0.125000 -0.108253
v -0.209129 -0.064705 -0.120741
v -0.216506 0.000000 -0.125000
v -0.209129 0.064705 -0.120741
v -0.187500 0.125000 -0.108253
v -0.153093 0.176777 -0.088388
v -0.108253 0.216506 -0.062500
v -0.056036 0.241481 -0.032352
v -0.064705 0.241481 -0.000000
v -0.125000 0.216506 -0.000000
v -0.176777 0.176777 0.000000
v -0.216506 0.125000 0.000000
v -0.241481 0.064705 0.000000
v -0.250000 0.000000 0.000000
v -0.241481 -0.064705 0.000000
v -0.216506 -0.125000 0.000000
v -0.176777 -0.176777 0.000000
v -0.125000 -0.216506 0.000000
v -0.064705 -0.241481 0.000000
v -0.000000 -0.250000 0.000000
v -0.056036 -0.241481 0.032352
v -0.108253 -0.216506 0.062500
v -0.153093 -0.176777 0.088388
v -0.187500 -0.125000 0.108253
v -0.209129 -0.064705 0.120741
v -0.216506 0.000000 0.125000
v -0.209129 0.064705 0.120741
v -0.187500 0.125000 0.108253
v -0.153093 0.176777 0.088388
v -0.108253 0.216506 0.062500
v -0.056036 0.241481 0.032352
v -0.032352 0.241481 0.056036
v -0.062500 0.216506 0.108253
v -0.088388 0.176777 0.153093
v -0.108253 0.125000 0.187500
v -0.120741 0.064705 0.209129
v -0.125000 0.000000 0.216506
v -0.120741 -0.064705 0.209129
v -0.108253 -0.125000 0.187500
v -0.088388 -0.176777 0.153093
v -0.062500 -0.216506 0.108253
v -0.032352 -0.241481 0.056036
v 0.000000 -0.241481 0.064705
v 0.000000 -0.216506 0.125000
v 0.000000 -0.176777 0.176777
v 0.000000 -0.125000 0.216506
v 0.000000 -0.064705 0.241481
v 0.000000 0.000000 0.250000
v 0.000000 0.064705 0.241481
v 0.000000 0.125000 0.216506
v 0.000000 0.176777 0.176777
v 0.000000 0.216506 0.125000
v -0.000000 0.241481 0.064705
v 0.032352 0.241481 0.056036
v 0.062500 0.216506 0.108253
v 0.088388 0.176777 0.153093
v 0.108253 0.125000 0.187500
v 0.120741 0.064705 0.209129
v 0.125000 0.000000 0.216506
v 0.120741 -0.064705 0.209129
v 0.108253 -0.125000 0.187500
v 0.088388 -0.176777 0.153093
v 0.062500 -0.216506 0.108253
v 0.032352 -0.241481 0.056036
v 0.056036 -0.241481 0.032352
v 0.108253 -0.216506 0.062500
v 0.153093 -0.176777 0.088388
v 0.187500 -0.125000 0.108253
v 0.209129 -0.064705 0.120741
v 0.216506 0.000000 0.125000
v 0.209129 0.064705 0.120741
v 0.187500 0.125000 0.108253
v 0.153093 0.176777 0.088388
v 0.108253 0.216506 0.062500
v 0.056036 0.241481 0.032352
v 0.125000 0.216506 -0.000000
v 0.176777 0.176777 -0.000000
v 0.216506 0.125000 -0.000000
v 0.241481 0.064705 -0.000000
v 0.250000 0.000000 -0.000000
v 0.216506 -0.125000 -0.000000
v 0.064705 -0.241481 0.000000
vt 1.292706 -0.000000
vt 0.833333 0.083333
vt 0.750000 0.083333
vt 0.750000 0.916667
vt 0.833333 0.916667
vt 0.634117 1.000000
vt 0.916667 0.916667
vt 0.916667 0.083333
vt 1.000000 0.083333
vt 1.000000 0.916667
vt 1.083333 0.916667
vt 0.292706 -0.000000
vt 0.083333 0.083334
vt 0.000000 0.083333
vt 0.166667 0.083334
vt 0.166667 0.916667
vt 0.250000 0.916667
vt 0.250000 0.083334
vt 0.333333 0.083333
vt 0.333333 0.916667
vt 0.416667 0.916667
vt 0.416667 0.083333
vt 0.500000 0.083333
vt 0.500000 0.916667
vt 0.583333 0.916667
vt 0.583333 0.083333
vt 0.666667 0.083333
vt 0.666667 0.916667
vt 0.750000 0.166667
vt 0.666667 0.166667
vt 0.750000 0.250000
vt 0.666667 0.250000
vt 0.750000 0.333333
vt 0.666667 0.333333
vt 0.750000 0.416667
vt 0.666667 0.416667
vt 0.750000 0.500000
vt 0.666667 0.500000
vt 0.750000 0.583333
vt 0.666667 0.583333
vt 0.750000 0.666667
vt 0.666667 0.666667
vt 0.750000 0.750000
vt 0.666667 0.750000
vt 0.750000 0.833333
vt 0.666667 0.833333
vt 0.583333 0.833333
vt 0.583333 0.750000
vt 0.583333 0.666667
vt 0.583333 0.583333
vt 0.583333 0.500000
vt 0.583333 0.416667
vt 0.583333 0.333333
vt 0.583333 0.250000
vt 0.583333 0.166667
vt 0.500000 0.166667
vt 0.500000 0.250000
vt 0.500000 0.333333
vt 0.500000 0.416667
vt 0.500000 0.500000
vt 0.500000 0.583333
vt 0.500000 0.666667
vt 0.500000 0.750000
vt 0.500000 0.833333
vt 0.416667 0.833333
vt 0.416667 0.750000
vt 0.416667 0.666667
vt 0.416667 0.583333
vt 0.416667 0.500000
vt 0.416667 0.416667
vt 0.416667 0.333333
vt 0.416667 0.250000
vt 0.416667 0.166667
vt 0.333333 0.166667
vt 0.333333 0.250000
vt 0.333333 0.333333
vt 0.333333 0.416667
vt 0.333333 0.500000
vt 0.333333 0.583333
vt 0.333333 0.666667
vt 0.333333 0.750000
vt 0.333333 0.833333
vt 0.250000 0.833333
vt 0.250000 0.750000
vt 0.250000 0.666667
vt 0.250000 0.583333
vt 0.250000 0.500000
vt 0.250000 0.416667
vt 0.250000 0.333333
vt 0.250000 0.250000
vt 0.250000 0.166667
vt 0.166667 0.166667
vt 0.166667 0.250000
vt 0.166667 0.333333
vt 0.166667 0.416667
vt 0.166667 0.500000
vt 0.166667 0.583333
vt 0.166667 0.666667
vt 0.166667 0.750000
vt 0.166667 0.833333
vt 0.083333 0.833333
vt 0.083333 0.916667
vt 0.083333 0.750000
vt 0.083333 0.666667
vt 0.083333 0.583333
vt 0.083333 0.500000
vt 0.083333 0.416667
vt 0.083333 0.333333
vt 0.083333 0.250000
vt 0.083333 0.166667
vt 0.000000 0.166667
vt 0.000000 0.250000
vt 0.000000 0.333333
vt 0.000000 0.416667
vt 0.000000 0.500000
vt 0.000000 0.583333
vt 0.000000 0.666667
vt 0.000000 0.750000
vt 0.000000 0.833333
vt 1.000000 0.833333
vt 1.083333 0.833333
vt 0.916667 0.833333
vt 0.916667 0.750000
vt 1.000000 0.750000
vt 0.916667 0.666667
vt 1.000000 0.666667
vt 0.916667 0.583333
vt 1.000000 0.583333
vt 0.916667 0.500000
vt 1.000000 0.500000
vt 0.916667 0.416667
vt 1.000000 0.416667
vt 0.916667 0.333333
vt 1.000000 0.333333
vt 0.916667 0.250000
vt 1.000000 0.250000
vt 0.916667 0.166667
vt 1.000000 0.166667
vt 0.833333 0.166667
vt 0.833333 0.250000
vt 0.833333 0.333333
vt 0.833333 0.416667
vt 0.833333 0.500000
vt 0.833333 0.583333
vt 0.833333 0.666667
vt 0.833333 0.750000
vt 0.833333 0.833333
vn 0.000000 -1.000000 0.000000
vn 0.242439 -0.959807 -0.141240
vn 0.280587 -0.959807 -0.001068
vn 0.280587 0.959807 0.001068
vn 0.243538 0.959807 -0.139348
vn 0.000000 1.000000 0.000000
vn 0.141240 0.959807 -0.242439
vn 0.139348 -0.959807 -0.243538
vn -0.001068 -0.959807 -0.280587
vn 0.001068 0.959807 -0.280587
vn -0.139348 0.959807 -0.243538
vn -0.141240 -0.959807 -0.242439
vn -0.243538 -0.959807 -0.139348
vn -0.242439 0.959807 -0.141240
vn -0.280587 0.959807 -0.001068
vn -0.280587 -0.959807 0.001068
vn -0.242439 -0.959807 0.141240
vn -0.243538 0.959807 0.139348
vn -0.141240 0.959807 0.242439
vn -0.139348 -0.959807 0.243538
vn 0.001068 -0.959807 0.280587
vn -0.001068 0.959807 0.280587
vn 0.139348 0.959807 0.243538
vn 0.141240 -0.959807 0.242439
vn 0.243538 -0.959807 0.139348
vn 0.242439 0.959807 0.141240
vn 0.512070 -0.858913 -0.000458
vn 0.443709 -0.858913 0.255623
vn 0.713584 -0.700552 -0.000305
vn 0.617908 -0.699942 0.358043
vn 0.868801 -0.495132 -0.000183
vn 0.753502 -0.494400 0.433271
vn 0.966399 -0.256966 0.001434
vn 0.837123 -0.256264 0.483200
vn 0.999969 -0.000702 -0.001465
vn 0.866024 0.000000 0.499985
vn 0.966582 0.256264 0.000092
vn 0.837031 0.256264 0.483383
vn 0.868801 0.495132 0.000183
vn 0.752281 0.495132 0.434553
vn 0.713584 0.700552 0.000305
vn 0.617817 0.700552 0.357067
vn 0.512070 0.858913 0.000458
vn 0.443220 0.858913 0.256447
vn 0.255623 0.858913 0.443709
vn 0.356487 0.700552 0.618152
vn 0.434217 0.495132 0.752495
vn 0.483200 0.256264 0.837123
vn 0.499985 0.000000 0.866024
vn 0.483383 -0.256264 0.837031
vn 0.435469 -0.495865 0.751274
vn 0.355510 -0.701132 0.618030
vn 0.256447 -0.858913 0.443220
vn 0.000458 -0.858913 0.512070
vn 0.000305 -0.700552 0.713584
vn 0.000183 -0.495132 0.868801
vn 0.000092 -0.256264 0.966582
vn 0.000000 0.000000 1.000000
vn -0.000092 0.256264 0.966582
vn -0.000183 0.495132 0.868801
vn -0.000305 0.700552 0.713584
vn -0.000458 0.858913 0.512070
vn -0.256447 0.858913 0.443220
vn -0.357067 0.700552 0.617817
vn -0.434553 0.495132 0.752281
vn -0.483383 0.256264 0.837031
vn -0.499985 0.000000 0.866024
vn -0.483200 -0.256264 0.837123
vn -0.433271 -0.494400 0.753502
vn -0.358043 -0.699942 0.617908
vn -0.255623 -0.858913 0.443709
vn -0.443220 -0.858913 0.256447
vn -0.618030 -0.701132 0.355510
vn -0.751274 -0.495865 0.435469
vn -0.837031 -0.256264 0.483383
vn -0.866024 0.000000 0.499985
vn -0.837123 0.256264 0.483200
vn -0.752495 0.495132 0.434217
vn -0.618152 0.700552 0.356487
vn -0.443709 0.858913 0.255623
vn -0.512070 0.858913 -0.000458
vn -0.713584 0.700552 -0.000305
vn -0.868801 0.495132 -0.000183
vn -0.966582 0.256264 -0.000092
vn -1.000000 0.000000 0.000000
vn -0.966582 -0.256264 0.000092
vn -0.868801 -0.495132 0.000183
vn -0.713584 -0.700552 0.000305
vn -0.512070 -0.858913 0.000458
vn -0.443709 -0.858913 -0.255623
vn -0.618152 -0.700552 -0.356487
vn -0.752495 -0.495132 -0.434217
vn -0.837123 -0.256264 -0.483200
vn -0.866024 0.000000 -0.499985
vn -0.837031 0.256264 -0.483383
vn -0.752281 0.495132 -0.434553
vn -0.617817 0.700552 -0.357067
vn -0.443220 0.858913 -0.256447
vn -0.255623 0.858913 -0.443709
vn -0.356487 0.700552 -0.618152
vn -0.434217 0.495132 -0.752495
vn -0.483200 0.256264 -0.837123
vn -0.499985 0.000000 -0.866024
vn -0.483383 -0.256264 -0.837031
vn -0.434553 -0.495132 -0.752281
vn -0.357067 -0.700552 -0.617817
vn -0.256447 -0.858913 -0.443220
vn -0.000458 -0.858913 -0.512070
vn -0.000305 -0.700552 -0.713584
vn -0.000183 -0.495132 -0.868801
vn -0.000092 -0.256264 -0.966582
vn 0.000000 0.000000 -1.000000
vn 0.000092 0.256264 -0.966582
vn 0.000183 0.495132 -0.868801
vn 0.000305 0.700552 -0.713584
vn 0.000458 0.858913 -0.512070
vn 0.256447 0.858913 -0.443220
vn 0.357067 0.700552 -0.617817
vn 0.434553 0.495132 -0.752281
vn 0.483383 0.256264 -0.837031
vn 0.499985 0.000000 -0.866024
vn 0.483200 -0.256264 -0.837123
vn 0.434217 -0.495132 -0.752495
vn 0.356487 -0.700552 -0.618152
vn 0.255623 -0.858913 -0.443709
vn 0.443220 -0.858913 -0.256447
vn 0.617817 -0.700552 -0.357067
vn 0.752281 -0.495132 -0.434553
vn 0.837947 -0.255562 -0.482162
vn 0.865261 0.000732 -0.501297
vn 0.837123 0.256264 -0.483200
vn 0.752495 0.495132 -0.434217
vn 0.618152 0.700552 -0.356487
vn 0.443709 0.858913 -0.255623
usemtl Material.001_earthmap1k.jpg
s 1
f 72/1/1 5/2/2 134/3/3
f 1/4/4 15/5/5 16/6/6
f 15/5/5 17/7/7 16/6/6
f 72/1/1 27/8/8 5/2/2
f 72/1/1 28/9/9 27/8/8
f 17/7/7 38/10/10 16/6/6
f 38/10/10 39/11/11 16/6/6
f 72/12/1 49/13/12 28/14/9
f 72/12/1 50/15/13 49/13/12
f 39/11/11 60/16/14 16/6/6
f 60/16/14 61/17/15 16/6/6
f 72/12/1 71/18/16 50/15/13
f 72/12/1 73/19/17 71/18/16
f 61/17/15 83/20/18 16/6/6
f 83/20/18 84/21/19 16/6/6
f 72/12/1 94/22/20 73/19/17
f 72/12/1 95/23/21 94/22/20
f 84/21/19 105/24/22 16/6/6
f 105/24/22 106/25/23 16/6/6
f 72/12/1 116/26/24 95/23/21
f 72/12/1 117/27/25 116/26/24
f 106/25/23 127/28/26 16/6/6
f 127/28/26 1/4/4 16/6/6
f 72/12/1 134/3/3 117/27/25
f 117/27/25 134/3/3 4/29/27
f 117/27/25 4/29/27 118/30/28
f 118/30/28 4/29/27 3/31/29
f 118/30/28 3/31/29 119/32/30
f 119/32/30 3/31/29 133/33/31
f 119/32/30 133/33/31 120/34/32
f 120/34/32 133/33/31 2/35/33
f 120/34/32 2/35/33 121/36/34
f 121/36/34 2/35/33 132/37/35
f 121/36/34 132/37/35 122/38/36
f 122/38/36 132/37/35 131/39/37
f 122/38/36 131/39/37 123/40/38
f 123/40/38 131/39/37 130/41/39
f 123/40/38 130/41/39 124/42/40
f 124/42/40 130/41/39 129/43/41
f 124/42/40 129/43/41 125/44/42
f 125/44/42 129/43/41 128/45/43
f 125/44/42 128/45/43 126/46/44
f 1/4/4 127/28/26 126/46/44
f 1/4/4 126/46/44 128/45/43
f 107/47/45 126/46/44 127/28/26
f 107/47/45 127/28/26 106/25/23
f 108/48/46 125/44/42 126/46/44
f 108/48/46 126/46/44 107/47/45
f 109/49/47 124/42/40 125/44/42
f 109/49/47 125/44/42 108/48/46
f 110/50/48 123/40/38 124/42/40
f 110/50/48 124/42/40 109/49/47
f 111/51/49 122/38/36 123/40/38
f 111/51/49 123/40/38 110/50/48
f 112/52/50 121/36/34 122/38/36
f 112/52/50 122/38/36 111/51/49
f 113/53/51 120/34/32 121/36/34
f 113/53/51 121/36/34 112/52/50
f 114/54/52 119/32/30 113/53/51
f 119/32/30 120/34/32 113/53/51
f 115/55/53 118/30/28 119/32/30
f 115/55/53 119/32/30 114/54/52
f 116/26/24 117/27/25 118/30/28
f 116/26/24 118/30/28 115/55/53
f 95/23/21 116/26/24 115/55/53
f 95/23/21 115/55/53 96/56/54
f 96/56/54 115/55/53 114/54/52
f 96/56/54 114/54/52 97/57/55
f 97/57/55 114/54/52 113/53/51
f 97/57/55 113/53/51 98/58/56
f 98/58/56 113/53/51 112/52/50
f 98/58/56 112/52/50 99/59/57
f 99/59/57 112/52/50 111/51/49
f 99/59/57 111/51/49 100/60/58
f 100/60/58 111/51/49 110/50/48
f 100/60/58 110/50/48 101/61/59
f 101/61/59 110/50/48 109/49/47
f 101/61/59 109/49/47 102/62/60
f 102/62/60 109/49/47 108/48/46
f 102/62/60 108/48/46 103/63/61
f 103/63/61 108/48/46 107/47/45
f 103/63/61 107/47/45 104/64/62
f 104/64/62 107/47/45 106/25/23
f 104/64/62 106/25/23 105/24/22
f 85/65/63 104/64/62 105/24/22
f 85/65/63 105/24/22 84/21/19
f 86/66/64 103/63/61 104/64/62
f 86/66/64 104/64/62 85/65/63
f 87/67/65 102/62/60 103/63/61
f 87/67/65 103/63/61 86/66/64
f 88/68/66 101/61/59 102/62/60
f 88/68/66 102/62/60 87/67/65
f 89/69/67 100/60/58 101/61/59
f 89/69/67 101/61/59 88/68/66
f 90/70/68 99/59/57 100/60/58
f 90/70/68 100/60/58 89/69/67
f 91/71/69 98/58/56 99/59/57
f 91/71/69 99/59/57 90/70/68
f 92/72/70 97/57/55 98/58/56
f 92/72/70 98/58/56 91/71/69
f 93/73/71 96/56/54 97/57/55
f 93/73/71 97/57/55 92/72/70
f 94/22/20 95/23/21 96/56/54
f 94/22/20 96/56/54 93/73/71
f 73/19/17 94/22/20 93/73/71
f 73/19/17 93/73/71 74/74/72
f 74/74/72 93/73/71 92/72/70
f 74/74/72 92/72/70 75/75/73
f 75/75/73 92/72/70 76/76/74
f 92/72/70 91/71/69 76/76/74
f 76/76/74 91/71/69 90/70/68
f 76/76/74 90/70/68 77/77/75
f 77/77/75 90/70/68 89/69/67
f 77/77/75 89/69/67 78/78/76
f 78/78/76 89/69/67 88/68/66
f 78/78/76 88/68/66 79/79/77
f 79/79/77 88/68/66 87/67/65
f 79/79/77 87/67/65 80/80/78
f 80/80/78 87/67/65 86/66/64
f 80/80/78 86/66/64 81/81/79
f 81/81/79 86/66/64 85/65/63
f 81/81/79 85/65/63 82/82/80
f 82/82/80 85/65/63 84/21/19
f 82/82/80 84/21/19 83/20/18
f 62/83/81 82/82/80 83/20/18
f 62/83/81 83/20/18 61/17/15
f 63/84/82 81/81/79 82/82/80
f 63/84/82 82/82/80 62/83/81
f 64/85/83 80/80/78 81/81/79
f 64/85/83 81/81/79 63/84/82
f 65/86/84 79/79/77 80/80/78
f 65/86/84 80/80/78 64/85/83
f 66/87/85 78/78/76 79/79/77
f 66/87/85 79/79/77 65/86/84
f 67/88/86 77/77/75 78/78/76
f 67/88/86 78/78/76 66/87/85
f 68/89/87 76/76/74 77/77/75
f 68/89/87 77/77/75 67/88/86
f 69/90/88 75/75/73 76/76/74
f 69/90/88 76/76/74 68/89/87
f 70/91/89 74/74/72 75/75/73
f 70/91/89 75/75/73 69/90/88
f 71/18/16 73/19/17 74/74/72
f 71/18/16 74/74/72 70/91/89
f 50/15/13 71/18/16 70/91/89
f 50/15/13 70/91/89 51/92/90
f 51/92/90 70/91/89 69/90/88
f 51/92/90 69/90/88 52/93/91
f 52/93/91 69/90/88 68/89/87
f 52/93/91 68/89/87 53/94/92
f 53/94/92 68/89/87 67/88/86
f 53/94/92 67/88/86 54/95/93
f 54/95/93 67/88/86 66/87/85
f 54/95/93 66/87/85 55/96/94
f 55/96/94 66/87/85 65/86/84
f 55/96/94 65/86/84 56/97/95
f 56/97/95 65/86/84 64/85/83
f 56/97/95 64/85/83 57/98/96
f 57/98/96 64/85/83 63/84/82
f 57/98/96 63/84/82 58/99/97
f 58/99/97 63/84/82 62/83/81
f 58/99/97 62/83/81 59/100/98
f 59/100/98 62/83/81 61/17/15
f 59/100/98 61/17/15 60/16/14
f 40/101/99 59/100/98 60/16/14
f 40/101/99 60/16/14 39/102/11
f 41/103/100 58/99/97 59/100/98
f 41/103/100 59/100/98 40/101/99
f 42/104/101 57/98/96 58/99/97
f 42/104/101 58/99/97 41/103/100
f 43/105/102 56/97/95 57/98/96
f 43/105/102 57/98/96 42/104/101
f 44/106/103 55/96/94 56/97/95
f 44/106/103 56/97/95 43/105/102
f 45/107/104 54/95/93 55/96/94
f 45/107/104 55/96/94 44/106/103
f 46/108/105 53/94/92 54/95/93
f 46/108/105 54/95/93 45/107/104
f 47/109/106 52/93/91 53/94/92
f 47/109/106 53/94/92 46/108/105
f 48/110/107 51/92/90 52/93/91
f 48/110/107 52/93/91 47/109/106
f 49/13/12 50/15/13 51/92/90
f 49/13/12 51/92/90 48/110/107
f 28/14/9 49/13/12 48/110/107
f 28/14/9 48/110/107 29/111/108
f 29/111/108 48/110/107 47/109/106
f 29/111/108 47/109/106 30/112/109
f 30/112/109 47/109/106 46/108/105
f 30/112/109 46/108/105 31/113/110
f 31/113/110 46/108/105 45/107/104
f 31/113/110 45/107/104 32/114/111
f 32/114/111 45/107/104 44/106/103
f 32/114/111 44/106/103 33/115/112
f 33/115/112 44/106/103 43/105/102
f 33/115/112 43/105/102 34/116/113
f 34/116/113 43/105/102 42/104/101
f 34/116/113 42/104/101 35/117/114
f 35/117/114 42/104/101 41/103/100
f 35/117/114 41/103/100 36/118/115
f 36/118/115 41/103/100 40/101/99
f 36/118/115 40/101/99 37/119/116
f 37/120/116 40/121/99 39/11/11
f 37/120/116 39/11/11 38/10/10
f 18/122/117 37/120/116 38/10/10
f 18/122/117 38/10/10 17/7/7
f 19/123/118 36/124/115 37/120/116
f 19/123/118 37/120/116 18/122/117
f 20/125/119 35/126/114 36/124/115
f 20/125/119 36/124/115 19/123/118
f 21/127/120 34/128/113 35/126/114
f 21/127/120 35/126/114 20/125/119
f 22/129/121 33/130/112 34/128/113
f 22/129/121 34/128/113 21/127/120
f 23/131/122 32/132/111 33/130/112
f 23/131/122 33/130/112 22/129/121
f 24/133/123 31/134/110 32/132/111
f 24/133/123 32/132/111 23/131/122
f 25/135/124 30/136/109 31/134/110
f 25/135/124 31/134/110 24/133/123
f 26/137/125 29/138/108 30/136/109
f 26/137/125 30/136/109 25/135/124
f 27/8/8 28/9/9 29/138/108
f 27/8/8 29/138/108 26/137/125
f 5/2/2 27/8/8 26/137/125
f 5/2/2 26/137/125 6/139/126
f 6/139/126 26/137/125 25/135/124
f 6/139/126 25/135/124 7/140/127
f 7/140/127 25/135/124 24/133/123
f 7/140/127 24/133/123 8/141/128
f 8/141/128 24/133/123 23/131/122
f 8/141/128 23/131/122 9/142/129
f 9/142/129 23/131/122 22/129/121
f 9/142/129 22/129/121 10/143/130
f 10/143/130 22/129/121 21/127/120
f 10/143/130 21/127/120 11/144/131
f 11/144/131 21/127/120 20/125/119
f 11/144/131 20/125/119 12/145/132
f 12/145/132 20/125/119 19/123/118
f 12/145/132 19/123/118 13/146/133
f 13/146/133 19/123/118 18/122/117
f 13/146/133 18/122/117 14/147/134
f 14/147/134 18/122/117 17/7/7
f 14/147/134 17/7/7 15/5/5
f 15/5/5 1/4/4 128/45/43
f 15/5/5 128/45/43 14/147/134
f 129/43/41 13/146/133 14/147/134
f 129/43/41 14/147/134 128/45/43
f 130/41/39 12/145/132 13/146/133
f 130/41/39 13/146/133 129/43/41
f 131/39/37 11/144/131 12/145/132
f 131/39/37 12/145/132 130/41/39
f 132/37/35 10/143/130 11/144/131
f 132/37/35 11/144/131 131/39/37
f 2/35/33 9/142/129 132/37/35
f 9/142/129 10/143/130 132/37/35
f 133/33/31 8/141/128 9/142/129
f 133/33/31 9/142/129 2/35/33
f 3/31/29 7/140/127 8/141/128
f 3/31/29 8/141/128 133/33/31
f 4/29/27 6/139/126 7/140/127
f 4/29/27 7/140/127 3/31/29
f 134/3/3 5/2/2 6/139/126
f 134/3/3 6/139/126 4/29/27
