# Blender v2.57 (sub 0) OBJ File: 'paper.blend'
# www.blender.org
mtllib paper.mtl
o Sphere
v 0.129410 0.482963 -0.000000
v 0.482963 -0.129409 0.000000
v 0.353554 -0.353553 0.000000
v 0.250000 -0.433013 0.000000
v 0.112072 -0.482963 -0.064705
v 0.216506 -0.433013 -0.125000
v 0.306186 -0.353553 -0.176777
v 0.375000 -0.250000 -0.216506
v 0.418258 -0.129409 -0.241481
v 0.433013 0.000000 -0.250000
v 0.418258 0.129410 -0.241481
v 0.375000 0.250000 -0.216506
v 0.306186 0.353553 -0.176777
v 0.216506 0.433013 -0.125000
v 0.112072 0.482963 -0.064705
v 0.000000 0.500000 -0.000000
v 0.064705 0.482963 -0.112072
v 0.125000 0.433013 -0.216506
v 0.176777 0.353553 -0.306186
v 0.216506 0.250000 -0.375000
v 0.241481 0.129410 -0.418258
v 0.250000 0.000000 -0.433013
v 0.241481 -0.129409 -0.418258
v 0.216506 -0.250000 -0.375000
v 0.176777 -0.353553 -0.306186
v 0.125000 -0.433013 -0.216506
v 0.064705 -0.482963 -0.112072
v -0.000000 -0.482963 -0.129410
v -0.000000 -0.433013 -0.250000
v -0.000000 -0.353553 -0.353554
v -0.000000 -0.250000 -0.433013
v -0.000000 -0.129409 -0.482963
v -0.000000 0.000000 -0.500000
v -0.000000 0.129410 -0.482963
v -0.000000 0.250000 -0.433013
v -0.000000 0.353553 -0.353553
v -0.000000 0.433013 -0.250000
v 0.000000 0.482963 -0.129410
v -0.064705 0.482963 -0.112072
v -0.125000 0.433013 -0.216506
v -0.176777 0.353553 -0.306186
v -0.216506 0.250000 -0.375000
v -0.241481 0.129410 -0.418258
v -0.250000 0.000000 -0.433013
v -0.241481 -0.129409 -0.418258
v -0.216506 -0.250000 -0.375000
v -0.176777 -0.353553 -0.306186
v -0.125000 -0.433013 -0.216506
v -0.064705 -0.482963 -0.112072
v -0.112072 -0.482963 -0.064705
v -0.216506 -0.433013 -0.125000
v -0.306186 -0.353553 -0.176777
v -0.375000 -0.250000 -0.216506
v -0.418258 -0.129409 -0.241481
v -0.433013 0.000000 -0.250000
v -0.418258 0.129410 -0.241481
v -0.375000 0.250000 -0.216506
v -0.306186 0.353553 -0.176777
v -0.216506 0.433013 -0.125000
v -0.112072 0.482963 -0.064705
v -0.129410 0.482963 -0.000000
v -0.250000 0.433013 -0.000000
v -0.353553 0.353553 0.000000
v -0.433013 0.250000 0.000000
v -0.482963 0.129410 0.000000
v -0.500000 0.000000 0.000000
v -0.482963 -0.129409 0.000000
v -0.433013 -0.250000 0.000000
v -0.353554 -0.353553 0.000000
v -0.250000 -0.433013 0.000000
v -0.129410 -0.482963 0.000000
v -0.000000 -0.500000 0.000000
v -0.112072 -0.482963 0.064705
v -0.216506 -0.433013 0.125000
v -0.306186 -0.353553 0.176777
v -0.375000 -0.250000 0.216506
v -0.418258 -0.129409 0.241482
v -0.433013 0.000000 0.250000
v -0.418258 0.129410 0.241481
v -0.375000 0.250000 0.216506
v -0.306186 0.353553 0.176777
v -0.216506 0.433013 0.125000
v -0.112072 0.482963 0.064705
v -0.064705 0.482963 0.112072
v -0.125000 0.433013 0.216506
v -0.176777 0.353553 0.306186
v -0.216506 0.250000 0.375000
v -0.241481 0.129410 0.418258
v -0.250000 0.000000 0.433013
v -0.241481 -0.129409 0.418258
v -0.216506 -0.250000 0.375000
v -0.176777 -0.353553 0.306186
v -0.125000 -0.433013 0.216506
v -0.064705 -0.482963 0.112072
v 0.000000 -0.482963 0.129410
v 0.000000 -0.433013 0.250000
v 0.000000 -0.353553 0.353554
v 0.000000 -0.250000 0.433013
v 0.000000 -0.129409 0.482963
v 0.000000 0.000000 0.500000
v 0.000000 0.129410 0.482963
v 0.000000 0.250000 0.433013
v 0.000000 0.353553 0.353553
v 0.000000 0.433013 0.250000
v -0.000000 0.482963 0.129410
v 0.064705 0.482963 0.112072
v 0.125000 0.433013 0.216506
v 0.176777 0.353553 0.306186
v 0.216506 0.250000 0.375000
v 0.241481 0.129410 0.418258
v 0.250000 0.000000 0.433013
v 0.241482 -0.129409 0.418258
v 0.216506 -0.250000 0.375000
v 0.176777 -0.353553 0.306186
v 0.125000 -0.433013 0.216506
v 0.064705 -0.482963 0.112072
v 0.112072 -0.482963 0.064705
v 0.216506 -0.433013 0.125000
v 0.306186 -0.353553 0.176777
v 0.375000 -0.250000 0.216506
v 0.418258 -0.129409 0.241481
v 0.433013 0.000000 0.250000
v 0.418258 0.129410 0.241481
v 0.375000 0.250000 0.216506
v 0.306186 0.353553 0.176777
v 0.216506 0.433013 0.125000
v 0.112072 0.482963 0.064705
v 0.250000 0.433013 -0.000000
v 0.353553 0.353553 -0.000000
v 0.433013 0.250000 -0.000000
v 0.482963 0.129410 -0.000000
v 0.500000 0.000000 -0.000000
v 0.433013 -0.250000 -0.000000
v 0.129410 -0.482963 0.000000
vt 1.939059 -0.500000
vt 1.020314 -0.333333
vt 0.853647 -0.333333
vt 1.020314 -0.166666
vt 0.853647 -0.166666
vt 1.020314 0.000000
vt 0.853647 0.000000
vt 1.020314 0.166667
vt 0.853647 0.166667
vt 1.020314 0.333333
vt 0.853647 0.333333
vt 1.020314 0.500000
vt 0.853647 0.500000
vt 1.020314 0.666667
vt 0.853647 0.666667
vt 1.020314 0.833333
vt 0.853647 0.833333
vt 1.020314 1.000000
vt 0.853647 1.000000
vt 1.020314 1.166667
vt 0.853647 1.166667
vt 1.020313 1.333333
vt 0.853647 1.333333
vt 0.621881 1.500000
vt 1.186980 1.333333
vt 1.186980 1.166667
vt 1.186980 1.000000
vt 1.186980 0.833333
vt 1.186980 0.666667
vt 1.186980 0.500000
vt 1.186980 0.333333
vt 1.186980 0.166667
vt 1.186980 0.000000
vt 1.186980 -0.166666
vt 1.186980 -0.333333
vt 1.353647 -0.333333
vt 1.353647 -0.166666
vt 1.353647 0.000000
vt 1.353647 0.166667
vt 1.353647 0.333333
vt 1.353647 0.500000
vt 1.353647 0.666667
vt 1.353647 0.833333
vt 1.353647 1.000000
vt 1.353647 1.166667
vt 1.353647 1.333333
vt 1.520313 1.333333
vt 1.520314 1.166667
vt -0.646353 1.000000
vt -0.479686 1.000000
vt -0.479686 1.166667
vt -0.646353 1.166667
vt -0.646353 0.833333
vt -0.479686 0.833333
vt -0.646353 0.666667
vt -0.479686 0.666667
vt -0.646353 0.500000
vt -0.479686 0.500000
vt -0.646353 0.333333
vt -0.479686 0.333333
vt -0.646353 0.166667
vt -0.479686 0.166667
vt -0.646353 0.000000
vt -0.479686 0.000000
vt -0.646353 -0.166666
vt -0.479686 -0.166666
vt -0.646353 -0.333333
vt -0.479686 -0.333333
vt -0.060941 -0.500000
vt -0.313020 -0.333333
vt -0.313020 -0.166666
vt -0.313020 0.000000
vt -0.313020 0.166667
vt -0.313020 0.333333
vt -0.313020 0.500000
vt -0.313020 0.666667
vt -0.313020 0.833333
vt -0.313020 1.000000
vt -0.313020 1.166667
vt -0.313020 1.333333
vt -0.479686 1.333333
vt -0.146353 1.333333
vt -0.146353 1.166667
vt -0.146353 1.000000
vt -0.146353 0.833333
vt -0.146353 0.666667
vt -0.146353 0.500000
vt -0.146353 0.333333
vt -0.146353 0.166667
vt -0.146353 0.000000
vt -0.146353 -0.166666
vt -0.146353 -0.333333
vt 0.020313 -0.333333
vt 0.020313 -0.166666
vt 0.020314 0.000000
vt 0.020314 0.166667
vt 0.020314 0.333333
vt 0.020314 0.500000
vt 0.020314 0.666667
vt 0.020314 0.833333
vt 0.020314 1.000000
vt 0.020314 1.166667
vt 0.020314 1.333333
vt 0.186980 1.333333
vt 0.186980 1.166667
vt 0.186980 1.000000
vt 0.186980 0.833333
vt 0.186980 0.666667
vt 0.186980 0.500000
vt 0.186980 0.333333
vt 0.186980 0.166667
vt 0.186980 0.000000
vt 0.186980 -0.166666
vt 0.186980 -0.333333
vt 0.353647 -0.333333
vt 0.353647 -0.166667
vt 0.353647 0.000000
vt 0.353647 0.166667
vt 0.353647 0.333333
vt 0.353647 0.500000
vt 0.353647 0.666667
vt 0.353647 0.833333
vt 0.353647 1.000000
vt 0.353647 1.166667
vt 0.353647 1.333333
vt 0.520314 1.333333
vt 0.520314 1.166667
vt 0.520314 1.000000
vt 0.520314 0.833333
vt 0.520314 0.666667
vt 0.520314 0.500000
vt 0.520314 0.333333
vt 0.520314 0.166667
vt 0.520314 0.000000
vt 0.520314 -0.166667
vt 0.520314 -0.333333
vt 0.686980 -0.333333
vt 0.686980 -0.166667
vt 0.686980 0.000000
vt 0.686980 0.166667
vt 0.686980 0.333333
vt 0.686980 0.500000
vt 0.686980 0.666667
vt 0.686980 0.833333
vt 0.686980 1.000000
vt 0.686980 1.166667
vt 0.686980 1.333333
vn 0.000000 -1.000000 0.000000
vn 0.241493 -0.960326 -0.139409
vn 0.278848 -0.960326 0.000000
vn 0.446791 -0.856624 -0.257942
vn 0.515915 -0.856624 0.000000
vn 0.621448 -0.696432 -0.358776
vn 0.717582 -0.696432 0.000000
vn 0.754479 -0.490860 -0.435591
vn 0.871212 -0.490860 0.000000
vn 0.837703 -0.253578 -0.483627
vn 0.967284 -0.253578 0.000000
vn 0.866024 0.000000 -0.499985
vn 1.000000 0.000000 0.000000
vn 0.837703 0.253578 -0.483627
vn 0.967284 0.253578 0.000000
vn 0.754479 0.490860 -0.435591
vn 0.871212 0.490860 0.000000
vn 0.621448 0.696432 -0.358776
vn 0.717582 0.696432 0.000000
vn 0.446791 0.856624 -0.257942
vn 0.515915 0.856624 0.000000
vn 0.241493 0.960326 -0.139409
vn 0.278848 0.960326 0.000000
vn 0.000000 1.000000 0.000000
vn 0.139409 0.960326 -0.241493
vn 0.257942 0.856624 -0.446791
vn 0.358776 0.696432 -0.621448
vn 0.435591 0.490860 -0.754479
vn 0.483627 0.253578 -0.837703
vn 0.499985 0.000000 -0.866024
vn 0.483627 -0.253578 -0.837703
vn 0.435591 -0.490860 -0.754479
vn 0.358776 -0.696432 -0.621448
vn 0.257942 -0.856624 -0.446791
vn 0.139409 -0.960326 -0.241493
vn 0.000000 -0.960326 -0.278848
vn 0.000000 -0.856624 -0.515915
vn 0.000000 -0.696432 -0.717582
vn 0.000000 -0.490860 -0.871212
vn 0.000000 -0.253578 -0.967284
vn 0.000000 0.000000 -0.999969
vn 0.000000 0.253578 -0.967284
vn 0.000000 0.490860 -0.871212
vn 0.000000 0.696432 -0.717582
vn 0.000000 0.856624 -0.515915
vn 0.000000 0.960326 -0.278848
vn -0.139409 0.960326 -0.241493
vn -0.257942 0.856624 -0.446791
vn -0.358776 0.696432 -0.621448
vn -0.435591 0.490860 -0.754479
vn -0.483627 0.253578 -0.837703
vn -0.499985 0.000000 -0.866024
vn -0.483627 -0.253578 -0.837703
vn -0.435591 -0.490860 -0.754479
vn -0.358776 -0.696432 -0.621448
vn -0.257942 -0.856624 -0.446791
vn -0.139409 -0.960326 -0.241493
vn -0.241493 -0.960326 -0.139409
vn -0.446791 -0.856624 -0.257942
vn -0.621448 -0.696432 -0.358776
vn -0.754479 -0.490860 -0.435591
vn -0.837703 -0.253578 -0.483627
vn -0.866024 0.000000 -0.499985
vn -0.837703 0.253578 -0.483627
vn -0.754479 0.490860 -0.435591
vn -0.621448 0.696432 -0.358776
vn -0.446791 0.856624 -0.257942
vn -0.241493 0.960326 -0.139409
vn -0.278848 0.960326 0.000000
vn -0.515915 0.856624 0.000000
vn -0.717582 0.696432 0.000000
vn -0.871212 0.490860 0.000000
vn -0.967284 0.253578 0.000000
vn -0.999969 0.000000 0.000000
vn -0.967284 -0.253578 0.000000
vn -0.871212 -0.490860 0.000000
vn -0.717582 -0.696432 0.000000
vn -0.515915 -0.856624 0.000000
vn -0.278848 -0.960326 0.000000
vn -0.241493 -0.960326 0.139409
vn -0.446791 -0.856624 0.257942
vn -0.621448 -0.696432 0.358776
vn -0.754479 -0.490860 0.435591
vn -0.837703 -0.253578 0.483627
vn -0.866024 0.000000 0.499985
vn -0.837703 0.253578 0.483627
vn -0.754479 0.490860 0.435591
vn -0.621448 0.696432 0.358776
vn -0.446791 0.856624 0.257942
vn -0.241493 0.960326 0.139409
vn -0.139409 0.960326 0.241493
vn -0.257942 0.856624 0.446791
vn -0.358776 0.696432 0.621448
vn -0.435591 0.490860 0.754479
vn -0.483627 0.253578 0.837703
vn -0.499985 0.000000 0.866024
vn -0.483627 -0.253578 0.837703
vn -0.435591 -0.490860 0.754479
vn -0.358776 -0.696432 0.621448
vn -0.257942 -0.856624 0.446791
vn -0.139409 -0.960326 0.241493
vn 0.000000 -0.960326 0.278848
vn 0.000000 -0.856624 0.515915
vn 0.000000 -0.696432 0.717582
vn 0.000000 -0.490860 0.871212
vn 0.000000 -0.253578 0.967284
vn 0.000000 0.000000 0.999969
vn 0.000000 0.253578 0.967284
vn 0.000000 0.490860 0.871212
vn 0.000000 0.696432 0.717582
vn 0.000000 0.856624 0.515915
vn 0.000000 0.960326 0.278848
vn 0.139409 0.960326 0.241493
vn 0.257942 0.856624 0.446791
vn 0.358776 0.696432 0.621448
vn 0.435591 0.490860 0.754479
vn 0.483627 0.253578 0.837703
vn 0.499985 0.000000 0.866024
vn 0.483627 -0.253578 0.837703
vn 0.435591 -0.490860 0.754479
vn 0.358776 -0.696432 0.621448
vn 0.257942 -0.856624 0.446791
vn 0.139409 -0.960326 0.241493
vn 0.241493 -0.960326 0.139409
vn 0.446791 -0.856624 0.257942
vn 0.621448 -0.696432 0.358776
vn 0.754479 -0.490860 0.435591
vn 0.837703 -0.253578 0.483627
vn 0.866024 0.000000 0.499985
vn 0.837703 0.253578 0.483627
vn 0.754479 0.490860 0.435591
vn 0.621448 0.696432 0.358776
vn 0.446791 0.856624 0.257942
vn 0.241493 0.960326 0.139409
usemtl Material.001_paper.jpg
s 1
f 72/1/1 5/2/2 134/3/3
f 134/3/3 5/2/2 6/4/4
f 134/3/3 6/4/4 4/5/5
f 4/5/5 6/4/4 7/6/6
f 4/5/5 7/6/6 3/7/7
f 3/7/7 7/6/6 8/8/8
f 3/7/7 8/8/8 133/9/9
f 133/9/9 8/8/8 9/10/10
f 133/9/9 9/10/10 2/11/11
f 2/11/11 9/10/10 10/12/12
f 2/11/11 10/12/12 132/13/13
f 132/13/13 10/12/12 11/14/14
f 132/13/13 11/14/14 131/15/15
f 131/15/15 11/14/14 12/16/16
f 131/15/15 12/16/16 130/17/17
f 130/17/17 12/16/16 13/18/18
f 130/17/17 13/18/18 129/19/19
f 129/19/19 13/18/18 14/20/20
f 129/19/19 14/20/20 128/21/21
f 15/22/22 1/23/23 128/21/21
f 15/22/22 128/21/21 14/20/20
f 1/23/23 15/22/22 16/24/24
f 15/22/22 17/25/25 16/24/24
f 14/20/20 18/26/26 17/25/25
f 14/20/20 17/25/25 15/22/22
f 13/18/18 19/27/27 18/26/26
f 13/18/18 18/26/26 14/20/20
f 12/16/16 20/28/28 19/27/27
f 12/16/16 19/27/27 13/18/18
f 11/14/14 21/29/29 20/28/28
f 11/14/14 20/28/28 12/16/16
f 10/12/12 22/30/30 21/29/29
f 10/12/12 21/29/29 11/14/14
f 9/10/10 23/31/31 22/30/30
f 9/10/10 22/30/30 10/12/12
f 8/8/8 24/32/32 23/31/31
f 8/8/8 23/31/31 9/10/10
f 7/6/6 25/33/33 24/32/32
f 7/6/6 24/32/32 8/8/8
f 6/4/4 26/34/34 25/33/33
f 6/4/4 25/33/33 7/6/6
f 5/2/2 27/35/35 26/34/34
f 5/2/2 26/34/34 6/4/4
f 72/1/1 27/35/35 5/2/2
f 72/1/1 28/36/36 27/35/35
f 27/35/35 28/36/36 29/37/37
f 27/35/35 29/37/37 26/34/34
f 26/34/34 29/37/37 30/38/38
f 26/34/34 30/38/38 25/33/33
f 25/33/33 30/38/38 31/39/39
f 25/33/33 31/39/39 24/32/32
f 24/32/32 31/39/39 32/40/40
f 24/32/32 32/40/40 23/31/31
f 23/31/31 32/40/40 33/41/41
f 23/31/31 33/41/41 22/30/30
f 22/30/30 33/41/41 34/42/42
f 22/30/30 34/42/42 21/29/29
f 21/29/29 34/42/42 35/43/43
f 21/29/29 35/43/43 20/28/28
f 20/28/28 35/43/43 36/44/44
f 20/28/28 36/44/44 19/27/27
f 19/27/27 36/44/44 37/45/45
f 19/27/27 37/45/45 18/26/26
f 18/26/26 37/45/45 38/46/46
f 18/26/26 38/46/46 17/25/25
f 17/25/25 38/46/46 16/24/24
f 38/46/46 39/47/47 16/24/24
f 37/45/45 40/48/48 39/47/47
f 37/45/45 39/47/47 38/46/46
f 36/49/44 41/50/49 40/51/48
f 36/49/44 40/51/48 37/52/45
f 35/53/43 42/54/50 41/50/49
f 35/53/43 41/50/49 36/49/44
f 34/55/42 43/56/51 42/54/50
f 34/55/42 42/54/50 35/53/43
f 33/57/41 44/58/52 43/56/51
f 33/57/41 43/56/51 34/55/42
f 32/59/40 45/60/53 44/58/52
f 32/59/40 44/58/52 33/57/41
f 31/61/39 46/62/54 45/60/53
f 31/61/39 45/60/53 32/59/40
f 30/63/38 47/64/55 46/62/54
f 30/63/38 46/62/54 31/61/39
f 29/65/37 48/66/56 47/64/55
f 29/65/37 47/64/55 30/63/38
f 28/67/36 49/68/57 48/66/56
f 28/67/36 48/66/56 29/65/37
f 72/69/1 49/68/57 28/67/36
f 72/69/1 50/70/58 49/68/57
f 49/68/57 50/70/58 51/71/59
f 49/68/57 51/71/59 48/66/56
f 48/66/56 51/71/59 52/72/60
f 48/66/56 52/72/60 47/64/55
f 47/64/55 52/72/60 53/73/61
f 47/64/55 53/73/61 46/62/54
f 46/62/54 53/73/61 54/74/62
f 46/62/54 54/74/62 45/60/53
f 45/60/53 54/74/62 55/75/63
f 45/60/53 55/75/63 44/58/52
f 44/58/52 55/75/63 56/76/64
f 44/58/52 56/76/64 43/56/51
f 43/56/51 56/76/64 57/77/65
f 43/56/51 57/77/65 42/54/50
f 42/54/50 57/77/65 58/78/66
f 42/54/50 58/78/66 41/50/49
f 41/50/49 58/78/66 59/79/67
f 41/50/49 59/79/67 40/51/48
f 40/51/48 59/79/67 60/80/68
f 40/51/48 60/80/68 39/81/47
f 39/47/47 60/80/68 16/24/24
f 60/80/68 61/82/69 16/24/24
f 59/79/67 62/83/70 61/82/69
f 59/79/67 61/82/69 60/80/68
f 58/78/66 63/84/71 62/83/70
f 58/78/66 62/83/70 59/79/67
f 57/77/65 64/85/72 63/84/71
f 57/77/65 63/84/71 58/78/66
f 56/76/64 65/86/73 64/85/72
f 56/76/64 64/85/72 57/77/65
f 55/75/63 66/87/74 65/86/73
f 55/75/63 65/86/73 56/76/64
f 54/74/62 67/88/75 66/87/74
f 54/74/62 66/87/74 55/75/63
f 53/73/61 68/89/76 67/88/75
f 53/73/61 67/88/75 54/74/62
f 52/72/60 69/90/77 68/89/76
f 52/72/60 68/89/76 53/73/61
f 51/71/59 70/91/78 69/90/77
f 51/71/59 69/90/77 52/72/60
f 50/70/58 71/92/79 70/91/78
f 50/70/58 70/91/78 51/71/59
f 72/69/1 71/92/79 50/70/58
f 72/69/1 73/93/80 71/92/79
f 71/92/79 73/93/80 74/94/81
f 71/92/79 74/94/81 70/91/78
f 70/91/78 74/94/81 75/95/82
f 70/91/78 75/95/82 69/90/77
f 69/90/77 75/95/82 76/96/83
f 69/90/77 76/96/83 68/89/76
f 68/89/76 76/96/83 77/97/84
f 68/89/76 77/97/84 67/88/75
f 67/88/75 77/97/84 78/98/85
f 67/88/75 78/98/85 66/87/74
f 66/87/74 78/98/85 79/99/86
f 66/87/74 79/99/86 65/86/73
f 65/86/73 79/99/86 80/100/87
f 65/86/73 80/100/87 64/85/72
f 64/85/72 80/100/87 81/101/88
f 64/85/72 81/101/88 63/84/71
f 63/84/71 81/101/88 82/102/89
f 63/84/71 82/102/89 62/83/70
f 62/83/70 82/102/89 83/103/90
f 62/83/70 83/103/90 61/82/69
f 61/82/69 83/103/90 16/24/24
f 83/103/90 84/104/91 16/24/24
f 82/102/89 85/105/92 84/104/91
f 82/102/89 84/104/91 83/103/90
f 81/101/88 86/106/93 85/105/92
f 81/101/88 85/105/92 82/102/89
f 80/100/87 87/107/94 86/106/93
f 80/100/87 86/106/93 81/101/88
f 79/99/86 88/108/95 87/107/94
f 79/99/86 87/107/94 80/100/87
f 78/98/85 89/109/96 88/108/95
f 78/98/85 88/108/95 79/99/86
f 77/97/84 90/110/97 89/109/96
f 77/97/84 89/109/96 78/98/85
f 76/96/83 91/111/98 90/110/97
f 76/96/83 90/110/97 77/97/84
f 75/95/82 92/112/99 91/111/98
f 75/95/82 91/111/98 76/96/83
f 74/94/81 93/113/100 92/112/99
f 74/94/81 92/112/99 75/95/82
f 73/93/80 94/114/101 93/113/100
f 73/93/80 93/113/100 74/94/81
f 72/69/1 94/114/101 73/93/80
f 72/69/1 95/115/102 94/114/101
f 94/114/101 95/115/102 96/116/103
f 94/114/101 96/116/103 93/113/100
f 93/113/100 96/116/103 97/117/104
f 93/113/100 97/117/104 92/112/99
f 92/112/99 97/117/104 98/118/105
f 92/112/99 98/118/105 91/111/98
f 91/111/98 98/118/105 99/119/106
f 91/111/98 99/119/106 90/110/97
f 90/110/97 99/119/106 100/120/107
f 90/110/97 100/120/107 89/109/96
f 89/109/96 100/120/107 101/121/108
f 89/109/96 101/121/108 88/108/95
f 88/108/95 101/121/108 102/122/109
f 88/108/95 102/122/109 87/107/94
f 87/107/94 102/122/109 103/123/110
f 87/107/94 103/123/110 86/106/93
f 86/106/93 103/123/110 104/124/111
f 86/106/93 104/124/111 85/105/92
f 85/105/92 104/124/111 105/125/112
f 85/105/92 105/125/112 84/104/91
f 84/104/91 105/125/112 16/24/24
f 105/125/112 106/126/113 16/24/24
f 104/124/111 107/127/114 106/126/113
f 104/124/111 106/126/113 105/125/112
f 103/123/110 108/128/115 107/127/114
f 103/123/110 107/127/114 104/124/111
f 102/122/109 109/129/116 108/128/115
f 102/122/109 108/128/115 103/123/110
f 101/121/108 110/130/117 109/129/116
f 101/121/108 109/129/116 102/122/109
f 100/120/107 111/131/118 110/130/117
f 100/120/107 110/130/117 101/121/108
f 99/119/106 112/132/119 111/131/118
f 99/119/106 111/131/118 100/120/107
f 98/118/105 113/133/120 112/132/119
f 98/118/105 112/132/119 99/119/106
f 97/117/104 114/134/121 113/133/120
f 97/117/104 113/133/120 98/118/105
f 96/116/103 115/135/122 114/134/121
f 96/116/103 114/134/121 97/117/104
f 95/115/102 116/136/123 115/135/122
f 95/115/102 115/135/122 96/116/103
f 72/69/1 116/136/123 95/115/102
f 72/69/1 117/137/124 116/136/123
f 116/136/123 117/137/124 118/138/125
f 116/136/123 118/138/125 115/135/122
f 115/135/122 118/138/125 119/139/126
f 115/135/122 119/139/126 114/134/121
f 114/134/121 119/139/126 120/140/127
f 114/134/121 120/140/127 113/133/120
f 113/133/120 120/140/127 121/141/128
f 113/133/120 121/141/128 112/132/119
f 112/132/119 121/141/128 122/142/129
f 112/132/119 122/142/129 111/131/118
f 111/131/118 122/142/129 123/143/130
f 111/131/118 123/143/130 110/130/117
f 110/130/117 123/143/130 124/144/131
f 110/130/117 124/144/131 109/129/116
f 109/129/116 124/144/131 125/145/132
f 109/129/116 125/145/132 108/128/115
f 108/128/115 125/145/132 126/146/133
f 108/128/115 126/146/133 107/127/114
f 107/127/114 126/146/133 127/147/134
f 107/127/114 127/147/134 106/126/113
f 106/126/113 127/147/134 16/24/24
f 127/147/134 1/23/23 16/24/24
f 1/23/23 127/147/134 126/146/133
f 1/23/23 126/146/133 128/21/21
f 125/145/132 129/19/19 128/21/21
f 125/145/132 128/21/21 126/146/133
f 124/144/131 130/17/17 129/19/19
f 124/144/131 129/19/19 125/145/132
f 123/143/130 131/15/15 130/17/17
f 123/143/130 130/17/17 124/144/131
f 122/142/129 132/13/13 131/15/15
f 122/142/129 131/15/15 123/143/130
f 121/141/128 2/11/11 132/13/13
f 121/141/128 132/13/13 122/142/129
f 120/140/127 133/9/9 2/11/11
f 120/140/127 2/11/11 121/141/128
f 119/139/126 3/7/7 133/9/9
f 119/139/126 133/9/9 120/140/127
f 118/138/125 4/5/5 3/7/7
f 118/138/125 3/7/7 119/139/126
f 117/137/124 134/3/3 4/5/5
f 117/137/124 4/5/5 118/138/125
f 72/69/1 134/3/3 117/137/124
