# Blender3D v249 OBJ File: electro.blend
# www.blender3d.org
mtllib electro.mtl
v 26.000000 -0.999999 27.000000
v 26.000000 -0.999999 29.000000
v -27.000004 -0.999999 29.000000
v 26.000013 1.000001 27.000000
v 25.999981 1.000001 29.000000
v -27.000011 1.000001 29.000000
v 26.000013 15.000001 27.000000
v -26.999998 15.000001 27.000000
v -27.000011 15.000001 28.999998
v 25.999981 15.000001 29.000000
v 26.000013 17.000002 27.000000
v 25.999981 17.000002 29.000000
v -27.000011 17.000002 28.999998
v -29.000000 15.000001 27.000000
v -29.000000 17.000002 27.000000
v -29.000010 17.000002 28.999998
v -29.000010 15.000001 28.999998
v -29.000010 1.000001 29.000000
v -29.000000 1.000001 27.000000
v -28.999989 -0.999999 27.000000
v -29.000004 -0.999999 29.000000
v 27.999981 15.000001 29.000000
v 27.999981 17.000002 29.000000
v 28.000013 17.000002 27.000000
v 28.000013 15.000001 27.000000
v 27.999981 1.000001 29.000000
v 28.000013 1.000001 27.000000
v 28.000000 -0.999999 27.000000
v 28.000000 -0.999999 29.000000
v 28.000000 -0.999997 -26.000000
v 28.000013 1.000003 -26.000000
v 28.000013 15.000003 -26.000000
v 28.000013 17.000002 -26.000000
v 26.000013 15.000003 -28.000000
v 26.000013 17.000002 -28.000000
v 28.000013 17.000002 -28.000000
v 28.000013 15.000003 -28.000000
v 28.000013 1.000003 -28.000000
v 28.000000 -0.999997 -28.000000
v -29.000000 0.999999 -26.000000
v -28.999989 -1.000001 -26.000000
v -29.000000 15.000000 -26.000000
v -26.999998 16.999998 -26.000000
v -29.000000 16.999998 -26.000000
v -26.999998 0.999999 -26.000000
v -26.999998 0.999999 -28.000000
v -26.999990 -1.000001 -28.000000
v -26.999998 15.000000 -28.000000
v -26.999998 16.999998 -28.000000
v -29.000000 16.999998 -28.000000
v -29.000000 15.000000 -28.000000
v -29.000000 0.999999 -28.000000
v -28.999989 -1.000001 -28.000000
v 26.000002 16.999998 -26.000000
v 26.000002 0.999999 -28.000000
v 26.000011 -1.000000 -28.000000
v 26.000011 -1.000000 -26.000000
v 26.000002 1.000000 -26.000000
v 26.000002 15.000000 -26.000000
v -27.000002 -0.999999 27.000000
v -26.999990 -1.000000 -26.000000
v -26.999989 1.000001 27.000000
v -26.999989 17.000002 27.000000
v -26.999998 15.000000 -26.000000
v 13.000000 2.000000 -9.000000
v 13.000000 -0.000001 -13.500000
v 7.000000 -0.000001 -13.500000
v 7.000001 2.000000 -9.000000
v 13.000000 2.000000 8.999998
v 13.000000 -0.000000 13.499997
v 7.000000 0.000001 13.499997
v 7.000000 2.000000 8.999998
v -15.000001 2.000000 8.999998
v -15.000001 0.000001 13.499997
v -9.000001 -0.000000 13.499997
v -9.000001 2.000000 8.999998
v -15.000000 2.000000 -9.000000
v -15.000001 -0.000001 -13.500000
v -9.000001 -0.000001 -13.500000
v -9.000001 2.000000 -9.000000
vt 2.597917 1.090584
vt 2.597917 1.249119
vt -1.603269 1.249119
vt -1.603270 1.090584
vt 2.597916 1.249119
vt 2.597916 1.090584
vt -1.603270 1.249119
vt 2.837262 -1.844847
vt 2.837264 2.817459
vt -1.825043 2.817459
vt -1.825043 -1.844847
vt 2.597917 2.606592
vt 2.597916 -1.594593
vt -1.603270 -1.594593
vt -1.603269 2.606592
vt -1.603270 -0.177698
vt -1.603269 -0.019163
vt -1.603270 -0.019163
vt -1.603269 -0.177698
vt 2.597916 -0.019163
vt 2.597917 -0.177698
vt 3.208125 3.223943
vt 3.208124 -2.202067
vt -2.217886 -2.202067
vt -2.217885 3.223943
vt 2.597917 -1.594593
vt 2.597916 2.606592
vt -1.603270 2.606592
vt -1.603269 -1.594593
vt 2.597917 1.249120
vt -1.603269 -1.753128
vt 2.597917 -1.753128
vt -1.603270 -1.753128
vt -1.761805 -0.177698
vt -1.761805 -0.019163
vt -1.761805 1.090584
vt -1.761805 1.249119
vt 2.588535 -0.177698
vt 2.588535 -0.019163
vt 2.747070 -0.019163
vt 2.747070 -0.177698
vt -1.761805 -1.594593
vt -1.761805 -1.753128
vt 2.588535 1.090584
vt 2.747070 1.090584
vt 2.588535 1.249120
vt 2.747070 1.249120
vt -1.336451 1.012126
vt -1.336451 0.047128
vt 2.316754 0.047128
vt 2.316754 1.012126
vt -1.612650 1.090584
vt -1.612650 1.249120
vt -1.761805 2.606592
vt -1.612650 -0.019163
vt -1.612650 -0.177698
vt 2.756451 -0.177698
vt 2.756452 -0.019163
vt 2.756452 1.090584
vt 2.756452 1.249120
vt 2.756451 -1.594593
vt 2.756451 -1.753128
vt 2.756452 -1.594593
vt 2.756452 -1.753128
vt 2.756452 2.606592
vt 2.756451 2.606592
vt -1.771186 -0.177698
vt -1.771186 -0.019163
vt -1.771186 1.090584
vt -1.771186 1.249120
vt 2.597916 2.765128
vt 2.756451 2.765128
vt 2.597914 -0.019163
vt 2.597916 -0.177698
vt 2.756449 -0.019163
vt 2.597914 1.090584
vt 2.756449 1.090584
vt 2.597914 2.765128
vt 2.756449 2.765128
vt 2.597914 1.249119
vt 2.756449 1.249119
vt -1.603270 2.765128
vt -1.761806 2.765128
vt -1.603271 -0.019163
vt -1.761806 -0.019163
vt -1.761806 -0.177698
vt -1.603271 1.090584
vt -1.761806 1.090584
vt -1.603271 1.249119
vt -1.761806 1.249119
vt -1.603271 2.765128
vt 2.597917 -0.019163
vt -3.500000 0.000000
vt -2.166667 0.000001
vt -2.166666 1.000000
vt -3.500000 1.000000
vt 3.166667 1.000000
vt 3.166666 0.000000
vt 4.500000 -0.000000
vt 4.500000 1.000000
vt 3.166667 0.999999
vt -2.166667 1.000000
vt -3.500000 0.000001
vt 4.500000 0.000001
vt -3.500000 0.000002
vt 3.166666 1.000000
vt -2.166666 0.000000
vt 3.166667 0.000000
vt -2.166667 0.999999
vt -3.499999 0.000000
vn 0.000000 0.000000 1.000000
vn 0.000000 0.000000 -1.000000
vn 0.000000 -1.000000 0.000000
vn 0.000000 1.000000 -0.000000
vn -1.000000 0.000007 0.000000
vn -1.000000 -0.000004 -0.000000
vn 1.000000 0.000005 0.000000
vn 1.000000 0.000000 0.000000
vn 1.000000 -0.000001 0.000006
vn 1.000000 0.000000 0.000006
vn -0.000000 1.000000 0.000002
vn -1.000000 -0.000006 0.000000
vn -1.000000 0.000000 0.000000
vn 1.000000 0.000001 -0.000000
vn 1.000000 -0.000005 0.000000
vn 0.000002 -1.000000 0.000000
vn 1.000000 -0.000007 0.000000
vn -0.000002 1.000000 0.000000
vn 1.000000 0.000010 0.000016
vn 1.000000 0.000000 0.000016
vn -1.000000 -0.000003 -0.000005
vn -1.000000 -0.000006 -0.000008
vn -1.000000 -0.000000 -0.000005
vn 0.000000 0.913812 -0.406139
vn 0.000000 0.913812 0.406138
vn 0.000000 0.913812 0.406139
g Cube_Cube.001_Material_tron.jpg
usemtl Material_tron.jpg
s off
f 7/1/1 11/2/1 63/3/1
f 7/1/1 63/3/1 8/4/1
f 54/5/2 59/6/2 64/4/2
f 54/5/2 64/4/2 43/7/2
f 59/8/3 7/9/3 8/10/3
f 59/8/3 8/10/3 64/11/3
f 11/12/4 54/13/4 43/14/4
f 11/12/4 43/14/4 63/15/4
f 60/16/5 62/17/5 45/18/5
f 60/16/6 45/18/6 61/19/6
f 58/20/2 57/21/2 61/19/2
f 58/20/2 61/19/2 45/18/2
f 4/22/4 58/23/4 45/24/4
f 4/22/4 45/24/4 62/25/4
f 57/26/3 1/27/3 60/28/3
f 57/26/3 60/28/3 61/29/3
f 58/20/7 57/21/7 56/21/7
f 58/20/7 56/21/7 55/20/7
f 59/6/8 58/20/8 55/20/8
f 59/6/9 55/20/9 34/1/9
f 54/5/10 59/6/10 34/1/10
f 54/5/10 34/1/10 35/30/10
f 64/4/1 45/18/1 58/20/1
f 64/4/1 58/20/1 59/6/1
f 61/29/3 47/31/3 56/32/3
f 61/29/3 56/32/3 57/26/3
f 47/19/2 46/18/2 55/20/2
f 47/19/2 55/20/2 56/21/2
f 46/18/2 48/4/2 55/20/2
f 48/4/2 34/1/2 55/20/2
f 48/4/2 49/7/2 34/1/2
f 49/7/2 35/30/2 34/1/2
f 49/33/4 43/14/4 54/13/4
f 49/33/11 54/13/11 35/32/11
f 46/18/2 47/19/2 53/34/2
f 46/18/2 53/34/2 52/35/2
f 48/4/2 46/18/2 52/35/2
f 48/4/2 52/35/2 51/36/2
f 49/7/2 48/4/2 51/36/2
f 49/7/2 51/36/2 50/37/2
f 41/38/12 40/39/12 52/40/12
f 41/38/12 52/40/12 53/41/12
f 61/29/3 41/42/3 53/43/3
f 61/29/3 53/43/3 47/31/3
f 40/39/13 42/44/13 51/45/13
f 40/39/13 51/45/13 52/40/13
f 44/42/4 43/14/4 49/33/4
f 44/42/4 49/33/4 50/43/4
f 42/44/13 44/46/13 50/47/13
f 42/44/13 50/47/13 51/45/13
f 8/48/14 62/49/14 45/50/14
f 8/48/8 45/50/8 64/51/8
f 63/3/15 8/4/15 64/4/15
f 63/3/8 64/4/8 43/7/8
f 14/52/13 15/53/13 44/46/13
f 14/52/13 44/46/13 42/44/13
f 15/54/4 63/15/4 43/14/4
f 15/54/4 43/14/4 44/42/4
f 19/55/13 14/52/13 42/44/13
f 19/55/13 42/44/13 40/39/13
f 60/28/3 20/54/3 41/42/3
f 60/28/3 41/42/3 61/29/3
f 20/56/12 19/55/12 40/39/12
f 20/56/12 40/39/12 41/38/12
f 56/21/2 55/20/2 39/57/2
f 55/20/2 38/58/2 39/57/2
f 55/20/2 34/1/2 38/58/2
f 34/1/2 37/59/2 38/58/2
f 34/1/2 35/30/2 36/60/2
f 34/1/2 36/60/2 37/59/2
f 30/61/16 57/26/16 56/32/16
f 30/61/16 56/32/16 39/62/16
f 31/39/17 30/38/17 39/41/17
f 31/39/17 39/41/17 38/40/17
f 32/44/8 31/39/8 38/40/8
f 32/44/8 38/40/8 37/45/8
f 33/46/8 32/44/8 37/45/8
f 33/46/8 37/45/8 36/47/8
f 54/13/18 33/63/18 36/64/18
f 54/13/11 36/64/11 35/32/11
f 4/49/13 7/48/13 59/51/13
f 4/49/13 59/51/13 58/50/13
f 11/12/4 24/65/4 33/63/4
f 11/12/18 33/63/18 54/13/18
f 24/53/8 25/52/8 32/44/8
f 24/53/8 32/44/8 33/46/8
f 25/52/8 27/55/8 31/39/8
f 25/52/8 31/39/8 32/44/8
f 27/55/17 28/56/17 30/38/17
f 27/55/17 30/38/17 31/39/17
f 28/66/3 1/27/3 57/26/3
f 28/66/16 57/26/16 30/61/16
f 28/56/17 27/55/17 29/67/17
f 27/55/19 26/68/19 29/67/19
f 26/68/20 27/55/20 25/52/20
f 26/68/20 25/52/20 22/69/20
f 22/69/20 25/52/20 24/53/20
f 22/69/20 24/53/20 23/70/20
f 2/71/3 1/27/3 28/66/3
f 2/71/3 28/66/3 29/72/3
f 5/73/1 2/74/1 29/57/1
f 5/73/1 29/57/1 26/75/1
f 10/76/1 5/73/1 26/75/1
f 10/76/1 26/75/1 22/77/1
f 11/12/4 12/78/4 23/79/4
f 11/12/4 23/79/4 24/65/4
f 12/80/1 10/76/1 22/77/1
f 12/80/1 22/77/1 23/81/1
f 21/67/21 18/68/21 19/55/21
f 21/67/22 19/55/22 20/56/22
f 19/55/23 18/68/23 17/69/23
f 19/55/23 17/69/23 14/52/23
f 14/52/23 17/69/23 16/70/23
f 14/52/23 16/70/23 15/53/23
f 60/28/3 3/82/3 21/83/3
f 60/28/3 21/83/3 20/54/3
f 3/16/1 6/84/1 18/85/1
f 3/16/1 18/85/1 21/86/1
f 6/84/1 9/87/1 17/88/1
f 6/84/1 17/88/1 18/85/1
f 9/87/1 13/89/1 16/90/1
f 9/87/1 16/90/1 17/88/1
f 13/91/4 63/15/4 16/83/4
f 63/15/4 15/54/4 16/83/4
f 11/12/4 63/15/4 12/78/4
f 63/15/4 13/91/4 12/78/4
f 9/87/1 10/76/1 12/80/1
f 9/87/1 12/80/1 13/89/1
f 6/84/1 5/73/1 10/76/1
f 6/84/1 10/76/1 9/87/1
f 4/92/2 62/17/2 8/4/2
f 4/92/2 8/4/2 7/1/2
f 4/92/2 1/74/2 62/17/2
f 1/74/2 60/16/2 62/17/2
f 2/74/1 5/73/1 3/16/1
f 5/73/1 6/84/1 3/16/1
f 1/27/3 2/71/3 3/82/3
f 1/27/3 3/82/3 60/28/3
g Cube_Cube.001_Material_tron-line.jpg
usemtl Material_tron-line.jpg
f 78/93/24 77/94/24 80/95/24
f 78/93/24 80/95/24 79/96/24
f 76/97/25 73/98/25 74/99/25
f 76/97/26 74/99/26 75/100/26
f 80/101/8 76/102/8 75/103/8
f 80/101/8 75/103/8 79/99/8
f 79/96/3 75/100/3 74/99/3
f 79/96/3 74/99/3 78/93/3
f 78/104/13 74/105/13 77/101/13
f 74/105/13 73/102/13 77/101/13
f 77/94/4 73/98/4 76/97/4
f 77/94/4 76/97/4 80/95/4
f 68/106/4 72/102/4 69/107/4
f 68/106/4 69/107/4 65/108/4
f 67/99/13 71/103/13 68/101/13
f 71/103/13 72/109/13 68/101/13
f 66/99/3 70/110/3 71/96/3
f 66/99/3 71/96/3 67/100/3
f 65/101/8 69/109/8 70/103/8
f 65/101/8 70/103/8 66/99/8
f 69/107/25 72/102/25 71/96/25
f 69/107/26 71/96/26 70/110/26
f 67/100/24 68/106/24 65/108/24
f 67/100/24 65/108/24 66/99/24
