# Blender3D v249 OBJ File: filluminati.blend
# www.blender3d.org
mtllib filluminati.mtl
v 18.101934 22.000000 -18.101934
v 18.101934 22.000000 18.101934
v -18.101934 22.000000 18.101931
v -18.101927 22.000000 -18.101938
v 0.000002 -8.000000 0.000004
v 0.000002 24.000000 0.000003
vt 0.516954 1.031582
vt 1.006006 0.055882
vt 0.000448 0.045583
vt 0.508369 1.052577
vt 0.984087 0.039182
vt 0.013256 0.034295
vt 0.491379 0.041309
vt 0.005964 0.038865
vt 0.253520 0.548006
vt 0.256292 0.542683
vt 0.500819 0.054834
vt -0.001960 0.049684
vn 0.856207 -0.516633 0.000000
vn -0.000000 -0.516633 0.856207
vn -0.856207 -0.516633 -0.000000
vn 0.000000 -0.516633 -0.856207
vn 0.109817 0.993952 0.000000
vn -0.000000 0.993952 0.109817
vn -0.109817 0.993952 -0.000000
vn 0.000000 0.993952 -0.109817
g Cone_Cone.001_Material_eye.JPG
usemtl Material_eye.JPG
s off
f 5/1/1 1/2/1 2/3/1
f 5/4/2 2/5/2 3/6/2
f 5/4/3 3/5/3 4/6/3
f 4/5/4 1/6/4 5/4/4
f 2/7/5 1/8/5 6/9/5
f 6/9/6 3/7/6 2/8/6
f 6/9/7 4/7/7 3/8/7
f 6/10/8 1/11/8 4/12/8
v 24.000000 -2.400001 -23.999998
v 24.000000 -2.399999 24.000000
v -24.000004 -2.399999 23.999996
v -23.999992 -2.400001 -24.000008
v 24.000011 2.399999 -23.999987
v 23.999985 2.400001 24.000013
v -24.000008 2.400001 23.999990
v -23.999998 2.399999 -24.000000
vt 0.500000 -1.500000
vt 1.000000 -1.500000
vt 1.000000 2.500000
vt 0.500000 2.500000
vt -3.500000 -3.500000
vt 4.500000 -3.500000
vt -3.500000 4.500000
vt 4.500000 4.500000
vt -1.500000 -1.500000
vt 2.500000 -1.500000
vt 2.500000 2.500000
vt -1.500000 2.500000
vn 0.000000 0.000002 -1.000000
vn -1.000000 -0.000001 -0.000000
vn -0.000000 -0.000003 1.000000
vn -0.000000 0.000001 1.000000
vn 1.000000 -0.000002 0.000000
vn 1.000000 0.000003 0.000001
vn 0.000000 1.000000 -0.000000
vn -0.000000 -1.000000 0.000000
g Cube_Cube.002_None_brick029.jpg
usemtl None_brick029.jpg
s off
f 11/13/9 7/14/9 10/15/9
f 11/13/9 10/15/9 14/16/9
f 9/13/10 13/14/10 14/15/10
f 9/13/10 14/15/10 10/16/10
f 8/13/11 12/14/11 9/16/11
f 12/14/12 13/15/12 9/16/12
f 7/13/13 11/14/13 8/16/13
f 11/14/14 12/15/14 8/16/14
f 11/17/15 14/18/15 12/19/15
f 14/18/15 13/20/15 12/19/15
f 7/21/16 8/22/16 9/23/16
f 7/21/16 9/23/16 10/24/16
