# Blender3D v249 OBJ File: greek.blend
# www.blender3d.org
mtllib greek.mtl
v 11.000000 0.000000 9.000000
v 11.000000 0.000001 11.000000
v 9.000000 0.000001 11.000000
v 9.000000 0.000000 9.000000
v 11.000000 4.000000 9.000000
v 10.999999 4.000000 11.000000
v 9.000000 4.000000 10.999999
v 9.000000 4.000000 9.000000
v 10.600000 0.600000 10.600000
v 10.599999 3.400002 10.600000
v 10.600000 0.600000 9.400001
v 10.600000 3.400002 9.400001
v 9.400000 0.600000 10.600000
v 9.400000 3.400002 10.599999
v 9.400000 0.600000 9.400000
v 9.400000 3.400002 9.400000
vt 0.800000 0.085714
vt 1.000000 0.000000
vt 0.000000 0.000000
vt 0.200000 0.085714
vt 0.800000 0.914286
vt 0.200000 0.914286
vt 1.000000 1.000000
vt 0.000000 1.000000
vt 0.000001 1.000000
vt 0.999999 0.000000
vt 0.000000 0.000001
vn 0.000000 0.554701 -0.832050
vn 0.000001 0.554700 -0.832051
vn 0.000001 0.000000 -1.000000
vn 0.000000 -0.554702 -0.832049
vn 0.000001 -0.554700 -0.832050
vn -0.832050 -0.554701 0.000000
vn -1.000000 0.000000 0.000000
vn -0.832051 0.554700 0.000000
vn -0.000001 -0.554700 0.832050
vn -0.000000 -0.554701 0.832050
vn -0.000001 -0.000000 1.000000
vn 0.000000 0.000000 1.000000
vn 0.000000 0.554700 0.832050
vn 0.000000 0.554700 0.832051
vn 0.832050 -0.554700 0.000001
vn 0.832050 -0.554701 0.000000
vn 1.000000 0.000000 0.000000
vn 1.000000 0.000000 0.000001
vn 0.832051 0.554700 -0.000000
vn 0.832050 0.554700 0.000000
vn 0.000000 1.000000 0.000000
vn 0.000000 -1.000000 0.000000
g Cube.009_Cube.001_Material_marble29.tga
usemtl Material_marble29.tga
s off
f 11/1/1 1/2/1 4/3/1
f 11/1/2 4/3/2 15/4/2
f 12/5/3 11/1/3 16/6/3
f 11/1/3 15/4/3 16/6/3
f 5/7/4 12/5/4 8/8/4
f 12/5/5 16/6/5 8/8/5
f 14/5/6 7/7/6 16/6/6
f 7/7/6 8/9/6 16/6/6
f 13/1/7 14/5/7 16/6/7
f 13/1/7 16/6/7 15/4/7
f 3/2/8 13/1/8 15/4/8
f 3/2/8 15/4/8 4/3/8
f 10/5/9 6/7/9 14/6/9
f 6/7/10 7/8/10 14/6/10
f 9/1/11 10/5/11 14/6/11
f 9/1/12 14/6/12 13/4/12
f 2/2/13 9/1/13 3/3/13
f 9/1/14 13/4/14 3/3/14
f 12/5/15 5/7/15 10/6/15
f 5/7/16 6/8/16 10/6/16
f 11/1/17 12/5/17 9/4/17
f 12/5/18 10/6/18 9/4/18
f 1/2/19 11/1/19 2/3/19
f 11/1/20 9/4/20 2/3/20
f 5/7/21 8/8/21 6/10/21
f 8/8/21 7/11/21 6/10/21
f 1/2/22 2/7/22 3/8/22
f 1/2/22 3/8/22 4/3/22
v 1.000000 0.000000 9.000000
v 1.000000 0.000001 11.000000
v -1.000000 0.000001 11.000000
v -1.000000 0.000000 9.000000
v 1.000000 4.000000 9.000000
v 0.999999 4.000000 11.000000
v -1.000000 4.000000 10.999999
v -1.000000 4.000000 9.000000
v 0.600000 0.600000 10.600000
v 0.600000 3.400002 10.600000
v 0.600000 0.600000 9.400001
v 0.600000 3.400002 9.400001
v -0.600000 0.600000 10.600000
v -0.600000 3.400002 10.599999
v -0.600000 0.600000 9.400000
v -0.600000 3.400002 9.400000
vt 0.800000 0.085714
vt 1.000000 0.000000
vt 0.000000 0.000000
vt 0.200000 0.085714
vt 0.800000 0.914286
vt 0.200000 0.914286
vt 1.000000 1.000000
vt 0.000000 1.000000
vt 0.000001 1.000000
vt 0.999999 0.000000
vt 0.000000 0.000001
vn -0.832050 0.554700 -0.000000
g Cube.008_Cube.001_Material_marble29.tga
usemtl Material_marble29.tga
s off
f 27/12/1 17/13/1 20/14/1
f 27/12/2 20/14/2 31/15/2
f 28/16/3 27/12/3 32/17/3
f 27/12/3 31/15/3 32/17/3
f 21/18/4 28/16/4 24/19/4
f 28/16/5 32/17/5 24/19/5
f 30/16/6 23/18/6 32/17/6
f 23/18/6 24/20/6 32/17/6
f 29/12/7 30/16/7 32/17/7
f 29/12/7 32/17/7 31/15/7
f 19/13/23 29/12/23 31/15/23
f 19/13/23 31/15/23 20/14/23
f 26/16/9 22/18/9 30/17/9
f 22/18/10 23/19/10 30/17/10
f 25/12/11 26/16/11 30/17/11
f 25/12/12 30/17/12 29/15/12
f 18/13/13 25/12/13 19/14/13
f 25/12/13 29/15/13 19/14/13
f 28/16/16 21/18/16 26/17/16
f 21/18/16 22/19/16 26/17/16
f 27/12/17 28/16/17 25/15/17
f 28/16/17 26/17/17 25/15/17
f 17/13/20 27/12/20 18/14/20
f 27/12/20 25/15/20 18/14/20
f 21/18/21 24/19/21 22/21/21
f 24/19/21 23/22/21 22/21/21
f 17/13/22 18/18/22 19/19/22
f 17/13/22 19/19/22 20/14/22
v -9.000000 0.000000 9.000000
v -9.000000 0.000001 11.000000
v -11.000000 0.000001 11.000000
v -11.000000 0.000000 9.000000
v -9.000000 4.000000 9.000000
v -9.000001 4.000000 11.000000
v -11.000000 4.000000 10.999999
v -11.000000 4.000000 9.000000
v -9.400000 0.600000 10.600000
v -9.400001 3.400002 10.600000
v -9.400000 0.600000 9.400001
v -9.400000 3.400002 9.400001
v -10.600000 0.600000 10.600000
v -10.600000 3.400002 10.599999
v -10.600000 0.600000 9.400000
v -10.600000 3.400002 9.400000
vt 0.800000 0.085714
vt 1.000000 0.000000
vt 0.000000 0.000000
vt 0.200000 0.085714
vt 0.800000 0.914286
vt 0.200000 0.914286
vt 1.000000 1.000000
vt 0.000000 1.000000
vt 0.000001 1.000000
vt 0.999999 0.000000
vt 0.000000 0.000001
g Cube.007_Cube.001_Material_marble29.tga
usemtl Material_marble29.tga
s off
f 43/23/1 33/24/1 36/25/1
f 43/23/2 36/25/2 47/26/2
f 44/27/3 43/23/3 48/28/3
f 43/23/3 47/26/3 48/28/3
f 37/29/4 44/27/4 40/30/4
f 44/27/5 48/28/5 40/30/5
f 46/27/6 39/29/6 48/28/6
f 39/29/6 40/31/6 48/28/6
f 45/23/7 46/27/7 48/28/7
f 45/23/7 48/28/7 47/26/7
f 35/24/8 45/23/8 47/26/8
f 35/24/8 47/26/8 36/25/8
f 42/27/9 38/29/9 46/28/9
f 38/29/10 39/30/10 46/28/10
f 41/23/11 42/27/11 46/28/11
f 41/23/12 46/28/12 45/26/12
f 34/24/13 41/23/13 35/25/13
f 41/23/14 45/26/14 35/25/14
f 44/27/15 37/29/15 42/28/15
f 37/29/16 38/30/16 42/28/16
f 43/23/17 44/27/17 41/26/17
f 44/27/18 42/28/18 41/26/18
f 33/24/19 43/23/19 34/25/19
f 43/23/20 41/26/20 34/25/20
f 37/29/21 40/30/21 38/32/21
f 40/30/21 39/33/21 38/32/21
f 33/24/22 34/29/22 35/30/22
f 33/24/22 35/30/22 36/25/22
v -9.000000 -0.000000 -1.000000
v -9.000000 0.000000 1.000000
v -11.000000 0.000000 1.000000
v -11.000000 -0.000000 -1.000000
v -9.000000 4.000000 -1.000000
v -9.000001 4.000000 1.000000
v -11.000000 4.000000 0.999999
v -11.000000 4.000000 -1.000000
v -9.400000 0.600000 0.600000
v -9.400001 3.400002 0.600000
v -9.400000 0.600000 -0.600000
v -9.400000 3.400002 -0.600000
v -10.600000 0.600000 0.600000
v -10.600000 3.400002 0.600000
v -10.600000 0.600000 -0.600000
v -10.600000 3.400002 -0.600000
vt 0.800000 0.085714
vt 1.000000 0.000000
vt 0.000000 0.000000
vt 0.200000 0.085714
vt 0.800000 0.914286
vt 0.200000 0.914286
vt 1.000000 1.000000
vt 0.000000 1.000000
vt 0.000001 1.000000
vt 0.999999 0.000000
vt 0.000000 0.000001
vn 0.000000 0.554700 -0.832050
vn 0.000000 0.000000 -1.000000
vn 0.000000 -0.554701 -0.832050
g Cube.006_Cube.001_Material_marble29.tga
usemtl Material_marble29.tga
s off
f 59/34/24 49/35/24 52/36/24
f 59/34/24 52/36/24 63/37/24
f 60/38/25 59/34/25 64/39/25
f 59/34/25 63/37/25 64/39/25
f 53/40/26 60/38/26 56/41/26
f 60/38/26 64/39/26 56/41/26
f 62/38/6 55/40/6 64/39/6
f 55/40/6 56/42/6 64/39/6
f 61/34/7 62/38/7 64/39/7
f 61/34/7 64/39/7 63/37/7
f 51/35/23 61/34/23 63/37/23
f 51/35/8 63/37/8 52/36/8
f 58/38/10 54/40/10 62/39/10
f 54/40/10 55/41/10 62/39/10
f 57/34/12 58/38/12 62/39/12
f 57/34/12 62/39/12 61/37/12
f 50/35/13 57/34/13 51/36/13
f 57/34/13 61/37/13 51/36/13
f 60/38/15 53/40/15 58/39/15
f 53/40/16 54/41/16 58/39/16
f 59/34/17 60/38/17 57/37/17
f 60/38/18 58/39/18 57/37/18
f 49/35/19 59/34/19 50/36/19
f 59/34/20 57/37/20 50/36/20
f 53/40/21 56/41/21 54/43/21
f 56/41/21 55/44/21 54/43/21
f 49/35/22 50/40/22 51/41/22
f 49/35/22 51/41/22 52/36/22
v 1.000000 -0.000000 -1.000000
v 1.000000 0.000000 1.000000
v -1.000000 0.000000 1.000000
v -1.000000 -0.000000 -1.000000
v 1.000000 4.000000 -1.000000
v 0.999999 4.000000 1.000000
v -1.000000 4.000000 0.999999
v -1.000000 4.000000 -1.000000
v 0.600000 0.600000 0.600000
v 0.600000 3.400002 0.600000
v 0.600000 0.600000 -0.600000
v 0.600000 3.400002 -0.600000
v -0.600000 0.600000 0.600000
v -0.600000 3.400002 0.600000
v -0.600000 0.600000 -0.600000
v -0.600000 3.400002 -0.600000
vt 0.800000 0.085714
vt 1.000000 0.000000
vt 0.000000 0.000000
vt 0.200000 0.085714
vt 0.800000 0.914286
vt 0.200000 0.914286
vt 1.000000 1.000000
vt 0.000000 1.000000
vt 0.000001 1.000000
vt 0.999999 0.000000
vt 0.000000 0.000001
vn -0.000000 -0.554701 0.832049
g Cube.005_Cube.001_Material_marble29.tga
usemtl Material_marble29.tga
s off
f 75/45/24 65/46/24 68/47/24
f 75/45/24 68/47/24 79/48/24
f 76/49/25 75/45/25 80/50/25
f 75/45/25 79/48/25 80/50/25
f 69/51/26 76/49/26 72/52/26
f 76/49/26 80/50/26 72/52/26
f 78/49/6 71/51/6 80/50/6
f 71/51/6 72/53/6 80/50/6
f 77/45/7 78/49/7 80/50/7
f 77/45/7 80/50/7 79/48/7
f 67/46/23 77/45/23 79/48/23
f 67/46/23 79/48/23 68/47/23
f 74/49/27 70/51/27 78/50/27
f 70/51/10 71/52/10 78/50/10
f 73/45/12 74/49/12 78/50/12
f 73/45/12 78/50/12 77/48/12
f 66/46/13 73/45/13 67/47/13
f 73/45/13 77/48/13 67/47/13
f 76/49/16 69/51/16 74/50/16
f 69/51/16 70/52/16 74/50/16
f 75/45/17 76/49/17 73/48/17
f 76/49/17 74/50/17 73/48/17
f 65/46/20 75/45/20 66/47/20
f 75/45/20 73/48/20 66/47/20
f 69/51/21 72/52/21 70/54/21
f 72/52/21 71/55/21 70/54/21
f 65/46/22 66/51/22 67/52/22
f 65/46/22 67/52/22 68/47/22
v 11.000000 -0.000000 -1.000000
v 11.000000 0.000000 1.000000
v 9.000000 0.000000 1.000000
v 9.000000 -0.000000 -1.000000
v 11.000000 4.000000 -1.000000
v 10.999999 4.000000 1.000000
v 9.000000 4.000000 0.999999
v 9.000000 4.000000 -1.000000
v 10.600000 0.600000 0.600000
v 10.599999 3.400002 0.600000
v 10.600000 0.600000 -0.600000
v 10.600000 3.400002 -0.600000
v 9.400000 0.600000 0.600000
v 9.400000 3.400002 0.600000
v 9.400000 0.600000 -0.600000
v 9.400000 3.400002 -0.600000
vt 0.800000 0.085714
vt 1.000000 0.000000
vt 0.000000 0.000000
vt 0.200000 0.085714
vt 0.800000 0.914286
vt 0.200000 0.914286
vt 1.000000 1.000000
vt 0.000000 1.000000
vt 0.000001 1.000000
vt 0.999999 0.000000
vt 0.000000 0.000001
g Cube.004_Cube.001_Material_marble29.tga
usemtl Material_marble29.tga
s off
f 91/56/24 81/57/24 84/58/24
f 91/56/24 84/58/24 95/59/24
f 92/60/25 91/56/25 96/61/25
f 91/56/25 95/59/25 96/61/25
f 85/62/26 92/60/26 88/63/26
f 92/60/26 96/61/26 88/63/26
f 94/60/6 87/62/6 96/61/6
f 87/62/6 88/64/6 96/61/6
f 93/56/7 94/60/7 96/61/7
f 93/56/7 96/61/7 95/59/7
f 83/57/23 93/56/23 95/59/23
f 83/57/8 95/59/8 84/58/8
f 90/60/10 86/62/10 94/61/10
f 86/62/10 87/63/10 94/61/10
f 89/56/12 90/60/12 94/61/12
f 89/56/12 94/61/12 93/59/12
f 82/57/13 89/56/13 83/58/13
f 89/56/13 93/59/13 83/58/13
f 92/60/15 85/62/15 90/61/15
f 85/62/16 86/63/16 90/61/16
f 91/56/17 92/60/17 89/59/17
f 92/60/18 90/61/18 89/59/18
f 81/57/19 91/56/19 82/58/19
f 91/56/20 89/59/20 82/58/20
f 85/62/21 88/63/21 86/65/21
f 88/63/21 87/66/21 86/65/21
f 81/57/22 82/62/22 83/63/22
f 81/57/22 83/63/22 84/58/22
v 11.000000 -0.000000 -11.000000
v 11.000000 -0.000000 -9.000000
v 9.000000 -0.000000 -9.000000
v 9.000000 -0.000000 -11.000000
v 11.000000 4.000000 -11.000000
v 10.999999 4.000000 -9.000000
v 9.000000 4.000000 -9.000001
v 9.000000 4.000000 -11.000000
v 10.600000 0.599999 -9.400000
v 10.599999 3.400001 -9.400000
v 10.600000 0.599999 -10.599999
v 10.600000 3.400001 -10.599999
v 9.400000 0.599999 -9.400000
v 9.400000 3.400001 -9.400001
v 9.400000 0.599999 -10.600000
v 9.400000 3.400001 -10.600000
vt 0.800000 0.085714
vt 1.000000 0.000000
vt 0.000000 0.000000
vt 0.200000 0.085714
vt 0.800000 0.914286
vt 0.200000 0.914286
vt 1.000000 1.000000
vt 0.000000 1.000000
vt 0.000001 1.000000
vt 0.999999 0.000000
vt 0.000000 0.000001
g Cube.003_Cube.001_Material_marble29.tga
usemtl Material_marble29.tga
s off
f 107/67/1 97/68/1 100/69/1
f 107/67/2 100/69/2 111/70/2
f 108/71/3 107/67/3 112/72/3
f 107/67/3 111/70/3 112/72/3
f 101/73/4 108/71/4 104/74/4
f 108/71/5 112/72/5 104/74/5
f 110/71/6 103/73/6 112/72/6
f 103/73/6 104/75/6 112/72/6
f 109/67/7 110/71/7 112/72/7
f 109/67/7 112/72/7 111/70/7
f 99/68/8 109/67/8 111/70/8
f 99/68/8 111/70/8 100/69/8
f 106/71/9 102/73/9 110/72/9
f 102/73/10 103/74/10 110/72/10
f 105/67/11 106/71/11 110/72/11
f 105/67/12 110/72/12 109/70/12
f 98/68/13 105/67/13 99/69/13
f 105/67/14 109/70/14 99/69/14
f 108/71/15 101/73/15 106/72/15
f 101/73/16 102/74/16 106/72/16
f 107/67/17 108/71/17 105/70/17
f 108/71/18 106/72/18 105/70/18
f 97/68/19 107/67/19 98/69/19
f 107/67/20 105/70/20 98/69/20
f 101/73/21 104/74/21 102/76/21
f 104/74/21 103/77/21 102/76/21
f 97/68/22 98/73/22 99/74/22
f 97/68/22 99/74/22 100/69/22
v 1.000000 -0.000000 -11.000000
v 1.000000 -0.000000 -9.000000
v -1.000000 -0.000000 -9.000000
v -1.000000 -0.000000 -11.000000
v 1.000000 4.000000 -11.000000
v 0.999999 4.000000 -9.000000
v -1.000000 4.000000 -9.000001
v -1.000000 4.000000 -11.000000
v 0.600000 0.599999 -9.400000
v 0.600000 3.400001 -9.400000
v 0.600000 0.599999 -10.599999
v 0.600000 3.400001 -10.599999
v -0.600000 0.599999 -9.400000
v -0.600000 3.400001 -9.400001
v -0.600000 0.599999 -10.600000
v -0.600000 3.400001 -10.600000
vt 0.800000 0.085714
vt 1.000000 0.000000
vt 0.000000 0.000000
vt 0.200000 0.085714
vt 0.800000 0.914286
vt 0.200000 0.914286
vt 1.000000 1.000000
vt 0.000000 1.000000
vt 0.000001 1.000000
vt 0.999999 0.000000
vt 0.000000 0.000001
g Cube.002_Cube.001_Material_marble29.tga
usemtl Material_marble29.tga
s off
f 123/78/1 113/79/1 116/80/1
f 123/78/2 116/80/2 127/81/2
f 124/82/3 123/78/3 128/83/3
f 123/78/3 127/81/3 128/83/3
f 117/84/4 124/82/4 120/85/4
f 124/82/5 128/83/5 120/85/5
f 126/82/6 119/84/6 128/83/6
f 119/84/6 120/86/6 128/83/6
f 125/78/7 126/82/7 128/83/7
f 125/78/7 128/83/7 127/81/7
f 115/79/23 125/78/23 127/81/23
f 115/79/23 127/81/23 116/80/23
f 122/82/9 118/84/9 126/83/9
f 118/84/10 119/85/10 126/83/10
f 121/78/11 122/82/11 126/83/11
f 121/78/12 126/83/12 125/81/12
f 114/79/13 121/78/13 115/80/13
f 121/78/13 125/81/13 115/80/13
f 124/82/16 117/84/16 122/83/16
f 117/84/16 118/85/16 122/83/16
f 123/78/17 124/82/17 121/81/17
f 124/82/17 122/83/17 121/81/17
f 113/79/20 123/78/20 114/80/20
f 123/78/20 121/81/20 114/80/20
f 117/84/21 120/85/21 118/87/21
f 120/85/21 119/88/21 118/87/21
f 113/79/22 114/84/22 115/85/22
f 113/79/22 115/85/22 116/80/22
v -9.000000 -0.000000 -11.000000
v -9.000000 -0.000000 -9.000000
v -11.000000 -0.000000 -9.000000
v -11.000000 -0.000000 -11.000000
v -9.000000 4.000000 -11.000000
v -9.000001 4.000000 -9.000000
v -11.000000 4.000000 -9.000001
v -11.000000 4.000000 -11.000000
v -9.400000 0.599999 -9.400000
v -9.400001 3.400001 -9.400000
v -9.400000 0.599999 -10.599999
v -9.400000 3.400001 -10.599999
v -10.600000 0.599999 -9.400000
v -10.600000 3.400001 -9.400001
v -10.600000 0.599999 -10.600000
v -10.600000 3.400001 -10.600000
vt 0.800000 0.085714
vt 1.000000 0.000000
vt 0.000000 0.000000
vt 0.200000 0.085714
vt 0.800000 0.914286
vt 0.200000 0.914286
vt 1.000000 1.000000
vt 0.000000 1.000000
vt 0.000001 1.000000
vt 0.999999 0.000000
vt 0.000000 0.000001
g Cube.001_Cube.001_Material_marble29.tga
usemtl Material_marble29.tga
s off
f 139/89/1 129/90/1 132/91/1
f 139/89/2 132/91/2 143/92/2
f 140/93/3 139/89/3 144/94/3
f 139/89/3 143/92/3 144/94/3
f 133/95/4 140/93/4 136/96/4
f 140/93/5 144/94/5 136/96/5
f 142/93/6 135/95/6 144/94/6
f 135/95/6 136/97/6 144/94/6
f 141/89/7 142/93/7 144/94/7
f 141/89/7 144/94/7 143/92/7
f 131/90/8 141/89/8 143/92/8
f 131/90/8 143/92/8 132/91/8
f 138/93/9 134/95/9 142/94/9
f 134/95/10 135/96/10 142/94/10
f 137/89/11 138/93/11 142/94/11
f 137/89/12 142/94/12 141/92/12
f 130/90/13 137/89/13 131/91/13
f 137/89/14 141/92/14 131/91/14
f 140/93/15 133/95/15 138/94/15
f 133/95/16 134/96/16 138/94/16
f 139/89/17 140/93/17 137/92/17
f 140/93/18 138/94/18 137/92/18
f 129/90/19 139/89/19 130/91/19
f 139/89/20 137/92/20 130/91/20
f 133/95/21 136/96/21 134/98/21
f 136/96/21 135/99/21 134/98/21
f 129/90/22 130/95/22 131/96/22
f 129/90/22 131/96/22 132/91/22
v 15.999999 0.039999 -15.999999
v 15.999999 0.040001 16.000000
v -16.000004 0.040001 15.999998
v -15.999994 0.039999 -16.000006
v 16.000006 1.959999 -15.999992
v 15.999990 1.960001 16.000011
v -16.000008 1.960001 15.999994
v -15.999999 1.959999 -15.999999
v 15.999999 0.039999 -10.666665
v 15.999999 0.040000 10.666670
v -15.999999 0.040000 10.666658
v -15.999998 0.039999 -10.666678
v 16.000002 1.960000 -10.666648
v 15.999995 1.960001 10.666686
v -16.000006 1.960001 10.666658
v -16.000004 1.960000 -10.666672
v 10.666671 0.039999 -16.000002
v -10.666660 0.039999 -16.000002
v 10.666666 0.040001 15.999999
v -10.666671 0.040001 15.999999
v 10.666677 1.959999 -15.999994
v -10.666661 1.959999 -15.999997
v 10.666649 1.960001 16.000006
v -10.666681 1.960001 15.999999
v 13.333335 -0.200001 -13.333336
v -13.333330 -0.200001 -13.333342
v 13.333332 -0.199999 13.333331
v -13.333332 -0.199999 13.333328
v 13.333335 0.199999 -13.333320
v -13.333335 0.199999 -13.333330
v 13.333323 0.200001 13.333345
v -13.333344 0.200001 13.333335
vt 3.166661 -3.499998
vt 4.499996 -3.500000
vt 4.499997 -2.166669
vt 3.833329 -2.833333
vt -2.166669 -3.499996
vt -2.833334 -2.833330
vt -3.500000 -3.499995
vt -3.499999 -2.166661
vt 4.499999 3.166662
vt 3.833333 3.833330
vt -2.833331 3.833333
vt -3.499999 3.166669
vt 3.166669 4.499998
vt 4.500000 4.499997
vt -2.166663 4.499999
vt -3.499997 4.500000
vt -1.168893 -2.004223
vt -2.001431 -2.004222
vt -2.001431 -1.171683
vt -1.168892 -1.171684
vt 2.161262 -2.004223
vt 2.161262 -1.171684
vt 2.993800 -2.004223
vt 2.993800 -1.171685
vt -1.168892 2.158470
vt -2.001430 2.158471
vt 2.161262 2.158470
vt 2.993800 2.158469
vt -1.168892 2.991009
vt -2.001430 2.991009
vt 2.161263 2.991008
vt 2.993800 2.991008
vt -2.094642 3.071580
vt -1.232575 3.071579
vt 2.215694 3.071579
vt 3.077760 3.071578
vt -1.232578 -2.100821
vt -2.094644 -2.100821
vt 2.215689 -2.100822
vt 3.077757 -2.100823
vt -2.094643 2.209514
vt -2.094643 -1.238753
vt 3.077758 -1.238757
vt 3.077759 2.209510
vn -0.707105 0.000000 -0.707109
vn 0.000000 0.834609 -0.550843
vn 0.707108 -0.000003 -0.707106
vn -0.550842 0.834610 -0.000000
vn 0.550843 0.834609 0.000000
vn 0.550842 0.834610 0.000000
vn -0.707108 0.000002 0.707105
vn -0.000000 0.834610 0.550841
vn -0.000000 0.834609 0.550842
vn 0.707106 0.000001 0.707108
vn -0.707108 -0.000010 0.707106
vn 0.000000 -0.995974 0.089638
vn 0.707107 -0.000011 0.707107
vn -0.089638 -0.995974 0.000000
vn 0.089638 -0.995974 0.000000
vn -0.707106 0.000007 -0.707108
vn 0.000000 -0.995974 -0.089638
vn 0.707107 0.000007 -0.707106
vn 0.000001 0.000003 -1.000000
vn 0.000000 0.000002 -1.000000
vn 0.000000 0.000004 -1.000000
vn 0.000001 0.000004 -1.000000
vn 0.000000 0.000003 -1.000000
vn -0.000001 0.000002 1.000000
vn 0.000000 -0.000003 1.000000
vn -0.000001 -0.000003 1.000000
vn -0.000000 -0.000006 1.000000
vn -1.000000 -0.000002 -0.000001
vn -1.000000 -0.000003 -0.000001
vn -1.000000 -0.000003 -0.000000
vn 1.000000 0.000005 0.000001
vn 1.000000 0.000002 -0.000000
vn 1.000000 -0.000001 0.000000
vn 1.000000 -0.000003 0.000000
vn 1.000000 -0.000001 0.000001
g Cube_Cube_Material_glassblock06b.jpg
usemtl Material_glassblock06b.jpg
s off
f 167/100/21 150/101/21 158/102/21
f 167/100/28 158/102/28 175/103/28
f 168/104/29 167/100/29 175/103/29
f 168/104/29 175/103/29 176/105/29
f 151/106/21 168/104/21 159/107/21
f 168/104/30 176/105/30 159/107/30
f 175/103/31 158/102/31 157/108/31
f 175/103/31 157/108/31 173/109/31
f 176/105/21 175/103/21 173/109/21
f 176/105/21 173/109/21 174/110/21
f 159/107/32 176/105/32 174/110/32
f 159/107/33 174/110/33 160/111/33
f 173/109/34 157/108/34 165/112/34
f 157/108/21 149/113/21 165/112/21
f 174/110/35 173/109/35 165/112/35
f 174/110/36 165/112/36 166/114/36
f 160/111/37 174/110/37 166/114/37
f 160/111/21 166/114/21 152/115/21
f 164/116/22 147/117/22 155/118/22
f 164/116/38 155/118/38 172/119/38
f 163/120/39 164/116/39 172/119/39
f 163/120/39 172/119/39 171/121/39
f 146/122/22 163/120/22 154/123/22
f 163/120/40 171/121/40 154/123/40
f 172/119/41 155/118/41 170/124/41
f 155/118/41 156/125/41 170/124/41
f 171/121/22 172/119/22 169/126/22
f 172/119/22 170/124/22 169/126/22
f 154/123/42 171/121/42 153/127/42
f 171/121/42 169/126/42 153/127/42
f 170/124/43 156/125/43 162/128/43
f 156/125/22 148/129/22 162/128/22
f 169/126/44 170/124/44 162/128/44
f 169/126/44 162/128/44 161/130/44
f 161/130/22 145/131/22 153/127/22
f 161/130/45 153/127/45 169/126/45
f 162/128/46 148/129/46 152/132/46
f 162/128/47 152/132/47 166/133/47
f 161/130/47 162/128/47 166/133/47
f 161/130/48 166/133/48 165/134/48
f 145/131/49 161/130/49 165/134/49
f 145/131/50 165/134/50 149/135/50
f 168/136/51 151/137/51 147/117/51
f 168/136/12 147/117/12 164/116/12
f 167/138/12 168/136/12 164/116/12
f 167/138/52 164/116/52 163/120/52
f 150/139/53 167/138/53 163/120/53
f 150/139/54 163/120/54 146/122/54
f 160/140/55 152/132/55 148/129/55
f 160/140/56 148/129/56 156/125/56
f 159/141/57 160/140/57 156/125/57
f 159/141/57 156/125/57 155/118/57
f 151/137/57 159/141/57 155/118/57
f 151/137/55 155/118/55 147/117/55
f 158/142/58 150/139/58 146/122/58
f 158/142/59 146/122/59 154/123/59
f 157/143/59 158/142/59 154/123/59
f 157/143/60 154/123/60 153/127/60
f 153/127/61 145/131/61 149/135/61
f 153/127/62 149/135/62 157/143/62
