# Blender3D v249 OBJ File: hole.blend
# www.blender3d.org
mtllib hole.mtl
v 15.999999 15.901185 -15.999998
v 15.999999 15.901181 16.000002
v -16.000004 15.901179 15.999998
v -15.999995 15.901181 -16.000004
v 12.800009 19.000000 -12.799996
v 12.799994 19.000000 12.800004
v -12.800003 19.000000 12.799993
v -12.799997 19.000000 -12.800004
v 15.999999 2.046160 -9.599998
v 15.999999 3.000000 -3.199998
v 15.999999 3.000000 3.200003
v 15.999999 2.046165 9.600002
v -16.000002 2.046164 9.599998
v -16.000000 3.000000 3.199997
v -15.999999 3.000000 -3.200004
v -15.999997 2.046163 -9.600003
v 16.000006 12.803342 -9.599996
v 16.000002 5.000000 -3.199994
v 15.999999 5.000000 3.200006
v 15.999995 12.803338 9.600005
v -16.000002 12.803347 9.599992
v -16.000002 5.000000 3.199993
v -16.000000 5.000000 -3.200007
v -15.999998 12.803349 -9.600006
v 9.599998 2.046164 16.000002
v 3.199998 3.000001 16.000000
v -3.200003 3.000001 16.000000
v -9.600003 2.046167 16.000000
v 9.600000 2.046164 -15.999998
v 3.200001 2.999999 -16.000000
v -3.199998 2.999999 -16.000002
v -9.599997 2.046163 -16.000002
v 9.599993 12.803349 16.000002
v 3.199993 5.000000 16.000000
v -3.200006 5.000000 15.999997
v -9.600005 12.803349 15.999993
v 9.600008 12.803324 -15.999997
v 3.200007 5.000000 -15.999998
v -3.199995 5.000000 -16.000000
v -9.599997 12.803330 -16.000002
v -9.599998 1.242392 -9.600002
v -3.199998 2.046163 -9.600001
v 3.200001 2.046165 -9.599999
v 9.600000 1.242392 -9.599998
v -9.599999 2.046164 -3.200002
v -3.200000 -1.000000 -3.200001
v 3.200001 -1.000000 -3.200000
v 9.599999 2.046162 -3.199999
v -9.600000 2.046162 3.199999
v -3.200000 -1.000000 3.200000
v 3.200000 -1.000000 3.200001
v 9.599999 2.046165 3.200002
v -9.600001 1.242393 9.599999
v -3.200001 2.046164 9.600000
v 3.199999 2.046163 9.600000
v 9.599999 1.242393 9.600001
v -9.599998 3.190940 -9.600003
v -3.199996 3.686990 -9.600001
v 3.200005 3.686990 -9.599998
v 9.600005 3.190940 -9.599997
v -9.599999 3.686990 -3.200004
v -3.199999 1.000000 -3.200001
v 3.200002 1.000000 -3.199999
v 9.600002 3.686990 -3.199997
v -9.600001 3.686990 3.199996
v -3.200001 1.000000 3.199998
v 3.199999 1.000000 3.200001
v 9.599999 3.686990 3.200004
v -9.600002 3.190941 9.599996
v -3.200003 3.686990 9.599998
v 3.199997 3.686990 9.600000
v 9.599997 3.190941 9.600003
vt 0.768949 -1.550848
vt 0.059480 -2.293710
vt 0.721352 -2.293277
vt 0.768949 0.556654
vt 0.721352 1.299084
vt 0.059480 1.299517
vt 2.457878 -0.497096
vt 1.568415 -0.951976
vt 2.320284 -1.095534
vt 2.320284 0.101341
vt 1.568415 -0.042217
vt 1.410445 0.523620
vt 1.983969 1.200414
vt 1.362848 1.266049
vt 3.442082 -2.907854
vt 3.021303 -2.482070
vt 3.020312 -3.500000
vt 1.983969 -2.194607
vt 1.410445 -1.517813
vt 1.362849 -2.260242
vt 3.020312 2.931591
vt 2.598543 3.523737
vt 2.599533 2.505807
vt 3.020312 1.960210
vt 3.980772 1.664598
vt 3.980110 3.347731
vt -2.783209 -3.500000
vt -2.785141 -2.815432
vt -3.495681 -2.802979
vt -3.007043 0.217374
vt -2.392585 1.133050
vt -3.500000 1.087381
vt -0.656364 -0.719393
vt 0.055161 -0.705281
vt -0.657311 -0.008261
vt -1.715890 2.045291
vt -1.504671 2.044648
vt -1.659237 2.544210
vt -1.870455 2.544854
vt 3.442082 -3.412547
vt 3.609367 -3.500000
vt 3.609937 -2.936226
vt 3.442652 -2.848773
vt -1.892509 0.790334
vt -1.893126 0.217374
vt -1.732563 0.879634
vt -1.733180 0.306674
vt -1.712805 3.043466
vt -1.501586 3.042822
vt 1.743610 2.718166
vt 2.540667 2.505807
vt 2.542006 3.325010
vt 1.620546 3.698644
vt 0.617317 1.951213
vt 0.296357 2.497094
vt 1.258813 1.918179
vt 2.220847 2.397990
vt 2.875118 2.505806
vt 3.020312 1.799119
vt 0.296357 -3.491287
vt 0.617317 -2.945406
vt 2.857745 0.720436
vt 2.162314 0.667178
vt 1.258813 -2.912372
vt 3.015715 0.154599
vt 2.220847 -3.392183
vt 2.162315 -1.661371
vt -1.732563 1.539793
vt -1.623507 0.908781
vt -1.089209 0.755147
vt -0.693827 1.952443
vt 3.020312 -2.793311
vt 2.875119 -3.500000
vt 2.857746 -1.714629
vt 3.015715 -1.148792
vt -0.870198 0.247571
vt -0.225946 0.217374
vt 0.059480 1.291233
vt 0.059459 2.044648
vt -2.790408 -0.010748
vt -3.492944 0.217374
vt -3.500000 -0.709428
vt -2.789461 -0.721881
vt -2.078791 0.005843
vt -2.077936 -0.707769
vt -1.367758 0.006672
vt -1.366903 -0.706940
vt -2.787528 -1.406449
vt -3.497975 -1.391517
vt -2.078364 -1.455957
vt -1.367331 -1.455128
vt -0.654432 -1.403961
vt 0.057185 -1.387370
vt -2.786088 -2.104300
vt -3.496536 -2.089367
vt -2.076924 -2.153807
vt -0.652992 -2.101811
vt -1.365892 -2.152978
vt 0.058625 -2.085220
vt -2.073617 -2.801321
vt -1.362584 -2.800491
vt -0.652045 -2.812944
vt 0.059480 -2.798833
vt -2.071592 -3.483409
vt -1.360560 -3.482579
vt -0.650113 -3.497512
vt 3.020312 -0.970833
vt 3.979080 -2.306575
vt 3.977991 -0.666459
vt 3.395436 -0.497096
vt 4.433613 -0.642455
vt 3.979080 -2.060420
vt 4.497835 -1.471997
vt 4.498308 -2.306575
vt 0.156107 3.332759
vt 0.060097 2.839780
vt 0.357852 3.270667
vt 1.145197 2.505807
vt 0.155901 3.855352
vt 0.357646 3.793260
vt 0.059480 4.407558
vt 1.144579 4.073586
vt 1.456861 4.500000
vt 1.620546 3.927092
vt -2.637861 3.286574
vt -1.895199 3.701212
vt -2.389501 3.997854
vt -3.498149 2.806263
vt -3.262538 2.365192
vt -3.422485 2.275891
vt -3.263155 1.792232
vt -3.423101 1.702931
vt -2.639712 1.567693
vt -1.897667 1.409371
vt 4.499527 2.494142
vt 4.500000 3.328717
vt 3.980772 3.082563
vt 4.435306 1.664598
vt -1.203215 3.273983
vt -0.415868 4.038843
vt -1.500969 3.704869
vt -1.404959 3.211890
vt -1.203420 2.751390
vt -1.405165 2.689297
vt -0.416485 2.471065
vt -1.501586 2.137090
vt 0.059480 2.617558
vt -0.104205 2.044648
vt -2.146757 0.697684
vt 3.268518 0.971664
vt 3.921778 1.194227
vt 3.022022 1.664598
vt 3.101233 1.059116
vt 3.267949 0.407890
vt 3.100664 0.495342
vt 3.920070 -0.497096
vt 3.020312 -0.026724
vt 4.419790 1.664598
vt 3.921778 0.119733
vt 4.422818 0.684830
vt 4.425432 -0.160977
vn -0.386124 0.919689 0.071283
vn 0.071283 0.919688 -0.386124
vn -0.071283 0.919688 0.386124
vn 0.386124 0.919689 -0.071283
vn -0.071283 0.919689 -0.386124
vn 0.386124 0.919689 0.071283
vn -0.386124 0.919689 -0.071283
vn 0.071283 0.919689 0.386124
vn -0.672160 -0.310488 -0.672160
vn -0.123654 -0.984591 -0.123654
vn 0.672160 -0.310488 0.672160
vn 0.123654 -0.984591 0.123654
vn 0.000000 -0.000001 -1.000000
vn 0.000000 0.000000 -1.000000
vn 1.000000 -0.000000 0.000000
vn -0.000000 0.000000 1.000000
vn -1.000000 0.000001 -0.000000
vn -1.000000 -0.000000 -0.000000
vn -0.707106 0.000000 -0.707107
vn -0.639752 0.425951 -0.639753
vn -0.559886 0.459197 -0.689686
vn 0.075708 0.976786 -0.200395
vn 0.000000 0.979597 -0.200972
vn 0.559887 0.459197 -0.689685
vn -0.075708 0.976785 -0.200395
vn 0.707107 -0.000000 -0.707107
vn 0.639752 0.425951 -0.639752
vn -0.689685 0.459197 -0.559886
vn -0.200395 0.976786 0.075708
vn 0.000000 0.922034 -0.387109
vn 0.689685 0.459197 -0.559886
vn 0.200395 0.976786 0.075708
vn -0.200972 0.979597 -0.000000
vn -0.387109 0.922034 -0.000000
vn 0.387109 0.922034 0.000000
vn 0.200972 0.979597 -0.000000
vn -0.200395 0.976786 -0.075709
vn -0.689685 0.459197 0.559886
vn -0.000000 0.922034 0.387109
vn 0.200395 0.976786 -0.075708
vn 0.689685 0.459197 0.559887
vn -0.639753 0.425952 0.639751
vn -0.707107 0.000000 0.707107
vn 0.075708 0.976786 0.200395
vn -0.559886 0.459198 0.689685
vn -0.000000 0.979597 0.200972
vn -0.075708 0.976786 0.200395
vn 0.559886 0.459197 0.689685
vn 0.639752 0.425951 0.639752
vn 0.707106 0.000000 0.707107
vn -0.672160 -0.310488 0.672159
vn -0.123654 -0.984591 0.123654
vn 0.145833 -0.978502 0.145833
vn 0.000000 -0.989076 0.147409
vn -0.145833 -0.978502 0.145833
vn -0.145833 -0.978502 -0.145833
vn 0.123654 -0.984591 -0.123654
vn -0.394846 -0.829574 0.394846
vn -0.000000 -0.902940 0.429766
vn 0.394847 -0.829574 0.394846
vn 0.145833 -0.978502 -0.145833
vn -0.147409 -0.989076 -0.000000
vn -0.429766 -0.902940 0.000000
vn 0.429766 -0.902940 0.000000
vn 0.147409 -0.989076 0.000000
vn -0.394846 -0.829574 -0.394846
vn 0.000000 -0.902940 -0.429766
vn 0.394846 -0.829574 -0.394847
vn 0.000000 -0.989076 -0.147408
vn 0.000000 -0.989076 -0.147409
vn 0.672160 -0.310488 -0.672160
vn 0.264703 0.546863 -0.794275
vn -0.000000 0.000001 -1.000000
vn -0.264705 0.546863 -0.794275
vn 0.264703 0.546864 0.794275
vn 0.000001 0.000001 1.000000
vn 0.000000 0.000001 1.000000
vn -0.264702 0.546864 0.794275
vn -0.794275 0.546864 0.264702
vn -1.000000 -0.000001 -0.000000
vn -0.794275 0.546864 -0.264702
vn 0.794274 0.546864 -0.264703
vn 1.000000 0.000000 -0.000001
vn 1.000000 -0.000001 0.000000
vn 1.000000 -0.000001 -0.000001
vn 0.794276 0.546863 0.264702
usemtl Material_rock009r.jpg
s off
f 67/1/1 72/2/1 68/3/1
f 67/4/2 71/5/2 72/6/2
f 57/7/3 62/8/3 58/9/3
f 57/7/4 61/10/4 62/11/4
f 66/12/5 69/13/5 70/14/5
f 65/15/6 69/16/6 66/17/6
f 60/18/7 63/19/7 64/20/7
f 59/21/8 63/22/8 60/23/8
f 32/24/9 16/25/9 4/26/9
f 32/27/10 41/28/10 16/29/10
f 12/30/11 2/31/11 25/32/11
f 56/33/12 12/34/12 25/35/12
f 50/36/13 66/37/13 67/38/13
f 50/36/14 67/38/14 51/39/14
f 46/40/15 62/41/15 66/42/15
f 46/40/15 66/42/15 50/43/15
f 46/44/16 47/45/16 62/46/16
f 47/45/16 63/47/16 62/46/16
f 47/48/17 51/39/17 63/49/17
f 51/39/18 67/38/18 63/49/18
f 33/50/19 6/51/19 20/52/19
f 33/50/20 20/52/20 72/53/20
f 34/54/21 33/55/21 72/6/21
f 34/54/22 72/6/22 71/5/22
f 35/56/23 34/54/23 70/14/23
f 34/54/23 71/5/23 70/14/23
f 36/57/24 35/56/24 69/13/24
f 35/56/25 70/14/25 69/13/25
f 7/58/26 36/57/26 21/59/26
f 36/57/27 69/13/27 21/59/27
f 72/2/28 20/60/28 19/61/28
f 72/2/29 19/61/29 68/3/29
f 70/14/30 71/5/30 67/4/30
f 70/14/30 67/4/30 66/12/30
f 21/59/31 69/13/31 22/62/31
f 69/13/32 65/63/32 22/62/32
f 68/3/33 19/61/33 18/64/33
f 68/3/33 18/64/33 64/20/33
f 67/1/34 68/3/34 64/20/34
f 67/1/34 64/20/34 63/19/34
f 65/63/35 66/12/35 62/11/35
f 65/63/35 62/11/35 61/10/35
f 22/62/36 65/63/36 61/10/36
f 22/62/36 61/10/36 23/65/36
f 64/20/37 18/64/37 60/18/37
f 18/64/38 17/66/38 60/18/38
f 62/8/39 63/19/39 59/67/39
f 62/8/39 59/67/39 58/9/39
f 23/68/40 61/69/40 57/70/40
f 23/68/41 57/70/41 24/71/41
f 60/18/42 17/66/42 37/72/42
f 17/66/43 5/73/43 37/72/43
f 59/67/44 60/18/44 38/74/44
f 60/18/45 37/72/45 38/74/45
f 58/9/46 59/67/46 38/74/46
f 58/9/46 38/74/46 39/75/46
f 57/70/47 58/76/47 39/77/47
f 57/70/48 39/77/48 40/78/48
f 24/71/49 57/70/49 40/78/49
f 24/71/50 40/78/50 8/79/50
f 28/80/51 3/81/51 13/82/51
f 28/80/52 13/82/52 53/83/52
f 27/84/53 28/80/53 54/85/53
f 28/80/12 53/83/12 54/85/12
f 26/86/54 27/84/54 54/85/54
f 26/86/54 54/85/54 55/87/54
f 25/35/55 26/86/55 55/87/55
f 25/35/52 55/87/52 56/33/52
f 53/83/10 13/82/10 49/88/10
f 13/82/56 14/89/56 49/88/56
f 54/85/57 53/83/57 49/88/57
f 54/85/58 49/88/58 50/90/58
f 55/87/59 54/85/59 50/90/59
f 55/87/59 50/90/59 51/91/59
f 56/33/10 55/87/10 52/92/10
f 55/87/60 51/91/60 52/92/60
f 12/34/57 56/33/57 52/92/57
f 12/34/61 52/92/61 11/93/61
f 49/88/62 14/89/62 45/94/62
f 14/89/62 15/95/62 45/94/62
f 50/90/63 49/88/63 46/96/63
f 49/88/63 45/94/63 46/96/63
f 52/92/64 51/91/64 48/97/64
f 51/91/64 47/98/64 48/97/64
f 11/93/65 52/92/65 10/99/65
f 52/92/65 48/97/65 10/99/65
f 45/94/55 15/95/55 16/29/55
f 45/94/52 16/29/52 41/28/52
f 46/96/66 45/94/66 42/100/66
f 45/94/12 41/28/12 42/100/12
f 47/98/67 46/96/67 42/100/67
f 47/98/67 42/100/67 43/101/67
f 48/97/68 47/98/68 43/101/68
f 48/97/52 43/101/52 44/102/52
f 10/99/53 48/97/53 9/103/53
f 48/97/12 44/102/12 9/103/12
f 42/100/57 41/28/57 32/27/57
f 42/100/61 32/27/61 31/104/61
f 43/101/69 42/100/69 30/105/69
f 42/100/70 31/104/70 30/105/70
f 44/102/10 43/101/10 29/106/10
f 43/101/56 30/105/56 29/106/56
f 29/107/71 1/108/71 9/109/71
f 29/107/57 9/109/57 44/110/57
f 32/111/14 4/112/14 40/113/14
f 4/112/72 8/114/72 40/113/72
f 31/115/73 32/116/73 39/117/73
f 32/116/14 40/118/14 39/117/14
f 30/119/73 31/115/73 39/117/73
f 30/119/73 39/117/73 38/120/73
f 29/121/73 30/119/73 38/120/73
f 29/121/14 38/120/14 37/122/14
f 1/123/14 29/121/14 37/122/14
f 1/123/74 37/122/74 5/124/74
f 36/125/75 7/126/75 3/127/75
f 36/125/76 3/127/76 28/128/76
f 35/129/77 36/125/77 28/128/77
f 35/129/77 28/128/77 27/130/77
f 34/131/77 35/129/77 27/130/77
f 34/131/16 27/130/16 26/132/16
f 33/133/16 34/131/16 25/32/16
f 34/131/16 26/132/16 25/32/16
f 6/134/78 33/133/78 2/31/78
f 33/133/16 25/32/16 2/31/16
f 24/135/79 8/136/79 4/137/79
f 24/135/18 4/137/18 16/138/18
f 23/139/18 24/140/18 16/141/18
f 23/139/18 16/141/18 15/142/18
f 22/143/18 23/139/18 15/142/18
f 22/143/80 15/142/80 14/144/80
f 21/145/18 22/143/18 13/146/18
f 22/143/80 14/144/80 13/146/80
f 7/147/81 21/145/81 3/148/81
f 21/145/18 13/146/18 3/148/18
f 20/149/82 6/134/82 2/31/82
f 20/149/83 2/31/83 12/30/83
f 19/150/15 20/151/15 12/152/15
f 19/150/15 12/152/15 11/153/15
f 18/154/15 19/150/15 11/153/15
f 18/154/84 11/153/84 10/155/84
f 17/156/84 18/154/84 9/157/84
f 18/154/84 10/155/84 9/157/84
f 9/158/85 1/159/85 17/160/85
f 1/159/86 5/161/86 17/160/86
