# Blender3D v249 OBJ File: hole.blend
# www.blender3d.org
mtllib hole.mtl
v 15.999999 -1.000001 -15.999997
v 15.999999 -0.999999 16.000002
v -16.000004 -0.999999 15.999999
v -15.999995 -1.000001 -16.000004
v 16.000010 0.999999 -15.999994
v 15.999991 1.000001 16.000006
v -16.000004 1.000001 15.999991
v -15.999997 0.999999 -16.000004
v 15.999999 -1.000000 -9.599998
v 15.999999 -1.000000 -3.199997
v 15.999999 -1.000000 3.200003
v 15.999999 -1.000000 9.600002
v -16.000002 -1.000000 9.599998
v -16.000000 -1.000000 3.199998
v -15.999999 -1.000000 -3.200003
v -15.999997 -1.000000 -9.600003
v 16.000006 1.000000 -9.599995
v 16.000002 1.000000 -3.199994
v 15.999999 1.000000 3.200006
v 15.999995 1.000000 9.600006
v -16.000002 1.000000 9.599993
v -16.000002 1.000000 3.199993
v -16.000000 1.000000 -3.200006
v -15.999998 1.000000 -9.600005
v 9.599998 -0.999999 16.000002
v 3.199998 -0.999999 16.000000
v -3.200003 -0.999999 16.000000
v -9.600003 -0.999999 16.000000
v 9.600000 -1.000001 -15.999998
v 3.200001 -1.000001 -16.000000
v -3.199998 -1.000001 -16.000002
v -9.599997 -1.000001 -16.000002
v 9.599993 1.000001 16.000002
v 3.199993 1.000001 16.000000
v -3.200006 1.000001 15.999997
v -9.600005 1.000001 15.999994
v 9.600008 0.999999 -15.999996
v 3.200007 0.999999 -15.999998
v -3.199995 0.999999 -16.000000
v -9.599997 0.999999 -16.000002
v -9.599998 -1.000000 -9.600002
v -3.199998 -1.000000 -9.600001
v 3.200001 -1.000000 -9.599999
v 9.600000 -1.000000 -9.599998
v -9.599999 -1.000000 -3.200002
v -3.200000 -5.000000 -3.200001
v 3.200001 -5.000000 -3.200000
v 9.599999 -1.000000 -3.199999
v -9.600000 -1.000000 3.199999
v -3.200000 -5.000000 3.200000
v 3.200000 -5.000000 3.200001
v 9.599999 -1.000000 3.200002
v -9.600001 -1.000000 9.599999
v -3.200001 -1.000000 9.600000
v 3.199999 -1.000000 9.600000
v 9.599999 -1.000000 9.600001
v -9.599998 1.000000 -9.600003
v -3.199996 1.000000 -9.600001
v 3.200005 1.000000 -9.599998
v 9.600005 1.000000 -9.599997
v -9.599999 1.000000 -3.200004
v -3.199999 -3.000000 -3.200001
v 3.200002 -3.000000 -3.199999
v 9.600002 1.000000 -3.199996
v -9.600001 1.000000 3.199996
v -3.200001 -3.000000 3.199999
v 3.199999 -3.000000 3.200001
v 9.599999 1.000000 3.200004
v -9.600002 1.000000 9.599996
v -3.200003 1.000000 9.599998
v 3.199997 1.000000 9.600000
v 9.599997 1.000000 9.600003
vt 0.000000 0.250000
vt 1.000000 0.250000
vt 1.000000 0.750000
vt 0.000000 0.750000
vt 1.699998 -1.499999
vt 2.499998 -1.500000
vt 2.499998 -0.700000
vt 1.699999 -0.700000
vt 0.899998 -1.499999
vt 0.899999 -0.699999
vt 0.099999 -1.499999
vt 0.099999 -0.699999
vt -0.700000 -1.499998
vt -0.700000 -0.699999
vt -1.500000 -1.499998
vt -1.500000 -0.699998
vt 1.699999 0.100000
vt 2.499999 0.099999
vt 0.899999 0.100000
vt 0.100000 0.100001
vt -0.700000 0.100001
vt -1.500000 0.100001
vt 1.700000 0.899999
vt 2.499999 0.899999
vt 0.900000 0.900000
vt 0.100000 0.900000
vt -0.700000 0.900000
vt -1.499999 0.900001
vt 1.700000 1.699999
vt 2.500000 1.699999
vt 0.900000 1.699999
vt 0.100001 1.700000
vt -0.699999 1.700000
vt -1.499999 1.700000
vt 1.700000 2.499999
vt 2.500000 2.499998
vt 0.900001 2.499999
vt 0.100001 2.499999
vt -0.699999 2.499999
vt -1.499999 2.500000
vt -0.700000 -1.499999
vt -1.500000 -1.499999
vt -1.500000 -0.699999
vt 0.100000 -0.699999
vt 0.899999 -1.499999
vt 1.699999 -1.499999
vt 2.499999 -1.499999
vt 2.499999 -0.700000
vt -1.499999 0.100001
vt 0.100000 0.100000
vt 0.900000 0.100000
vt 2.499999 0.100000
vt -1.499999 0.900000
vt 1.699999 0.900000
vt 0.100000 1.700000
vt 1.699999 1.699999
vt 2.499999 1.699999
vt 0.100000 2.499999
vt 0.900000 2.499999
vt 1.699999 2.499999
vt 2.499999 2.499999
vt 1.640711 0.408434
vt 2.388425 0.408434
vt 1.640711 0.525265
vt 2.388425 0.525265
vt 0.892997 0.408434
vt 0.892996 0.525265
vt 0.145283 0.408434
vt 0.145282 0.525265
vt -0.602432 0.408434
vt -0.602433 0.525265
vt -1.350146 0.408434
vt -1.350147 0.525265
vt 1.640712 0.525265
vt 2.388426 0.525265
vt 2.388426 0.408434
vt 1.640712 0.408434
vt 0.892998 0.525265
vt 0.892998 0.408434
vt 0.145283 0.525265
vt -0.602431 0.525265
vt -0.602431 0.408434
vt -1.350145 0.525265
vt -0.588422 0.525265
vt -1.336136 0.525265
vt -1.336136 0.408434
vt -0.588421 0.408434
vt 0.159292 0.525265
vt 0.159293 0.408434
vt 0.907007 0.525265
vt 0.907007 0.408434
vt 1.654721 0.525265
vt 1.654721 0.408434
vt 2.402435 0.525265
vt 2.402436 0.408434
vt 1.654723 0.525265
vt 2.402437 0.525265
vt 1.654722 0.408434
vt 0.907008 0.525265
vt 0.907008 0.408434
vt 0.159294 0.525265
vt 0.159294 0.408434
vt -0.588421 0.525265
vt -1.336135 0.408434
vt -1.336135 0.525265
vn 0.000000 -0.000001 -1.000000
vn 0.000000 0.000000 -1.000000
vn 1.000000 -0.000000 0.000000
vn -0.000000 0.000000 1.000000
vn -1.000000 0.000001 -0.000000
vn -1.000000 -0.000000 -0.000000
vn 0.000000 1.000000 -0.000000
vn -0.468293 0.749269 -0.468293
vn 0.000000 0.847998 -0.529999
vn 0.468293 0.749269 -0.468293
vn -0.529999 0.847998 -0.000000
vn 0.529999 0.847998 0.000000
vn -0.468293 0.749269 0.468293
vn -0.000000 0.847998 0.529999
vn 0.468293 0.749269 0.468293
vn -0.000000 -1.000000 0.000000
vn -0.468293 -0.749269 0.468293
vn 0.000000 -0.847998 0.529999
vn 0.468293 -0.749269 0.468293
vn -0.529999 -0.847998 -0.000000
vn 0.529999 -0.847998 0.000000
vn -0.468293 -0.749269 -0.468293
vn 0.000000 -0.847998 -0.529999
vn 0.468293 -0.749269 -0.468293
vn 0.000000 0.000001 -1.000000
vn -0.000000 0.000004 1.000000
vn -0.000000 0.000003 1.000000
vn 0.000000 0.000001 1.000000
vn -0.000001 -0.000000 1.000000
vn 0.000000 -0.000002 1.000000
vn -1.000000 -0.000001 -0.000000
vn 1.000000 0.000004 0.000001
vn 1.000000 0.000002 -0.000000
vn 1.000000 0.000002 0.000001
vn 1.000000 -0.000001 0.000000
vn 1.000000 -0.000001 0.000001
vn 1.000000 -0.000003 0.000000
vn 1.000000 -0.000005 0.000000
vn 1.000000 -0.000003 0.000001
g Cube_Cube_Material_rock009r.jpg
usemtl Material_rock009r.jpg
s off
f 50/1/1 66/2/1 67/3/1
f 50/1/2 67/3/2 51/4/2
f 46/1/3 62/2/3 66/3/3
f 46/1/3 66/3/3 50/4/3
f 46/1/4 47/2/4 62/4/4
f 47/2/4 63/3/4 62/4/4
f 47/1/5 51/2/5 63/4/5
f 51/2/6 67/3/6 63/4/6
f 33/5/7 6/6/7 20/7/7
f 33/5/7 20/7/7 72/8/7
f 34/9/7 33/5/7 71/10/7
f 33/5/7 72/8/7 71/10/7
f 35/11/7 34/9/7 70/12/7
f 34/9/7 71/10/7 70/12/7
f 36/13/7 35/11/7 70/12/7
f 36/13/7 70/12/7 69/14/7
f 7/15/7 36/13/7 69/14/7
f 7/15/7 69/14/7 21/16/7
f 72/8/7 20/7/7 68/17/7
f 20/7/7 19/18/7 68/17/7
f 71/10/7 72/8/7 68/17/7
f 71/10/8 68/17/8 67/19/8
f 70/12/9 71/10/9 67/19/9
f 70/12/9 67/19/9 66/20/9
f 69/14/7 70/12/7 65/21/7
f 70/12/10 66/20/10 65/21/10
f 21/16/7 69/14/7 65/21/7
f 21/16/7 65/21/7 22/22/7
f 68/17/7 19/18/7 64/23/7
f 19/18/7 18/24/7 64/23/7
f 67/19/11 68/17/11 64/23/11
f 67/19/11 64/23/11 63/25/11
f 65/21/12 66/20/12 62/26/12
f 65/21/12 62/26/12 61/27/12
f 22/22/7 65/21/7 61/27/7
f 22/22/7 61/27/7 23/28/7
f 64/23/7 18/24/7 60/29/7
f 18/24/7 17/30/7 60/29/7
f 63/25/13 64/23/13 59/31/13
f 64/23/7 60/29/7 59/31/7
f 62/26/14 63/25/14 59/31/14
f 62/26/14 59/31/14 58/32/14
f 61/27/15 62/26/15 58/32/15
f 61/27/7 58/32/7 57/33/7
f 23/28/7 61/27/7 57/33/7
f 23/28/7 57/33/7 24/34/7
f 60/29/7 17/30/7 37/35/7
f 17/30/7 5/36/7 37/35/7
f 59/31/7 60/29/7 37/35/7
f 59/31/7 37/35/7 38/37/7
f 58/32/7 59/31/7 38/37/7
f 58/32/7 38/37/7 39/38/7
f 57/33/7 58/32/7 39/38/7
f 57/33/7 39/38/7 40/39/7
f 24/34/7 57/33/7 40/39/7
f 24/34/7 40/39/7 8/40/7
f 28/41/16 3/42/16 13/43/16
f 28/41/16 13/43/16 53/14/16
f 27/11/16 28/41/16 53/14/16
f 27/11/16 53/14/16 54/44/16
f 26/45/16 27/11/16 54/44/16
f 26/45/16 54/44/16 55/10/16
f 25/46/16 26/45/16 55/10/16
f 25/46/16 55/10/16 56/8/16
f 2/47/16 25/46/16 56/8/16
f 2/47/16 56/8/16 12/48/16
f 53/14/16 13/43/16 14/49/16
f 53/14/16 14/49/16 49/21/16
f 54/44/16 53/14/16 49/21/16
f 54/44/17 49/21/17 50/50/17
f 55/10/18 54/44/18 50/50/18
f 55/10/18 50/50/18 51/51/18
f 56/8/16 55/10/16 52/17/16
f 55/10/19 51/51/19 52/17/19
f 12/48/16 56/8/16 11/52/16
f 56/8/16 52/17/16 11/52/16
f 49/21/16 14/49/16 15/53/16
f 49/21/16 15/53/16 45/27/16
f 50/50/20 49/21/20 46/26/20
f 49/21/20 45/27/20 46/26/20
f 52/17/21 51/51/21 48/54/21
f 51/51/21 47/25/21 48/54/21
f 11/52/16 52/17/16 10/24/16
f 52/17/16 48/54/16 10/24/16
f 45/27/16 15/53/16 16/34/16
f 45/27/16 16/34/16 41/33/16
f 46/26/22 45/27/22 42/55/22
f 45/27/16 41/33/16 42/55/16
f 47/25/23 46/26/23 42/55/23
f 47/25/23 42/55/23 43/31/23
f 48/54/24 47/25/24 43/31/24
f 48/54/16 43/31/16 44/56/16
f 10/24/16 48/54/16 9/57/16
f 48/54/16 44/56/16 9/57/16
f 41/33/16 16/34/16 4/40/16
f 41/33/16 4/40/16 32/39/16
f 42/55/16 41/33/16 32/39/16
f 42/55/16 32/39/16 31/58/16
f 43/31/16 42/55/16 30/59/16
f 42/55/16 31/58/16 30/59/16
f 44/56/16 43/31/16 29/60/16
f 43/31/16 30/59/16 29/60/16
f 29/60/16 1/61/16 44/56/16
f 1/61/16 9/57/16 44/56/16
f 32/62/2 4/63/2 40/64/2
f 4/63/2 8/65/2 40/64/2
f 31/66/2 32/62/2 40/64/2
f 31/66/25 40/64/25 39/67/25
f 30/68/25 31/66/25 39/67/25
f 30/68/25 39/67/25 38/69/25
f 29/70/25 30/68/25 38/69/25
f 29/70/25 38/69/25 37/71/25
f 1/72/25 29/70/25 37/71/25
f 1/72/25 37/71/25 5/73/25
f 36/74/26 7/75/26 3/76/26
f 36/74/27 3/76/27 28/77/27
f 35/78/27 36/74/27 28/77/27
f 35/78/28 28/77/28 27/79/28
f 34/80/28 35/78/28 27/79/28
f 34/80/4 27/79/4 26/68/4
f 33/81/4 34/80/4 26/68/4
f 33/81/4 26/68/4 25/82/4
f 6/83/29 33/81/29 25/82/29
f 6/83/30 25/82/30 2/72/30
f 24/84/31 8/85/31 4/86/31
f 24/84/6 4/86/6 16/87/6
f 23/88/6 24/84/6 16/87/6
f 23/88/6 16/87/6 15/89/6
f 22/90/6 23/88/6 15/89/6
f 22/90/31 15/89/31 14/91/31
f 21/92/31 22/90/31 14/91/31
f 21/92/6 14/91/6 13/93/6
f 7/94/6 21/92/6 13/93/6
f 7/94/6 13/93/6 3/95/6
f 20/96/32 6/97/32 2/95/32
f 20/96/33 2/95/33 12/98/33
f 19/99/34 20/96/34 12/98/34
f 19/99/3 12/98/3 11/100/3
f 18/101/3 19/99/3 11/100/3
f 18/101/35 11/100/35 10/102/35
f 17/103/36 18/101/36 10/102/36
f 17/103/37 10/102/37 9/87/37
f 9/87/38 1/104/38 5/105/38
f 9/87/39 5/105/39 17/103/39
