# Blender3D v249 OBJ File: jumpme.blend
# www.blender3d.org
mtllib jumpme.mtl
v 5.000000 -0.400000 -0.000000
v 8.000000 0.000000 0.000001
v 4.999999 0.000000 3.000000
v 2.000000 -0.000000 -0.000001
v 5.000001 -0.000000 -3.000000
v 5.000001 0.800000 -3.799999
v 1.200000 0.800000 -0.000001
v 4.999999 0.800000 3.800000
v 8.800000 0.800000 0.000002
v 5.000000 1.200000 0.000000
v 5.000000 -0.300000 1.750000
v 6.750000 -0.300000 0.000000
v 5.000000 -0.300000 -1.750000
v 3.250000 -0.300000 -0.000001
v 8.700000 0.400000 0.000002
v 4.999999 0.400000 3.700000
v 1.300000 0.400000 -0.000001
v 5.000001 0.400000 -3.700000
v 7.249999 0.000000 2.250001
v 7.250001 -0.000000 -2.249999
v 2.750000 0.000000 2.249999
v 2.750001 -0.000000 -2.250001
v 2.150001 0.800000 -2.850000
v 5.000001 1.100000 -2.750000
v 7.850001 0.800000 -2.849998
v 2.149999 0.800000 2.849999
v 2.250000 1.100000 -0.000001
v 7.849999 0.800000 2.850002
v 4.999999 1.100000 2.750000
v 7.750000 1.100000 0.000002
v 6.444445 -0.222222 -1.444444
v 6.444444 -0.222222 1.444445
v 3.555555 -0.222222 1.444444
v 3.555556 -0.222222 -1.444445
v 7.775002 0.400000 -2.774999
v 7.774999 0.400000 2.775001
v 2.224999 0.400000 2.774999
v 2.225001 0.400000 -2.775001
v 2.933334 1.022222 -2.066667
v 2.933333 1.022222 2.066666
v 7.066666 1.022222 2.066668
v 7.066668 1.022222 -2.066665
vt 0.500000 0.500000
vt 0.499999 -0.874999
vt 1.533332 -0.533333
vt 1.874999 0.499999
vt -0.874999 0.500001
vt -0.533333 -0.533332
vt 0.500001 1.874999
vt -0.533333 1.533333
vt 1.533333 1.533332
vt 2.399999 0.499999
vt 1.924999 -0.925000
vt 1.925000 1.924999
vt 2.349999 0.499999
vt 1.887500 1.887499
vt 1.887498 -0.887500
vt 0.499999 -1.399999
vt -0.925000 -0.924998
vt 0.499999 -1.349999
vt -0.887500 -0.887498
vt -1.399999 0.500001
vt -0.924999 1.925000
vt -1.349999 0.500001
vt -0.887499 1.887500
vt 0.500001 2.399999
vt 0.500001 2.349999
vt 0.500001 2.000000
vt -0.624999 1.625000
vt 0.500000 1.375000
vt -0.222222 1.222222
vt 1.625000 1.624999
vt 1.222222 1.222222
vt -0.999999 0.500001
vt -0.374999 0.500001
vt -0.625000 -0.624999
vt -0.222222 -0.222221
vt 0.499999 -0.999999
vt 0.500000 -0.374999
vt 1.624999 -0.625000
vt 1.222222 -0.222222
vt 1.999999 0.500000
vt 1.375000 0.500000
vn 0.000000 1.000000 0.000000
vn 0.000000 0.984069 0.177709
vn 0.133732 0.981933 0.133732
vn 0.177709 0.984069 0.000000
vn -0.177709 0.984069 0.000000
vn -0.133732 0.981933 0.133732
vn 0.000000 0.984069 -0.177709
vn -0.133732 0.981933 -0.133732
vn 0.133732 0.981933 -0.133732
vn 0.865505 0.500839 0.000000
vn 0.641560 0.420423 0.641560
vn 0.641560 0.420423 -0.641560
vn 0.820032 -0.572283 0.000000
vn 0.576037 -0.579913 -0.576037
vn 0.576037 -0.579913 0.576037
vn 0.000000 0.500839 0.865505
vn -0.641560 0.420423 0.641560
vn 0.000000 -0.572283 0.820032
vn -0.576037 -0.579913 0.576037
vn -0.865505 0.500839 0.000000
vn -0.641560 0.420423 -0.641560
vn -0.820032 -0.572283 0.000000
vn -0.576037 -0.579913 -0.576037
vn 0.000000 0.500839 -0.865505
vn 0.000000 -0.572283 -0.820032
vn 0.000000 -0.931944 -0.362529
vn -0.259072 -0.930448 -0.259072
vn 0.000000 -0.987945 -0.154698
vn -0.124790 -0.984283 -0.124790
vn 0.259072 -0.930448 -0.259072
vn 0.124790 -0.984283 -0.124790
vn -0.362529 -0.931944 0.000000
vn -0.154698 -0.987945 0.000000
vn -0.259072 -0.930448 0.259072
vn -0.124790 -0.984283 0.124790
vn 0.000000 -0.931944 0.362529
vn 0.000000 -0.987945 0.154698
vn 0.259072 -0.930448 0.259072
vn 0.124790 -0.984283 0.124790
vn 0.362529 -0.931944 0.000000
vn 0.154698 -0.987945 0.000000
vn 0.000000 -1.000000 0.000000
g Cube.006_Cube.008_Material_brick005.jpg.001
usemtl Material_brick005.jpg.001
s 1
f 10/1/1 29/2/2 41/3/3
f 10/1/1 41/3/3 30/4/4
f 10/1/1 27/5/5 40/6/6
f 10/1/1 40/6/6 29/2/2
f 10/1/1 24/7/7 39/8/8
f 10/1/1 39/8/8 27/5/5
f 10/1/1 30/4/4 42/9/9
f 10/1/1 42/9/9 24/7/7
f 9/10/10 30/4/4 41/3/3
f 9/10/10 41/3/3 28/11/11
f 9/10/10 25/12/12 42/9/9
f 9/10/10 42/9/9 30/4/4
f 9/10/10 15/13/13 35/14/14
f 9/10/10 35/14/14 25/12/12
f 9/10/10 28/11/11 36/15/15
f 9/10/10 36/15/15 15/13/13
f 8/16/16 29/2/2 40/6/6
f 8/16/16 40/6/6 26/17/17
f 8/16/16 28/11/11 41/3/3
f 8/16/16 41/3/3 29/2/2
f 8/16/16 16/18/18 36/15/15
f 8/16/16 36/15/15 28/11/11
f 8/16/16 26/17/17 37/19/19
f 8/16/16 37/19/19 16/18/18
f 7/20/20 27/5/5 39/8/8
f 7/20/20 39/8/8 23/21/21
f 7/20/20 26/17/17 40/6/6
f 7/20/20 40/6/6 27/5/5
f 7/20/20 17/22/22 37/19/19
f 7/20/20 37/19/19 26/17/17
f 7/20/20 23/21/21 38/23/23
f 7/20/20 38/23/23 17/22/22
f 6/24/24 24/7/7 42/9/9
f 6/24/24 42/9/9 25/12/12
f 6/24/24 23/21/21 39/8/8
f 6/24/24 39/8/8 24/7/7
f 6/24/24 18/25/25 38/23/23
f 6/24/24 38/23/23 23/21/21
f 6/24/24 25/12/12 35/14/14
f 6/24/24 35/14/14 18/25/25
f 5/26/26 22/27/27 18/25/25
f 22/27/27 38/23/23 18/25/25
f 5/26/26 13/28/28 34/29/29
f 5/26/26 34/29/29 22/27/27
f 5/26/26 20/30/30 31/31/31
f 5/26/26 31/31/31 13/28/28
f 5/26/26 18/25/25 20/30/30
f 18/25/25 35/14/14 20/30/30
f 4/32/32 22/27/27 34/29/29
f 4/32/32 34/29/29 14/33/33
f 4/32/32 17/22/22 22/27/27
f 17/22/22 38/23/23 22/27/27
f 4/32/32 21/34/34 17/22/22
f 21/34/34 37/19/19 17/22/22
f 4/32/32 14/33/33 33/35/35
f 4/32/32 33/35/35 21/34/34
f 3/36/36 21/34/34 33/35/35
f 3/36/36 33/35/35 11/37/37
f 3/36/36 16/18/18 21/34/34
f 16/18/18 37/19/19 21/34/34
f 3/36/36 19/38/38 16/18/18
f 19/38/38 36/15/15 16/18/18
f 3/36/36 11/37/37 32/39/39
f 3/36/36 32/39/39 19/38/38
f 2/40/40 19/38/38 32/39/39
f 2/40/40 32/39/39 12/41/41
f 2/40/40 15/13/13 19/38/38
f 15/13/13 36/15/15 19/38/38
f 2/40/40 20/30/30 15/13/13
f 20/30/30 35/14/14 15/13/13
f 2/40/40 12/41/41 31/31/31
f 2/40/40 31/31/31 20/30/30
f 1/1/42 14/33/33 34/29/29
f 1/1/42 34/29/29 13/28/28
f 1/1/42 11/37/37 33/35/35
f 1/1/42 33/35/35 14/33/33
f 1/1/42 12/41/41 32/39/39
f 1/1/42 32/39/39 11/37/37
f 1/1/42 13/28/28 31/31/31
f 1/1/42 31/31/31 12/41/41
v -5.000000 -0.400000 -0.000000
v -2.000000 0.000000 0.000001
v -5.000001 0.000000 3.000000
v -8.000000 -0.000000 -0.000001
v -4.999999 -0.000000 -3.000000
v -4.999999 0.800000 -3.799999
v -8.800000 0.800000 -0.000001
v -5.000001 0.800000 3.800000
v -1.200000 0.800000 0.000002
v -5.000000 1.200000 0.000000
v -5.000000 -0.300000 1.750000
v -3.250000 -0.300000 0.000000
v -5.000000 -0.300000 -1.750000
v -6.750000 -0.300000 -0.000001
v -1.300000 0.400000 0.000002
v -5.000001 0.400000 3.700000
v -8.700001 0.400000 -0.000001
v -4.999999 0.400000 -3.700000
v -2.750001 0.000000 2.250001
v -2.749999 -0.000000 -2.249999
v -7.250000 0.000000 2.249999
v -7.249999 -0.000000 -2.250001
v -7.849999 0.800000 -2.850000
v -4.999999 1.100000 -2.750000
v -2.149999 0.800000 -2.849998
v -7.850001 0.800000 2.849999
v -7.750000 1.100000 -0.000001
v -2.150001 0.800000 2.850002
v -5.000001 1.100000 2.750000
v -2.250000 1.100000 0.000002
v -3.555555 -0.222222 -1.444444
v -3.555556 -0.222222 1.444445
v -6.444445 -0.222222 1.444444
v -6.444444 -0.222222 -1.444445
v -2.224999 0.400000 -2.774999
v -2.225001 0.400000 2.775001
v -7.775001 0.400000 2.774999
v -7.775000 0.400000 -2.775001
v -7.066666 1.022222 -2.066667
v -7.066668 1.022222 2.066666
v -2.933334 1.022222 2.066668
v -2.933332 1.022222 -2.066665
vt 0.500000 0.500000
vt 0.499999 -0.874999
vt 1.533332 -0.533333
vt 1.874999 0.499999
vt -0.874999 0.500001
vt -0.533333 -0.533332
vt 0.500001 1.874999
vt -0.533333 1.533333
vt 1.533333 1.533332
vt 2.399999 0.499999
vt 1.924999 -0.925000
vt 1.925000 1.924999
vt 2.349999 0.499999
vt 1.887500 1.887499
vt 1.887498 -0.887500
vt 0.499999 -1.399999
vt -0.925000 -0.924998
vt 0.499999 -1.349999
vt -0.887500 -0.887498
vt -1.399999 0.500001
vt -0.924999 1.925000
vt -1.349999 0.500001
vt -0.887499 1.887500
vt 0.500001 2.399999
vt 0.500001 2.349999
vt 0.500001 2.000000
vt -0.624999 1.625000
vt 0.500000 1.375000
vt -0.222222 1.222222
vt 1.625000 1.624999
vt 1.222222 1.222222
vt -0.999999 0.500001
vt -0.374999 0.500001
vt -0.625000 -0.624999
vt -0.222222 -0.222221
vt 0.499999 -0.999999
vt 0.500000 -0.374999
vt 1.624999 -0.625000
vt 1.222222 -0.222222
vt 1.999999 0.500000
vt 1.375000 0.500000
g Cube.007_Cube.008_Material_brick005.jpg.001
usemtl Material_brick005.jpg.001
s 1
f 52/42/1 71/43/2 83/44/3
f 52/42/1 83/44/3 72/45/4
f 52/42/1 69/46/5 82/47/6
f 52/42/1 82/47/6 71/43/2
f 52/42/1 66/48/7 81/49/8
f 52/42/1 81/49/8 69/46/5
f 52/42/1 72/45/4 84/50/9
f 52/42/1 84/50/9 66/48/7
f 51/51/10 72/45/4 83/44/3
f 51/51/10 83/44/3 70/52/11
f 51/51/10 67/53/12 84/50/9
f 51/51/10 84/50/9 72/45/4
f 51/51/10 57/54/13 77/55/14
f 51/51/10 77/55/14 67/53/12
f 51/51/10 70/52/11 78/56/15
f 51/51/10 78/56/15 57/54/13
f 50/57/16 71/43/2 82/47/6
f 50/57/16 82/47/6 68/58/17
f 50/57/16 70/52/11 83/44/3
f 50/57/16 83/44/3 71/43/2
f 50/57/16 58/59/18 78/56/15
f 50/57/16 78/56/15 70/52/11
f 50/57/16 68/58/17 79/60/19
f 50/57/16 79/60/19 58/59/18
f 49/61/20 69/46/5 81/49/8
f 49/61/20 81/49/8 65/62/21
f 49/61/20 68/58/17 82/47/6
f 49/61/20 82/47/6 69/46/5
f 49/61/20 59/63/22 79/60/19
f 49/61/20 79/60/19 68/58/17
f 49/61/20 65/62/21 80/64/23
f 49/61/20 80/64/23 59/63/22
f 48/65/24 66/48/7 84/50/9
f 48/65/24 84/50/9 67/53/12
f 48/65/24 65/62/21 81/49/8
f 48/65/24 81/49/8 66/48/7
f 48/65/24 60/66/25 80/64/23
f 48/65/24 80/64/23 65/62/21
f 48/65/24 67/53/12 77/55/14
f 48/65/24 77/55/14 60/66/25
f 47/67/26 64/68/27 60/66/25
f 64/68/27 80/64/23 60/66/25
f 47/67/26 55/69/28 76/70/29
f 47/67/26 76/70/29 64/68/27
f 47/67/26 62/71/30 73/72/31
f 47/67/26 73/72/31 55/69/28
f 47/67/26 60/66/25 62/71/30
f 60/66/25 77/55/14 62/71/30
f 46/73/32 64/68/27 76/70/29
f 46/73/32 76/70/29 56/74/33
f 46/73/32 59/63/22 64/68/27
f 59/63/22 80/64/23 64/68/27
f 46/73/32 63/75/34 59/63/22
f 63/75/34 79/60/19 59/63/22
f 46/73/32 56/74/33 75/76/35
f 46/73/32 75/76/35 63/75/34
f 45/77/36 63/75/34 75/76/35
f 45/77/36 75/76/35 53/78/37
f 45/77/36 58/59/18 63/75/34
f 58/59/18 79/60/19 63/75/34
f 45/77/36 61/79/38 58/59/18
f 61/79/38 78/56/15 58/59/18
f 45/77/36 53/78/37 74/80/39
f 45/77/36 74/80/39 61/79/38
f 44/81/40 61/79/38 74/80/39
f 44/81/40 74/80/39 54/82/41
f 44/81/40 57/54/13 61/79/38
f 57/54/13 78/56/15 61/79/38
f 44/81/40 62/71/30 57/54/13
f 62/71/30 77/55/14 57/54/13
f 44/81/40 54/82/41 73/72/31
f 44/81/40 73/72/31 62/71/30
f 43/42/42 56/74/33 76/70/29
f 43/42/42 76/70/29 55/69/28
f 43/42/42 53/78/37 75/76/35
f 43/42/42 75/76/35 56/74/33
f 43/42/42 54/82/41 74/80/39
f 43/42/42 74/80/39 53/78/37
f 43/42/42 55/69/28 73/72/31
f 43/42/42 73/72/31 54/82/41
v -11.000000 -1.000000 10.000000
v -11.000000 -1.000000 8.000000
v -9.000000 -1.000000 8.000000
v -9.000001 -1.000000 10.000000
v -11.000001 1.000000 10.000000
v -12.000000 1.000000 6.000000
v -8.000000 1.000000 6.000000
v -9.000001 1.000000 10.000000
v -10.800000 1.000000 4.000000
v -9.200000 1.000000 4.000001
v -11.000000 1.000000 8.000000
v -9.000000 1.000000 8.000001
vt 0.000000 0.000000
vt 0.100000 -2.000000
vt -0.500000 -1.000000
vt 0.500000 -1.000000
vt -0.100000 -2.000000
vt -1.000000 1.000000
vt -2.000000 1.000000
vt -1.000000 0.000000
vt 0.000000 1.000000
vt 1.000000 0.000000
vt 1.000000 1.000000
vt -1.250000 -1.000000
vt -1.500000 -2.000000
vt 0.250000 -1.000000
vt 0.500000 -2.000000
vt -0.900000 -2.000000
vt 0.500000 0.000000
vt 1.100000 -1.000000
vt 2.500000 -0.000000
vt 1.900000 -1.000000
vt 0.000000 -1.000000
vt -1.000000 -1.000000
vt -1.500000 -1.000000
vn 0.623783 -0.686161 -0.374270
vn -0.623783 -0.686161 -0.374270
vn -0.894427 0.000000 0.447214
vn 0.894427 -0.000000 0.447214
vn 1.000000 -0.000000 0.000000
vn -1.000000 -0.000000 -0.000000
vn 0.000000 -0.894427 -0.447214
vn 0.000000 0.000000 1.000000
vn 0.000000 -0.707107 -0.707107
g Cube.004_Cube.004_Material_brick005.jpg.001
usemtl Material_brick005.jpg.001
s off
f 87/83/43 94/84/43 91/85/43
f 86/83/44 90/86/44 93/87/44
f 95/88/45 90/89/45 86/90/45
f 91/88/46 96/91/46 87/83/46
f 87/83/47 96/91/47 88/92/47
f 96/91/47 92/93/47 88/92/47
f 85/83/48 89/91/48 95/93/48
f 85/83/48 95/93/48 86/92/48
f 96/94/1 91/95/1 95/96/1
f 91/95/1 90/97/1 95/96/1
f 92/90/1 96/94/1 95/96/1
f 92/90/1 95/96/1 89/83/1
f 86/83/49 93/87/49 94/98/49
f 86/83/49 94/98/49 87/90/49
f 91/99/1 94/100/1 90/101/1
f 94/100/1 93/102/1 90/101/1
f 89/83/50 85/103/50 92/90/50
f 85/103/50 88/104/50 92/90/50
f 86/83/51 90/86/51 91/105/51
f 86/83/51 91/105/51 87/90/51
f 85/83/42 86/103/42 88/90/42
f 86/103/42 87/104/42 88/90/42
v -1.000000 -1.000000 10.000000
v -1.000000 -1.000000 8.000000
v 1.000000 -1.000000 8.000000
v 1.000000 -1.000000 10.000000
v -1.000000 1.000000 10.000000
v -2.000000 1.000000 6.000000
v 2.000000 1.000000 6.000000
v 1.000000 1.000000 10.000000
v -0.800001 1.000000 4.000000
v 0.800000 1.000000 4.000001
v -1.000000 1.000000 8.000000
v 1.000000 1.000000 8.000001
vt 0.000000 0.000000
vt 0.100000 -2.000000
vt -0.500000 -1.000000
vt 0.500000 -1.000000
vt -0.100000 -2.000000
vt -1.000000 1.000000
vt -2.000000 1.000000
vt -1.000000 0.000000
vt 0.000000 1.000000
vt 1.000000 0.000000
vt 1.000000 1.000000
vt -1.250000 -1.000000
vt -1.500000 -2.000000
vt 0.250000 -1.000000
vt 0.500000 -2.000000
vt -0.900000 -2.000000
vt 0.500000 0.000000
vt 1.100000 -1.000000
vt 2.500000 -0.000000
vt 1.900000 -1.000000
vt 0.000000 -1.000000
vt -1.000000 -1.000000
vt -1.500000 -1.000000
vn 0.894427 -0.000000 0.447213
g Cube.003_Cube.003_Material_brick005.jpg.001
usemtl Material_brick005.jpg.001
s off
f 99/106/43 106/107/43 103/108/43
f 98/106/44 102/109/44 105/110/44
f 107/111/45 102/112/45 98/113/45
f 103/111/52 108/114/52 99/106/52
f 99/106/47 108/114/47 100/115/47
f 108/114/47 104/116/47 100/115/47
f 97/106/48 101/114/48 107/116/48
f 97/106/48 107/116/48 98/115/48
f 108/117/1 103/118/1 107/119/1
f 103/118/1 102/120/1 107/119/1
f 104/113/1 108/117/1 107/119/1
f 104/113/1 107/119/1 101/106/1
f 98/106/49 105/110/49 106/121/49
f 98/106/49 106/121/49 99/113/49
f 103/122/1 106/123/1 102/124/1
f 106/123/1 105/125/1 102/124/1
f 101/106/50 97/126/50 104/113/50
f 97/126/50 100/127/50 104/113/50
f 98/106/51 102/109/51 103/128/51
f 98/106/51 103/128/51 99/113/51
f 97/106/42 98/126/42 100/113/42
f 98/126/42 99/127/42 100/113/42
v 9.000000 -1.000000 10.000000
v 9.000000 -1.000000 8.000000
v 11.000000 -1.000000 8.000000
v 10.999999 -1.000000 10.000000
v 8.999999 1.000000 10.000000
v 8.000000 1.000000 6.000000
v 12.000000 1.000000 6.000000
v 10.999999 1.000000 10.000000
v 9.200000 1.000000 4.000000
v 10.800000 1.000000 4.000001
v 9.000000 1.000000 8.000000
v 11.000000 1.000000 8.000001
vt 0.000000 0.000000
vt 0.100000 -2.000000
vt -0.500000 -1.000000
vt 0.500000 -1.000000
vt -0.100000 -2.000000
vt -1.000000 1.000000
vt -2.000000 1.000000
vt -1.000000 0.000000
vt 0.000000 1.000000
vt 1.000000 0.000000
vt 1.000000 1.000000
vt -1.250000 -1.000000
vt -1.500000 -2.000000
vt 0.250000 -1.000000
vt 0.500000 -2.000000
vt -0.900000 -2.000000
vt 0.500000 0.000000
vt 1.100000 -1.000000
vt 2.500000 -0.000000
vt 1.900000 -1.000000
vt 0.000000 -1.000000
vt -1.000000 -1.000000
vt -1.500000 -1.000000
g Cube.002_Cube.002_Material_brick005.jpg.001
usemtl Material_brick005.jpg.001
s off
f 111/129/43 118/130/43 115/131/43
f 110/129/44 114/132/44 117/133/44
f 119/134/45 114/135/45 110/136/45
f 115/134/46 120/137/46 111/129/46
f 111/129/47 120/137/47 112/138/47
f 120/137/47 116/139/47 112/138/47
f 109/129/48 113/137/48 119/139/48
f 109/129/48 119/139/48 110/138/48
f 120/140/1 115/141/1 119/142/1
f 115/141/1 114/143/1 119/142/1
f 116/136/1 120/140/1 119/142/1
f 116/136/1 119/142/1 113/129/1
f 110/129/49 117/133/49 118/144/49
f 110/129/49 118/144/49 111/136/49
f 115/145/1 118/146/1 114/147/1
f 118/146/1 117/148/1 114/147/1
f 113/129/50 109/149/50 116/136/50
f 109/149/50 112/150/50 116/136/50
f 110/129/51 114/132/51 115/151/51
f 110/129/51 115/151/51 111/136/51
f 109/129/42 110/149/42 112/136/42
f 110/149/42 111/150/42 112/136/42
v 11.000000 -1.000000 -10.000000
v 11.000000 -1.000000 -8.000000
v 9.000000 -1.000000 -8.000000
v 9.000001 -1.000000 -10.000000
v 11.000001 1.000000 -10.000000
v 12.000000 1.000000 -5.999999
v 8.000000 1.000000 -6.000001
v 9.000001 1.000000 -10.000000
v 10.800000 1.000000 -4.000000
v 9.200000 1.000000 -4.000001
v 11.000000 1.000000 -8.000000
v 9.000000 1.000000 -8.000001
vt 0.000000 0.000000
vt 0.100000 -2.000000
vt -0.500000 -1.000000
vt 0.500000 -1.000000
vt -0.100000 -2.000000
vt -1.000000 1.000000
vt -2.000000 1.000000
vt -1.000000 0.000000
vt 0.000000 1.000000
vt 1.000000 0.000000
vt 1.000000 1.000000
vt -1.250000 -1.000000
vt -1.500000 -2.000000
vt 0.250000 -1.000000
vt 0.500000 -2.000000
vt -0.900000 -2.000000
vt 0.500000 0.000000
vt 1.100000 -1.000000
vt 2.500000 -0.000000
vt 1.900000 -1.000000
vt 0.000000 -1.000000
vt -1.000000 -1.000000
vt -1.500000 -1.000000
vn -0.623783 -0.686161 0.374270
vn 0.623783 -0.686161 0.374270
vn 0.894427 0.000000 -0.447213
vn -0.894427 -0.000000 -0.447214
vn -0.000000 -0.894427 0.447214
vn 0.000000 0.000000 -1.000000
vn -0.000000 -0.707107 0.707107
g Cube.001_Cube.001_Material_brick005.jpg.001
usemtl Material_brick005.jpg.001
s off
f 123/152/53 130/153/53 127/154/53
f 122/152/54 126/155/54 129/156/54
f 131/157/55 126/158/55 122/159/55
f 127/157/56 132/160/56 123/152/56
f 123/152/48 132/160/48 124/161/48
f 132/160/48 128/162/48 124/161/48
f 121/152/47 125/160/47 131/162/47
f 121/152/47 131/162/47 122/161/47
f 132/163/1 127/164/1 131/165/1
f 127/164/1 126/166/1 131/165/1
f 128/159/1 132/163/1 131/165/1
f 128/159/1 131/165/1 125/152/1
f 122/152/57 129/156/57 130/167/57
f 122/152/57 130/167/57 123/159/57
f 127/168/1 130/169/1 126/170/1
f 130/169/1 129/171/1 126/170/1
f 125/152/58 121/172/58 128/159/58
f 121/172/58 124/173/58 128/159/58
f 122/152/59 126/155/59 127/174/59
f 122/152/59 127/174/59 123/159/59
f 121/152/42 122/172/42 124/159/42
f 122/172/42 123/173/42 124/159/42
v 1.000000 -1.000000 -10.000000
v 1.000000 -1.000000 -8.000000
v -1.000000 -1.000000 -8.000000
v -0.999999 -1.000000 -10.000000
v 1.000001 1.000000 -10.000000
v 2.000000 1.000000 -5.999999
v -2.000000 1.000000 -6.000001
v -0.999999 1.000000 -10.000000
v 0.800000 1.000000 -4.000000
v -0.800000 1.000000 -4.000001
v 1.000000 1.000000 -8.000000
v -1.000000 1.000000 -8.000001
vt 0.000000 0.000000
vt 0.100000 -2.000000
vt -0.500000 -1.000000
vt 0.500000 -1.000000
vt -0.100000 -2.000000
vt -1.000000 1.000000
vt -2.000000 1.000000
vt -1.000000 0.000000
vt 0.000000 1.000000
vt 1.000000 0.000000
vt 1.000000 1.000000
vt -1.250000 -1.000000
vt -1.500000 -2.000000
vt 0.250000 -1.000000
vt 0.500000 -2.000000
vt -0.900000 -2.000000
vt 0.500000 0.000000
vt 1.100000 -1.000000
vt 2.500000 -0.000000
vt 1.900000 -1.000000
vt 0.000000 -1.000000
vt -1.000000 -1.000000
vt -1.500000 -1.000000
g Cube_Cube_Material_brick005.jpg.001
usemtl Material_brick005.jpg.001
s off
f 135/175/53 142/176/53 139/177/53
f 134/175/54 138/178/54 141/179/54
f 143/180/55 138/181/55 134/182/55
f 139/180/56 144/183/56 135/175/56
f 135/175/48 144/183/48 136/184/48
f 144/183/48 140/185/48 136/184/48
f 133/175/47 137/183/47 143/185/47
f 133/175/47 143/185/47 134/184/47
f 144/186/1 139/187/1 143/188/1
f 139/187/1 138/189/1 143/188/1
f 140/182/1 144/186/1 143/188/1
f 140/182/1 143/188/1 137/175/1
f 134/175/57 141/179/57 142/190/57
f 134/175/57 142/190/57 135/182/57
f 139/191/1 142/192/1 138/193/1
f 142/192/1 141/194/1 138/193/1
f 137/175/58 133/195/58 140/182/58
f 133/195/58 136/196/58 140/182/58
f 134/175/59 138/178/59 139/197/59
f 134/175/59 139/197/59 135/182/59
f 133/175/42 134/195/42 136/182/42
f 134/195/42 135/196/42 136/182/42
v -9.000000 -1.000000 -10.000000
v -9.000000 -1.000000 -8.000000
v -11.000000 -1.000000 -8.000000
v -10.999999 -1.000000 -10.000000
v -8.999999 1.000000 -10.000000
v -8.000000 1.000000 -5.999999
v -12.000000 1.000000 -6.000001
v -10.999999 1.000000 -10.000000
v -9.200000 1.000000 -4.000000
v -10.800000 1.000000 -4.000001
v -9.000000 1.000000 -8.000000
v -11.000000 1.000000 -8.000001
vt 0.000000 0.000000
vt 0.100000 -2.000000
vt -0.500000 -1.000000
vt 0.500000 -1.000000
vt -0.100000 -2.000000
vt -1.000000 1.000000
vt -2.000000 1.000000
vt -1.000000 0.000000
vt 0.000000 1.000000
vt 1.000000 0.000000
vt 1.000000 1.000000
vt -1.250000 -1.000000
vt -1.500000 -2.000000
vt 0.250000 -1.000000
vt 0.500000 -2.000000
vt -0.900000 -2.000000
vt 0.500000 0.000000
vt 1.100000 -1.000000
vt 2.500000 -0.000000
vt 1.900000 -1.000000
vt 0.000000 -1.000000
vt -1.000000 -1.000000
vt -1.500000 -1.000000
g Cube.005_Cube.007_Material_brick005.jpg.001
usemtl Material_brick005.jpg.001
s off
f 147/198/53 154/199/53 151/200/53
f 146/198/54 150/201/54 153/202/54
f 155/203/55 150/204/55 146/205/55
f 151/203/56 156/206/56 147/198/56
f 147/198/48 156/206/48 148/207/48
f 156/206/48 152/208/48 148/207/48
f 145/198/47 149/206/47 155/208/47
f 145/198/47 155/208/47 146/207/47
f 156/209/1 151/210/1 155/211/1
f 151/210/1 150/212/1 155/211/1
f 152/205/1 156/209/1 155/211/1
f 152/205/1 155/211/1 149/198/1
f 146/198/57 153/202/57 154/213/57
f 146/198/57 154/213/57 147/205/57
f 151/214/1 154/215/1 150/216/1
f 154/215/1 153/217/1 150/216/1
f 149/198/58 145/218/58 152/205/58
f 145/218/58 148/219/58 152/205/58
f 146/198/59 150/201/59 151/220/59
f 146/198/59 151/220/59 147/205/59
f 145/198/42 146/218/42 148/205/42
f 146/218/42 147/219/42 148/205/42
