# Blender3D v249 OBJ File: ramp.blend
# www.blender3d.org
mtllib ramp.mtl
v 20.000000 0.119999 -15.999999
v 20.000000 0.120001 16.000000
v -20.000002 0.120001 15.999997
v -19.999994 0.119999 -16.000006
v 20.000008 9.942970 -15.999991
v 19.999989 9.942971 16.000010
v -20.000006 9.942971 15.999994
v -20.000000 9.942970 -16.000000
v 16.000000 0.120001 16.000000
v 12.000000 0.120001 15.999999
v 7.999999 0.120001 15.999999
v -0.000001 0.120001 15.999998
v -8.000001 0.120001 15.999998
v -12.000002 0.120001 15.999998
v -16.000002 0.120001 15.999997
v 16.000000 0.119999 -16.000000
v 12.000002 0.119999 -16.000000
v 8.000002 0.119999 -16.000002
v 0.000003 0.119999 -16.000002
v -7.999996 0.119999 -16.000004
v -11.999996 0.119999 -16.000004
v -15.999995 0.119999 -16.000006
v 15.999990 7.942971 16.000008
v 11.999990 3.515406 16.000006
v 7.999991 3.028757 16.000004
v -0.000008 1.080001 16.000002
v -8.000008 3.028757 16.000000
v -12.000007 3.515406 15.999998
v -16.000008 7.942971 15.999996
v 16.000008 7.942969 -15.999992
v 12.000006 3.515405 -15.999993
v 8.000006 3.028756 -15.999994
v 0.000004 1.079999 -15.999996
v -7.999997 3.028756 -15.999997
v -11.999997 3.515405 -15.999998
v -15.999998 7.942969 -15.999999
v -23.999994 0.119999 -16.000006
v -24.000000 9.942970 -16.000000
v -24.000002 0.120001 15.999996
v -24.000006 9.942971 15.999993
v 24.000000 0.119999 -15.999998
v 24.000008 9.942970 -15.999990
v 24.000000 0.120001 16.000002
v 23.999989 9.942971 16.000011
vt 0.000000 -0.500000
vt 1.000000 -0.500000
vt 1.000000 1.500000
vt 0.000000 1.500000
vt -1.500000 0.000000
vt 2.500000 0.000000
vt 2.500000 1.000000
vt -1.500000 1.000000
vt 2.099999 -1.500000
vt 2.499999 -1.500000
vt 2.100000 2.028301
vt 2.500000 2.499999
vt 1.700000 -1.500000
vt 1.700000 1.084905
vt 1.300000 -1.500000
vt 1.300000 -0.330189
vt 0.500000 -1.500000
vt 0.500000 -1.273584
vt -0.300000 -1.499999
vt -0.300000 -0.330188
vt -0.700000 -1.499999
vt -0.700000 1.084906
vt -1.099999 -1.499999
vt -1.100000 2.028302
vt -1.499999 -1.499999
vt -1.500000 2.500000
vt -1.500000 -1.499999
vt -1.100000 -1.499999
vt -0.300001 -0.330188
vt 0.499999 -1.273584
vt 1.299999 -0.330189
vt 1.699999 1.084905
vt 2.099999 2.028301
vt 2.100000 -1.500000
vt 2.499999 2.499999
vt 2.500000 -1.500000
vt -0.300000 1.500000
vt -0.500000 1.500000
vt -0.500000 -0.500000
vt -0.300000 -0.500000
vt -0.100000 1.500000
vt -0.100000 -0.500000
vt 0.100000 1.500000
vt 0.100000 -0.500000
vt 0.500000 1.500000
vt 0.500000 -0.500000
vt 0.900000 1.500000
vt 0.900000 -0.500000
vt 1.100000 1.500000
vt 1.100000 -0.500000
vt 1.300000 1.500000
vt 1.300000 -0.500000
vt 1.500000 -0.500000
vt 1.500000 1.500000
vt -2.121742 3.121052
vt -2.904984 3.222394
vt -2.904985 -2.224573
vt -2.121743 -2.121925
vt -1.328694 2.939556
vt -1.328695 -1.938088
vt -0.602741 2.710248
vt -0.602743 -1.705824
vt 0.501762 2.580056
vt 0.501760 -1.573954
vt 1.605295 2.710248
vt 1.605294 -1.705825
vt 2.329540 2.939555
vt 2.329537 -1.938090
vt 3.121238 3.121051
vt 3.121235 -2.121927
vt 3.903726 3.222393
vt 3.903722 -2.224575
vn 1.000000 -0.000001 0.000001
vn 1.000000 0.000001 -0.000000
vn -0.000000 -1.000000 0.000000
vn 0.000000 1.000000 -0.000000
vn -0.000000 -0.000001 1.000000
vn 0.000000 0.000001 -1.000000
vn -1.000000 -0.000000 -0.000000
vn -1.000000 -0.000001 -0.000000
vn -0.000000 0.000000 1.000000
vn 0.000001 0.000001 -1.000000
vn 0.000000 0.000002 -1.000000
vn 0.000000 0.000006 -1.000000
vn 0.000001 0.000002 -1.000000
vn -0.000000 0.000003 -1.000000
vn -0.000001 0.000001 -1.000000
vn 0.000000 -0.000004 1.000000
vn 0.000000 -0.000002 1.000000
vn 0.000001 -0.000001 1.000000
vn 0.465529 0.613605 -0.637745
vn 0.179205 0.759178 -0.625690
vn 0.180181 0.763329 0.620350
vn 0.466567 0.612842 0.637745
vn 0.371380 0.713370 -0.594256
vn 0.369335 0.714408 0.594256
vn 0.130375 0.717826 -0.683859
vn 0.130833 0.717765 0.683859
vn 0.000793 0.781274 -0.624165
vn -0.000793 0.781274 0.624165
vn -0.130833 0.717765 -0.683859
vn -0.130375 0.717826 0.683859
vn -0.369335 0.714408 -0.594256
vn -0.371380 0.713370 0.594256
vn -0.466567 0.612842 -0.637745
vn -0.465529 0.613605 0.637745
vn -0.180181 0.763329 -0.620350
vn -0.179205 0.759178 0.625690
g Cube_Cube.001_Material_Miniroom_floor01.jpg
usemtl Material_Miniroom_floor01.jpg
s off
f 41/1/1 42/2/1 44/3/1
f 41/1/2 44/3/2 43/4/2
f 2/5/3 1/6/3 41/7/3
f 2/5/3 41/7/3 43/8/3
f 5/5/4 6/6/4 44/7/4
f 5/5/4 44/7/4 42/8/4
f 6/1/5 2/2/5 43/3/5
f 6/1/5 43/3/5 44/4/5
f 1/1/6 5/2/6 42/3/6
f 1/1/6 42/3/6 41/4/6
f 39/1/7 40/2/7 38/3/7
f 39/1/8 38/3/8 37/4/8
f 4/5/3 3/6/3 39/7/3
f 4/5/3 39/7/3 37/8/3
f 7/5/4 8/6/4 38/7/4
f 7/5/4 38/7/4 40/8/4
f 3/1/9 7/2/9 40/3/9
f 3/1/9 40/3/9 39/4/9
f 8/1/6 4/2/6 37/3/6
f 8/1/6 37/3/6 38/4/6
f 22/9/6 4/10/6 36/11/6
f 4/10/10 8/12/10 36/11/10
f 21/13/11 22/9/11 35/14/11
f 22/9/10 36/11/10 35/14/10
f 20/15/11 21/13/11 34/16/11
f 21/13/11 35/14/11 34/16/11
f 19/17/12 20/15/12 33/18/12
f 20/15/13 34/16/13 33/18/13
f 18/19/12 19/17/12 33/18/12
f 18/19/14 33/18/14 32/20/14
f 17/21/14 18/19/14 32/20/14
f 17/21/11 32/20/11 31/22/11
f 16/23/11 17/21/11 31/22/11
f 16/23/15 31/22/15 30/24/15
f 1/25/6 16/23/6 30/24/6
f 1/25/6 30/24/6 5/26/6
f 29/24/9 7/26/9 3/27/9
f 29/24/9 3/27/9 15/28/9
f 28/22/9 29/24/9 15/28/9
f 28/22/9 15/28/9 14/21/9
f 27/29/9 28/22/9 14/21/9
f 27/29/5 14/21/5 13/19/5
f 26/30/5 27/29/5 13/19/5
f 26/30/16 13/19/16 12/17/16
f 25/31/17 26/30/17 11/15/17
f 26/30/16 12/17/16 11/15/16
f 24/32/17 25/31/17 10/13/17
f 25/31/17 11/15/17 10/13/17
f 23/33/18 24/32/18 9/34/18
f 24/32/17 10/13/17 9/34/17
f 6/35/5 23/33/5 2/36/5
f 23/33/5 9/34/5 2/36/5
f 15/37/3 3/38/3 4/39/3
f 15/37/3 4/39/3 22/40/3
f 14/41/3 15/37/3 21/42/3
f 15/37/3 22/40/3 21/42/3
f 13/43/3 14/41/3 21/42/3
f 13/43/3 21/42/3 20/44/3
f 12/45/3 13/43/3 20/44/3
f 12/45/3 20/44/3 19/46/3
f 11/47/3 12/45/3 19/46/3
f 11/47/3 19/46/3 18/48/3
f 10/49/3 11/47/3 18/48/3
f 10/49/3 18/48/3 17/50/3
f 9/51/3 10/49/3 17/50/3
f 9/51/3 17/50/3 16/52/3
f 16/52/3 1/53/3 2/54/3
f 16/52/3 2/54/3 9/51/3
s 1
f 36/55/19 8/56/20 7/57/21
f 36/55/19 7/57/21 29/58/22
f 35/59/23 36/55/19 29/58/22
f 35/59/23 29/58/22 28/60/24
f 34/61/25 35/59/23 28/60/24
f 34/61/25 28/60/24 27/62/26
f 33/63/27 34/61/25 27/62/26
f 33/63/27 27/62/26 26/64/28
f 32/65/29 33/63/27 26/64/28
f 32/65/29 26/64/28 25/66/30
f 31/67/31 32/65/29 25/66/30
f 31/67/31 25/66/30 24/68/32
f 30/69/33 31/67/31 24/68/32
f 30/69/33 24/68/32 23/70/34
f 5/71/35 30/69/33 23/70/34
f 5/71/35 23/70/34 6/72/36
