# Blender3D v249 OBJ File: ramp.blend
# www.blender3d.org
mtllib ramp.mtl
v 20.000000 0.119999 -15.999999
v 20.000000 0.120001 16.000000
v -20.000002 0.120001 15.999997
v -19.999994 0.119999 -16.000006
v 20.000008 9.942970 -15.999991
v 19.999989 9.942971 16.000010
v -20.000006 9.942971 15.999994
v -20.000000 9.942970 -16.000000
v 16.000000 0.120001 16.000000
v 12.000000 0.120001 15.999999
v 7.999999 0.120001 15.999999
v -0.000001 0.120001 15.999998
v -8.000001 0.120001 15.999998
v -12.000002 0.120001 15.999998
v -16.000002 0.120001 15.999997
v 16.000000 0.119999 -16.000000
v 12.000002 0.119999 -16.000000
v 8.000002 0.119999 -16.000002
v 0.000003 0.119999 -16.000002
v -7.999996 0.119999 -16.000004
v -11.999996 0.119999 -16.000004
v -15.999995 0.119999 -16.000006
v 15.999990 7.942971 16.000008
v 11.999990 3.515406 16.000006
v 7.999991 3.028757 16.000004
v -0.000008 1.080001 16.000002
v -8.000008 3.028757 16.000000
v -12.000007 3.515406 15.999998
v -16.000008 7.942971 15.999996
v 16.000008 7.942969 -15.999992
v 12.000006 3.515405 -15.999993
v 8.000006 3.028756 -15.999994
v 0.000004 1.079999 -15.999996
v -7.999997 3.028756 -15.999997
v -11.999997 3.515405 -15.999998
v -15.999998 7.942969 -15.999999
v -23.999994 0.119999 -16.000006
v -24.000000 9.942970 -16.000000
v -24.000002 0.120001 15.999996
v -24.000006 9.942971 15.999993
v 24.000000 0.119999 -15.999998
v 24.000008 9.942970 -15.999990
v 24.000000 0.120001 16.000002
v 23.999989 9.942971 16.000011
vt 0.000000 -0.500000
vt 1.000000 -0.500000
vt 1.000000 1.500000
vt 0.000000 1.500000
vt -1.500000 0.000000
vt 2.500000 0.000000
vt 2.500000 1.000000
vt -1.500000 1.000000
vt -1.268142 0.989813
vt -1.268143 0.121392
vt -1.621772 0.121392
vt -1.621771 0.989813
vt -1.268144 0.989813
vt -1.621773 0.989813
vt 2.268144 0.121392
vt 2.268144 0.989813
vt 2.621772 0.989813
vt 2.621772 0.121392
vt 2.268143 0.989813
vt 2.268143 0.121392
vt 2.621771 0.121392
vt 1.914514 0.121392
vt 1.914514 0.812998
vt 1.560885 0.121392
vt 1.560886 0.421570
vt 1.207257 0.121392
vt 1.207257 0.378547
vt 0.500000 0.121392
vt 0.500000 0.206263
vt -0.207257 0.121392
vt -0.207258 0.378547
vt -0.560886 0.121392
vt -0.560886 0.421570
vt -0.914515 0.121392
vt -0.914515 0.812998
vt 1.914515 0.812998
vt 1.914515 0.121392
vt 1.560886 0.121392
vt 1.207258 0.378547
vt 0.500001 0.206263
vt -0.207257 0.378547
vt -0.560885 0.421570
vt -0.914514 0.812998
vt -0.300000 1.500000
vt -0.500000 1.500000
vt -0.500000 -0.500000
vt -0.300000 -0.500000
vt -0.100000 1.500000
vt -0.100000 -0.500000
vt 0.100000 1.500000
vt 0.100000 -0.500000
vt 0.500000 1.500000
vt 0.500000 -0.500000
vt 0.900000 1.500000
vt 0.900000 -0.500000
vt 1.100000 1.500000
vt 1.100000 -0.500000
vt 1.300000 1.500000
vt 1.300000 -0.500000
vt 1.500000 -0.500000
vt 1.500000 1.500000
vt -2.121742 3.121052
vt -2.904984 3.222394
vt -2.904985 -2.224573
vt -2.121743 -2.121925
vt -1.328694 2.939556
vt -1.328695 -1.938088
vt -0.602741 2.710248
vt -0.602743 -1.705824
vt 0.501762 2.580056
vt 0.501760 -1.573954
vt 1.605295 2.710248
vt 1.605294 -1.705825
vt 2.329540 2.939555
vt 2.329537 -1.938090
vt 3.121238 3.121051
vt 3.121235 -2.121927
vt 3.903726 3.222393
vt 3.903722 -2.224575
vn 1.000000 -0.000001 0.000001
vn 1.000000 0.000001 -0.000000
vn -0.000000 -1.000000 0.000000
vn 0.000000 1.000000 -0.000000
vn -0.000000 -0.000001 1.000000
vn 0.000000 0.000001 -1.000000
vn -1.000000 -0.000000 -0.000000
vn -1.000000 -0.000001 -0.000000
vn -0.000000 0.000000 1.000000
vn 0.000001 0.000001 -1.000000
vn 0.000000 0.000002 -1.000000
vn 0.000000 0.000006 -1.000000
vn 0.000001 0.000002 -1.000000
vn -0.000000 0.000003 -1.000000
vn -0.000001 0.000001 -1.000000
vn 0.000000 -0.000004 1.000000
vn 0.000000 -0.000002 1.000000
vn 0.000001 -0.000001 1.000000
vn 0.465529 0.613605 -0.637745
vn 0.179205 0.759178 -0.625690
vn 0.180181 0.763329 0.620350
vn 0.466567 0.612842 0.637745
vn 0.371380 0.713370 -0.594256
vn 0.369335 0.714408 0.594256
vn 0.130375 0.717826 -0.683859
vn 0.130833 0.717765 0.683859
vn 0.000793 0.781274 -0.624165
vn -0.000793 0.781274 0.624165
vn -0.130833 0.717765 -0.683859
vn -0.130375 0.717826 0.683859
vn -0.369335 0.714408 -0.594256
vn -0.371380 0.713370 0.594256
vn -0.466567 0.612842 -0.637745
vn -0.465529 0.613605 0.637745
vn -0.180181 0.763329 -0.620350
vn -0.179205 0.759178 0.625690
g Cube_Cube.001_Material_metal065.jpg
usemtl Material_metal065.jpg
s off
f 41/1/1 42/2/1 44/3/1
f 41/1/2 44/3/2 43/4/2
f 2/5/3 1/6/3 41/7/3
f 2/5/3 41/7/3 43/8/3
f 5/5/4 6/6/4 44/7/4
f 5/5/4 44/7/4 42/8/4
f 6/9/5 2/10/5 43/11/5
f 6/9/5 43/11/5 44/12/5
f 1/10/6 5/13/6 42/14/6
f 1/10/6 42/14/6 41/11/6
f 39/1/7 40/2/7 38/3/7
f 39/1/8 38/3/8 37/4/8
f 4/5/3 3/6/3 39/7/3
f 4/5/3 39/7/3 37/8/3
f 7/5/4 8/6/4 38/7/4
f 7/5/4 38/7/4 40/8/4
f 3/15/9 7/16/9 40/17/9
f 3/15/9 40/17/9 39/18/9
f 8/19/6 4/20/6 37/21/6
f 8/19/6 37/21/6 38/17/6
f 22/22/6 4/20/6 36/23/6
f 4/20/10 8/19/10 36/23/10
f 21/24/11 22/22/11 35/25/11
f 22/22/10 36/23/10 35/25/10
f 20/26/11 21/24/11 34/27/11
f 21/24/11 35/25/11 34/27/11
f 19/28/12 20/26/12 33/29/12
f 20/26/13 34/27/13 33/29/13
f 18/30/12 19/28/12 33/29/12
f 18/30/14 33/29/14 32/31/14
f 17/32/14 18/30/14 32/31/14
f 17/32/11 32/31/11 31/33/11
f 16/34/11 17/32/11 31/33/11
f 16/34/15 31/33/15 30/35/15
f 1/10/6 16/34/6 30/35/6
f 1/10/6 30/35/6 5/13/6
f 29/36/9 7/16/9 3/15/9
f 29/36/9 3/15/9 15/37/9
f 28/25/9 29/36/9 15/37/9
f 28/25/9 15/37/9 14/38/9
f 27/39/9 28/25/9 14/38/9
f 27/39/5 14/38/5 13/26/5
f 26/40/5 27/39/5 13/26/5
f 26/40/16 13/26/16 12/28/16
f 25/41/17 26/40/17 11/30/17
f 26/40/16 12/28/16 11/30/16
f 24/42/17 25/41/17 10/32/17
f 25/41/17 11/30/17 10/32/17
f 23/43/18 24/42/18 9/34/18
f 24/42/17 10/32/17 9/34/17
f 6/9/5 23/43/5 2/10/5
f 23/43/5 9/34/5 2/10/5
f 15/44/3 3/45/3 4/46/3
f 15/44/3 4/46/3 22/47/3
f 14/48/3 15/44/3 21/49/3
f 15/44/3 22/47/3 21/49/3
f 13/50/3 14/48/3 21/49/3
f 13/50/3 21/49/3 20/51/3
f 12/52/3 13/50/3 20/51/3
f 12/52/3 20/51/3 19/53/3
f 11/54/3 12/52/3 19/53/3
f 11/54/3 19/53/3 18/55/3
f 10/56/3 11/54/3 18/55/3
f 10/56/3 18/55/3 17/57/3
f 9/58/3 10/56/3 17/57/3
f 9/58/3 17/57/3 16/59/3
f 16/59/3 1/60/3 2/61/3
f 16/59/3 2/61/3 9/58/3
s 1
f 36/62/19 8/63/20 7/64/21
f 36/62/19 7/64/21 29/65/22
f 35/66/23 36/62/19 29/65/22
f 35/66/23 29/65/22 28/67/24
f 34/68/25 35/66/23 28/67/24
f 34/68/25 28/67/24 27/69/26
f 33/70/27 34/68/25 27/69/26
f 33/70/27 27/69/26 26/71/28
f 32/72/29 33/70/27 26/71/28
f 32/72/29 26/71/28 25/73/30
f 31/74/31 32/72/29 25/73/30
f 31/74/31 25/73/30 24/75/32
f 30/76/33 31/74/31 24/75/32
f 30/76/33 24/75/32 23/77/34
f 5/78/35 30/76/33 23/77/34
f 5/78/35 23/77/34 6/79/36
