# Blender3D v249 OBJ File: tris.blend
# www.blender3d.org
mtllib tris.mtl
v 4.000000 0.000000 2.000000
v 4.000000 0.000000 10.000000
v -4.000000 0.000000 9.999999
v -3.999999 0.000000 1.999999
v 4.000002 3.200000 2.000002
v 3.999997 3.200001 10.000002
v -4.000001 3.200001 9.999998
v -4.000000 3.200000 2.000000
v -0.000000 0.800000 8.000000
v 0.000000 0.800000 4.000000
v -0.000001 2.400000 8.000000
v 0.000000 2.400000 4.000000
v 2.000000 0.800000 6.000000
v -2.000000 0.800000 6.000000
v 2.000000 2.400000 6.000001
v -2.000000 2.400000 6.000000
v 0.000000 0.800000 6.000000
v -0.000000 2.400000 6.000000
vt -0.500000 -0.500000
vt 1.500000 -0.500000
vt 1.500000 1.500000
vt -0.500000 1.500000
vn 0.131024 0.982683 -0.131024
vn 0.000000 1.000000 0.000000
vn 0.131024 0.982683 0.131024
vn -0.131024 0.982683 -0.131024
vn -0.131024 0.982683 0.131024
vn 0.131024 -0.982683 0.131024
vn 0.000000 -1.000000 0.000000
vn 0.131024 -0.982683 -0.131024
vn -0.131024 -0.982683 0.131024
vn -0.131024 -0.982683 -0.131024
vn -0.894427 -0.000000 0.447214
vn -0.894427 -0.000001 0.447213
vn -0.894427 -0.000000 -0.447214
vn 0.894427 0.000001 -0.447213
vn 0.894427 0.000000 -0.447214
vn 0.894427 -0.000001 0.447214
vn 0.894427 -0.000000 0.447214
vn 0.447214 0.000001 -0.894427
vn 0.447214 0.000000 -0.894427
vn -0.447213 0.000000 -0.894427
vn -0.447213 0.000001 -0.894427
vn 0.447213 0.000000 0.894427
vn 0.447214 -0.000000 0.894427
vn -0.447214 -0.000001 0.894427
g Cube.001_Cube.001_None_metal001.jpg
usemtl None_metal001.jpg
s off
f 16/1/1 7/2/1 11/3/1
f 16/1/2 11/3/2 18/4/2
f 8/1/3 16/2/3 12/4/3
f 16/2/2 18/3/2 12/4/2
f 18/1/2 11/2/2 15/4/2
f 11/2/4 6/3/4 15/4/4
f 12/1/2 18/2/2 15/3/2
f 12/1/5 15/3/5 5/4/5
f 14/1/6 4/2/6 10/3/6
f 14/1/7 10/3/7 17/4/7
f 3/1/8 14/2/8 9/4/8
f 14/2/7 17/3/7 9/4/7
f 1/1/9 13/2/9 10/4/9
f 13/2/7 17/3/7 10/4/7
f 9/1/7 17/2/7 13/3/7
f 9/1/10 13/3/10 2/4/10
f 16/1/11 8/2/11 14/4/11
f 8/2/12 4/3/12 14/4/12
f 7/1/13 16/2/13 14/3/13
f 7/1/13 14/3/13 3/4/13
f 15/1/14 6/2/14 2/3/14
f 15/1/15 2/3/15 13/4/15
f 13/1/16 1/2/16 5/3/16
f 13/1/17 5/3/17 15/4/17
f 10/1/18 4/2/18 8/3/18
f 10/1/19 8/3/19 12/4/19
f 1/1/20 10/2/20 12/3/20
f 1/1/21 12/3/21 5/4/21
f 11/1/22 7/2/22 3/3/22
f 11/1/23 3/3/23 9/4/23
f 6/1/24 11/2/24 9/3/24
f 6/1/24 9/3/24 2/4/24
v -20.164677 -0.166833 15.223225
v -20.164679 1.666834 15.223219
v -1.301589 1.779310 -16.215254
v -1.301578 -0.279312 -16.215254
v 20.164667 1.666834 15.223235
v 20.164667 -0.166833 15.223226
v 1.301589 -0.279312 -16.215254
v 1.301577 1.779310 -16.215254
v 18.936428 -0.159999 17.392530
v 18.936426 1.660001 17.392538
v -18.936440 1.660001 17.392525
v -18.936438 -0.159999 17.392529
v 17.084467 0.700710 14.958216
v -0.000007 0.802581 -13.515914
v -17.084480 0.700710 14.958201
v 17.084469 -0.200709 14.958207
v -17.084478 -0.200709 14.958207
v 0.000006 -0.302582 -13.515914
v -0.000006 0.700710 14.958209
v 8.542230 0.751645 0.721151
v -8.542244 0.751645 0.721144
vt -1.194495 -1.210265
vt 0.500001 2.178724
vt 2.194496 -1.210266
vt 2.500000 -1.241808
vt 2.378179 -1.499999
vt -1.500000 -1.241808
vt -1.378179 -1.499998
vt 0.370906 2.500000
vt 0.629097 2.500000
vt 2.500000 -1.241809
vt 2.194495 -1.210267
vt 2.378179 -1.500000
vt -1.500000 -1.241807
vt -1.194496 -1.210265
vt 0.370905 2.500000
vt 0.500000 2.178724
vt 0.629096 2.500000
vt 1.347248 0.484229
vt -0.347248 0.484230
vt 0.500000 -1.210266
vt -1.318908 0.602433
vt -1.208117 0.601816
vt -1.208117 0.437647
vt -1.318908 0.437031
vt 0.617406 0.612578
vt 0.382594 0.612578
vt 0.382593 0.426885
vt 0.617405 0.426885
vt 2.318908 0.437031
vt 2.208117 0.437647
vt 2.318908 0.602433
vt 2.208117 0.601816
vn 0.000000 -0.999994 0.003578
vn 0.010228 -0.999908 0.008941
vn -0.010228 -0.999908 0.008941
vn 0.000000 -0.999963 -0.008620
vn -0.283199 0.946063 -0.157365
vn 0.283199 0.946063 -0.157365
vn 0.000000 0.940335 0.340251
vn -0.000000 0.999994 0.003578
vn 0.308645 0.932308 0.188522
vn -0.308645 0.932308 0.188522
vn 0.000000 0.930367 -0.366629
vn -0.000000 -0.999860 0.016721
vn 0.011271 -0.999931 -0.003185
vn 0.870200 -0.000001 0.492700
vn 0.870200 -0.000003 0.492699
vn 0.000000 0.000000 -1.000000
vn -0.011271 -0.999931 -0.003185
vn -0.870200 0.000001 0.492699
vn -0.870200 0.000000 0.492698
vn -0.000000 0.000002 1.000000
vn -0.000000 -0.000004 1.000000
vn 0.857493 0.000005 -0.514496
vn 0.857493 0.000003 -0.514496
vn -0.857493 -0.000002 -0.514496
vn -0.857493 -0.000005 -0.514496
g Cube_Cube.002_None_metal001.jpg
usemtl None_metal001.jpg
s off
f 35/5/25 36/6/25 34/7/25
f 24/8/26 27/9/26 34/7/26
f 19/10/27 35/5/27 30/11/27
f 22/12/28 25/13/28 36/6/28
f 23/14/29 31/15/29 28/16/29
f 20/17/30 29/11/30 33/18/30
f 21/19/31 32/20/31 26/21/31
f 38/22/32 32/20/32 39/23/32
f 39/23/32 37/24/32 38/22/32
f 31/15/32 38/22/32 37/24/32
f 37/24/32 39/23/32 33/18/32
f 39/23/33 21/19/33 20/17/33
f 33/18/33 39/23/33 20/17/33
f 39/23/33 32/20/33 21/19/33
f 38/22/34 23/14/34 26/21/34
f 32/20/34 38/22/34 26/21/34
f 38/22/34 31/15/34 23/14/34
f 37/24/35 29/11/35 28/16/35
f 31/15/35 37/24/35 28/16/35
f 37/24/35 33/18/35 29/11/35
f 30/11/36 35/5/36 27/9/36
f 35/5/36 34/7/36 27/9/36
f 36/6/37 25/13/37 34/7/37
f 25/13/37 24/8/37 34/7/37
f 23/25/38 28/26/38 27/27/38
f 23/25/39 27/27/39 24/28/39
f 21/29/40 26/30/40 25/31/40
f 21/29/40 25/31/40 22/32/40
f 35/5/41 19/10/41 22/12/41
f 35/5/41 22/12/41 36/6/41
f 19/33/42 30/34/42 20/35/42
f 30/34/43 29/36/43 20/35/43
f 29/36/44 30/34/44 28/26/44
f 30/34/45 27/27/45 28/26/45
f 25/31/46 26/30/46 23/25/46
f 25/31/47 23/25/47 24/28/47
f 19/33/48 20/35/48 21/29/48
f 19/33/49 21/29/49 22/32/49
