# Blender v2.57 (sub 0) OBJ File: 'checkercube.blend'
# www.blender.org
mtllib checkercube.mtl
o Cube
v 0.375000 -0.375000 -0.375000
v 0.375000 -0.375000 0.375000
v -0.375000 -0.375000 0.375000
v -0.375000 -0.375000 -0.375000
v 0.375000 0.375000 -0.375000
v 0.375000 0.375000 0.375000
v -0.375000 0.375000 0.375000
v -0.375000 0.375000 -0.375000
vt 0.000000 0.000000
vt 0.000000 -1.000000
vt -1.000000 -1.000000
vt -1.000000 0.000000
vt 0.000000 1.000000
vt -1.000000 1.000000
vt 1.000000 1.000000
vt 1.000000 0.000000
vn -0.000000 -1.000000 0.000000
vn 0.000000 1.000000 -0.000000
vn 1.000000 0.000000 0.000000
vn -0.000000 -0.000000 1.000000
vn -1.000000 -0.000000 -0.000000
vn 0.000000 0.000000 -1.000000
usemtl Material_floor034.jpg
s off
f 1/1/1 2/2/1 3/3/1
f 1/1/1 3/3/1 4/4/1
f 5/5/2 8/6/2 7/4/2
f 5/5/2 7/4/2 6/1/2
f 1/1/3 5/5/3 6/6/3
f 1/1/3 6/6/3 2/4/3
f 2/1/4 6/5/4 7/6/4
f 2/1/4 7/6/4 3/4/4
f 3/1/5 7/5/5 8/7/5
f 3/1/5 8/7/5 4/8/5
f 5/1/6 1/2/6 4/3/6
f 5/1/6 4/3/6 8/4/6
