# Blender v2.58 (sub 1) OBJ File: 'centerfirst.blend'
# www.blender.org
mtllib object03.mtl
o Cube.004_Cube.007
v -20.000000 -4.000000 2.000000
v -20.000000 -4.000000 -2.000000
v -20.000000 1.000000 2.000000
v -20.000000 1.000000 -2.000000
v -10.000000 1.000000 1.000000
v -10.000000 1.000000 -1.000000
v -13.000000 0.000000 1.500000
v -13.000000 0.000000 -1.500000
v -13.000000 1.000000 1.500000
v -13.000000 1.000000 -1.500000
v -16.000000 0.000000 2.000000
v -16.000000 0.000000 -2.000000
v -16.000000 1.000000 2.000000
v -16.000000 1.000000 -2.000000
v -20.000000 -5.000000 1.000000
v -20.000000 -5.000000 -1.000000
v -20.000000 -4.000000 1.000000
v -20.000000 -4.000000 -1.000000
v 0.000000 0.000000 1.000000
v 0.000000 0.000000 -1.000000
v 0.000000 1.000000 1.000000
v 0.000000 1.000000 -1.000000
v -10.000000 0.000000 1.000000
v -10.000000 0.000000 -1.000000
v -13.000000 -1.000000 1.000000
v -13.000000 -1.000000 -1.000000
v -13.000000 0.000000 1.000000
v -13.000000 0.000000 -1.000000
v -16.000000 -1.000000 1.000000
v -16.000000 -1.000000 -1.000000
v -16.000000 0.000000 1.000000
v -16.000000 0.000000 -1.000000
vt 1.167311 -0.478615
vt 1.168623 -0.050530
vt 1.499617 0.526421
vt 1.492232 0.795770
vt 1.285844 0.724059
vt 1.362025 0.478614
vt 0.248473 0.377814
vt 0.206950 0.120833
vt 0.460818 0.121612
vt 0.417719 0.378334
vt 1.165058 -0.478615
vt 1.050731 -0.248610
vt 1.127400 -0.210501
vt 0.785389 1.435845
vt 0.823281 1.167763
vt 0.899916 1.205939
vt 1.442329 1.050346
vt 1.167145 0.954731
vt 1.500000 1.432938
vt 1.224816 1.337323
vt 0.165426 -0.136148
vt 0.503917 -0.135109
vt 0.166477 -0.478615
vt 0.504968 -0.477578
vt 0.936404 -0.018604
vt 1.013073 0.019504
vt 1.167311 0.478614
vt 0.783968 0.288069
vt 0.937807 0.937858
vt 1.014443 0.976033
vt 0.783968 0.478614
vt 1.167145 0.669492
vt 1.167573 0.392997
vt 0.780810 -0.454114
vt 0.670792 0.394963
vt 0.526339 0.376245
vt 0.636356 -0.472831
vt 0.245847 1.233984
vt 0.415092 1.234504
vt -0.252855 -0.478615
vt -0.459253 0.352309
vt -0.376161 0.372948
vt -0.169762 -0.457975
vt -0.165966 1.286433
vt 0.041154 0.455689
vt 0.124229 0.476401
vt -0.082892 1.307145
vt 0.682426 0.655469
vt 0.537972 0.636752
vt 0.236250 0.120923
vt 0.405496 0.121442
vt -0.438080 0.622225
vt -0.354988 0.642866
vt 0.020216 0.185754
vt 0.103290 0.206466
vt 0.649421 0.910192
vt 0.504968 0.891475
vt 0.783968 1.272958
vt 0.639515 1.254241
vt 0.237038 -0.135928
vt 0.406284 -0.135409
vt 0.186046 -0.478554
vt 0.355291 -0.478036
vt -0.500000 0.871502
vt -0.416908 0.892143
vt -0.250190 1.286432
vt -0.167097 1.307071
vt 0.082352 -0.063469
vt 0.165426 -0.042757
vt -0.167097 -0.478615
vt -0.084023 -0.457903
vt 0.640405 0.012250
vt 0.568178 0.002892
vt 0.545859 0.000000
vt 0.618086 0.009358
vn -1.000000 0.000000 0.000000
vn 0.316228 -0.948683 0.000000
vn 0.000000 1.000000 0.000000
vn 0.164399 0.000000 0.986394
vn 0.164399 0.000000 -0.986394
vn 0.000000 -1.000000 0.000000
vn 0.707107 -0.707107 0.000000
vn -0.000000 0.000000 1.000000
vn -0.000000 0.000000 -1.000000
vn -0.316228 0.948683 0.000000
vn -0.707107 0.707107 0.000000
vn 1.000000 0.000000 0.000000
usemtl None_texture.png
s off
f 1/1/1 3/2/1 4/2/1
f 1/1/1 4/2/1 2/1/1
f 5/3/2 7/4/2 8/5/2
f 5/3/2 8/5/2 6/6/2
f 6/7/3 10/8/3 9/9/3
f 6/7/3 9/9/3 5/10/3
f 5/11/4 9/12/4 7/13/4
f 6/14/5 8/15/5 10/16/5
f 7/4/6 11/17/6 12/18/6
f 7/4/6 12/18/6 8/5/6
f 11/17/7 1/19/7 2/20/7
f 11/17/7 2/20/7 12/18/7
f 10/8/3 14/21/3 13/22/3
f 10/8/3 13/22/3 9/9/3
f 14/21/3 4/23/3 3/24/3
f 14/21/3 3/24/3 13/22/3
f 9/12/4 13/25/4 11/26/4
f 9/12/4 11/26/4 7/13/4
f 1/27/8 11/26/8 13/25/8
f 1/27/8 13/25/8 3/28/8
f 8/15/5 12/29/5 14/30/5
f 8/15/5 14/30/5 10/16/5
f 12/29/9 2/31/9 4/32/9
f 12/29/9 4/32/9 14/30/9
f 15/33/1 17/27/1 18/27/1
f 15/33/1 18/27/1 16/33/1
f 19/34/6 23/35/6 24/36/6
f 19/34/6 24/36/6 20/37/6
f 22/38/3 6/7/3 5/10/3
f 22/38/3 5/10/3 21/39/3
f 21/40/8 5/41/8 23/42/8
f 21/40/8 23/42/8 19/43/8
f 20/44/9 24/45/9 6/46/9
f 20/44/9 6/46/9 22/47/9
f 23/35/2 25/48/2 26/49/2
f 23/35/2 26/49/2 24/36/2
f 6/7/10 28/50/10 27/51/10
f 6/7/10 27/51/10 5/10/10
f 5/41/8 27/52/8 25/53/8
f 5/41/8 25/53/8 23/42/8
f 24/45/9 26/54/9 28/55/9
f 24/45/9 28/55/9 6/46/9
f 25/48/6 29/56/6 30/57/6
f 25/48/6 30/57/6 26/49/6
f 29/56/7 15/58/7 16/59/7
f 29/56/7 16/59/7 30/57/7
f 28/50/3 32/60/3 31/61/3
f 28/50/3 31/61/3 27/51/3
f 32/60/11 18/62/11 17/63/11
f 32/60/11 17/63/11 31/61/11
f 27/52/8 31/64/8 29/65/8
f 27/52/8 29/65/8 25/53/8
f 31/64/8 17/66/8 15/67/8
f 31/64/8 15/67/8 29/65/8
f 26/54/9 30/68/9 32/69/9
f 26/54/9 32/69/9 28/55/9
f 30/68/9 16/70/9 18/71/9
f 30/68/9 18/71/9 32/69/9
f 19/72/12 20/73/12 22/74/12
f 19/72/12 22/74/12 21/75/12
