# Blender v2.58 (sub 1) OBJ File: 'centerfirst.blend'
# www.blender.org
mtllib object01_04.mtl
o Cube.001_Cube.005
v 0.000000 -10.000000 -0.000001
v 5.000000 -10.000000 -0.000001
v -0.000000 -10.000000 4.999999
v -5.000000 -10.000000 -0.000002
v 0.000001 -10.000000 -5.000001
v 5.000000 -10.000000 -5.000000
v 5.000000 -10.000000 5.000000
v -5.000000 -10.000000 4.999998
v -4.999998 -10.000000 -5.000002
v -0.000001 10.000000 0.000002
v 0.000001 10.000000 -4.999998
v -5.000001 10.000000 0.000000
v -0.000003 10.000000 5.000001
v 4.999999 10.000000 0.000004
v 5.000001 10.000000 -4.999996
v -5.000000 10.000000 -5.000000
v -5.000003 10.000000 5.000000
v 4.999996 10.000000 5.000004
v 9.999999 0.000000 0.000003
v 10.000001 0.000000 -4.999997
v 9.999999 5.000000 0.000004
v 9.999998 0.000000 5.000002
v 10.000000 -5.000000 0.000001
v 10.000000 -5.000000 -4.999998
v 10.000001 5.000000 -4.999996
v 9.999996 5.000000 5.000004
v 9.999999 -5.000000 5.000001
v -0.000003 0.000000 9.999999
v 4.999996 0.000000 10.000001
v -0.000004 5.000000 10.000000
v -5.000002 0.000000 9.999999
v -0.000002 -5.000000 9.999999
v 4.999998 -5.000000 10.000000
v 4.999995 5.000000 10.000002
v -5.000004 5.000000 9.999999
v -5.000002 -5.000000 9.999998
v -10.000000 0.000000 -0.000002
v -10.000001 0.000000 4.999998
v -10.000000 5.000000 -0.000002
v -9.999999 0.000000 -5.000002
v -9.999999 -5.000000 -0.000002
v -10.000001 -5.000000 4.999998
v -10.000002 5.000000 4.999998
v -10.000000 5.000000 -5.000002
v -9.999998 -5.000000 -5.000002
v 0.000002 0.000000 -9.999999
v 5.000002 0.000000 -9.999998
v 0.000002 -5.000000 -10.000000
v -4.999998 0.000000 -10.000001
v 0.000002 5.000000 -9.999999
v 5.000003 5.000000 -9.999997
v 5.000001 -5.000000 -9.999999
v -4.999998 -5.000000 -10.000001
v -4.999998 5.000000 -10.000000
v 4.999999 -10.000000 9.999999
v -0.000001 -10.000000 9.999999
v -5.000001 -10.000000 9.999999
v 9.999999 -10.000000 -5.000000
v 9.999999 -10.000000 0.000000
v 9.999999 -10.000000 5.000000
v 5.000000 -10.000000 -10.000000
v 0.000001 -10.000000 -10.000001
v -4.999998 -10.000000 -10.000002
v -10.000000 -10.000000 4.999998
v -9.999998 -10.000000 -0.000003
v -9.999998 -10.000000 -5.000002
v 10.000002 10.000000 -4.999995
v 9.999999 10.000000 0.000006
v 9.999996 10.000000 5.000006
v 4.999994 10.000000 10.000004
v -0.000005 10.000000 10.000001
v -5.000005 10.000000 9.999999
v -10.000002 10.000000 4.999997
v -10.000001 10.000000 -0.000002
v -10.000000 10.000000 -5.000001
v 5.000004 10.000000 -9.999996
v 0.000003 10.000000 -9.999998
v -4.999998 10.000000 -9.999999
v 9.999998 -5.000000 10.000001
v 9.999996 0.000000 10.000002
v 9.999994 5.000000 10.000005
v 10.000001 -5.000000 -9.999998
v 10.000002 0.000000 -9.999997
v 10.000004 5.000000 -9.999995
v -10.000002 -5.000000 9.999998
v -10.000002 0.000000 9.999998
v -10.000002 5.000000 9.999997
v -9.999997 -5.000000 -10.000002
v -9.999998 0.000000 -10.000002
v -9.999999 5.000000 -10.000001
v 5.000000 -10.000000 9.999999
v -0.000001 -10.000000 9.999999
v -5.000001 -10.000000 9.999999
v 9.999998 -5.000000 10.000001
v 9.999996 0.000000 10.000002
v 9.999994 5.000000 10.000005
v 9.999999 -10.000000 -5.000000
v 9.999999 -10.000000 0.000000
v 9.999999 -10.000000 5.000000
v 10.000001 -5.000000 -9.999998
v 10.000002 0.000000 -9.999997
v 10.000004 5.000000 -9.999996
v 5.000000 -10.000000 -10.000000
v 0.000001 -10.000000 -10.000001
v -4.999998 -10.000000 -10.000002
v -9.999997 -5.000000 -10.000002
v -9.999998 0.000000 -10.000002
v -9.999999 5.000000 -10.000001
v -10.000000 -10.000000 4.999998
v -9.999998 -10.000000 -0.000003
v -9.999998 -10.000000 -5.000003
v -10.000002 -5.000000 9.999998
v -10.000002 0.000000 9.999998
v -10.000002 5.000000 9.999997
v -10.000002 10.000000 4.999997
v -10.000001 10.000000 -0.000002
v -10.000000 10.000000 -5.000001
v 4.999994 10.000000 10.000004
v -0.000005 10.000000 10.000001
v -5.000005 10.000000 9.999999
v 5.000004 10.000000 -9.999996
v 0.000003 10.000000 -9.999998
v -4.999998 10.000000 -9.999999
v 10.000002 10.000000 -4.999994
v 9.999999 10.000000 0.000006
v 9.999996 10.000000 5.000006
v 9.999999 -10.000000 -9.999999
v 9.999999 -10.000000 9.999999
v -10.000001 -10.000000 9.999998
v -9.999996 -10.000000 -10.000002
v 10.000005 10.000000 -9.999994
v 9.999992 10.000000 10.000006
v -10.000004 10.000000 9.999996
v -9.999999 10.000000 -10.000000
v 9.999999 -10.000000 9.999999
v 9.999999 -10.000000 9.999999
v 9.999999 -10.000000 -9.999999
v 9.999999 -10.000000 -9.999999
v -9.999996 -10.000000 -10.000004
v -9.999996 -10.000000 -10.000004
v -10.000001 -10.000000 9.999999
v -10.000001 -10.000000 9.999998
v -10.000004 10.000000 9.999996
v -10.000004 10.000000 9.999996
v 9.999992 10.000000 10.000006
v -9.999999 10.000000 -10.000000
v -9.999999 10.000000 -10.000000
v 10.000005 10.000000 -9.999994
v 10.000005 10.000000 -9.999994
v 9.999992 10.000000 10.000006
vt 0.000000 0.000000
vt -0.500000 0.000000
vt -0.500000 -0.500000
vt 0.000000 -0.500000
vt -0.500000 -1.000000
vt 0.000000 -1.000000
vt -1.000000 0.000000
vt -1.000000 -0.500000
vt -1.000000 -1.000000
vt 0.500000 -0.500000
vt 0.500000 0.000000
vt 1.000000 -0.500000
vt 1.000000 0.000000
vt 0.500000 -1.000000
vt 1.000000 -1.000000
vt 0.500000 0.500000
vt 0.000000 0.500000
vt 0.500000 1.000000
vt 0.000000 1.000000
vt 1.000000 0.500000
vt 1.000000 1.000000
vt -0.500000 0.500000
vt -1.000000 0.500000
vt -0.500000 1.000000
vt -1.000000 1.000000
vn 0.000000 -1.000000 0.000000
vn 0.000000 -0.999969 0.000000
vn 0.000000 1.000000 0.000000
vn 0.000000 0.999969 0.000000
vn 1.000000 0.000000 0.000000
vn 0.999969 0.000000 0.000000
vn 0.000000 0.000000 1.000000
vn 0.000000 0.000000 0.999969
vn -1.000000 0.000000 0.000000
vn -0.999969 0.000000 0.000000
vn 0.000000 0.000000 -1.000000
vn 0.000000 0.000000 -0.999969
usemtl None_texture.png
s 1
f 1/1/1 5/2/1 6/3/1
f 1/1/1 6/3/1 2/4/1
f 2/4/1 6/3/1 58/5/1
f 2/4/1 58/5/1 59/6/1
f 5/2/1 62/7/1 61/8/1
f 5/2/1 61/8/1 6/3/1
f 6/3/1 61/8/1 127/9/2
f 6/3/1 127/9/2 58/5/1
f 1/1/1 2/4/1 7/10/1
f 1/1/1 7/10/1 3/11/1
f 3/11/1 7/10/1 55/12/1
f 3/11/1 55/12/1 56/13/1
f 2/4/1 59/6/1 60/14/1
f 2/4/1 60/14/1 7/10/1
f 7/10/1 60/14/1 128/15/1
f 7/10/1 128/15/1 55/12/1
f 1/1/1 3/11/1 8/16/1
f 1/1/1 8/16/1 4/17/1
f 4/17/1 8/16/1 64/18/1
f 4/17/1 64/18/1 65/19/2
f 3/11/1 56/13/1 57/20/1
f 3/11/1 57/20/1 8/16/1
f 8/16/1 57/20/1 129/21/1
f 8/16/1 129/21/1 64/18/1
f 1/1/1 4/17/1 9/22/1
f 1/1/1 9/22/1 5/2/1
f 5/2/1 9/22/1 63/23/1
f 5/2/1 63/23/1 62/7/1
f 4/17/1 65/19/2 66/24/1
f 4/17/1 66/24/1 9/22/1
f 9/22/1 66/24/1 130/25/1
f 9/22/1 130/25/1 63/23/1
f 10/1/3 14/2/3 15/3/3
f 10/1/3 15/3/3 11/4/3
f 11/4/3 15/3/3 76/5/3
f 11/4/3 76/5/3 77/6/3
f 14/2/3 68/7/3 67/8/3
f 14/2/3 67/8/3 15/3/3
f 15/3/3 67/8/3 131/9/3
f 15/3/3 131/9/3 76/5/3
f 10/1/3 11/4/3 16/10/3
f 10/1/3 16/10/3 12/11/3
f 12/11/3 16/10/3 75/12/3
f 12/11/3 75/12/3 74/13/3
f 11/4/3 77/6/3 78/14/3
f 11/4/3 78/14/3 16/10/3
f 16/10/3 78/14/3 134/15/3
f 16/10/3 134/15/3 75/12/3
f 10/1/3 12/11/3 17/16/3
f 10/1/3 17/16/3 13/17/3
f 13/17/3 17/16/3 72/18/3
f 13/17/3 72/18/3 71/19/4
f 12/11/3 74/13/3 73/20/4
f 12/11/3 73/20/4 17/16/3
f 17/16/3 73/20/4 133/21/4
f 17/16/3 133/21/4 72/18/3
f 10/1/3 13/17/3 18/22/3
f 10/1/3 18/22/3 14/2/3
f 14/2/3 18/22/3 69/23/3
f 14/2/3 69/23/3 68/7/3
f 13/17/3 71/19/4 70/24/3
f 13/17/3 70/24/3 18/22/3
f 18/22/3 70/24/3 132/25/3
f 18/22/3 132/25/3 69/23/3
f 19/1/5 23/2/5 24/3/5
f 19/1/5 24/3/5 20/4/5
f 20/4/5 24/3/5 82/5/5
f 20/4/5 82/5/5 83/6/5
f 23/2/5 98/7/5 97/8/5
f 23/2/5 97/8/5 24/3/5
f 24/3/5 97/8/5 138/9/5
f 24/3/5 138/9/5 82/5/5
f 19/1/5 20/4/5 25/10/5
f 19/1/5 25/10/5 21/11/5
f 21/11/5 25/10/5 124/12/5
f 21/11/5 124/12/5 125/13/5
f 20/4/5 83/6/5 84/14/6
f 20/4/5 84/14/6 25/10/5
f 25/10/5 84/14/6 149/15/6
f 25/10/5 149/15/6 124/12/5
f 19/1/5 21/11/5 26/16/5
f 19/1/5 26/16/5 22/17/5
f 22/17/5 26/16/5 81/18/5
f 22/17/5 81/18/5 80/19/6
f 21/11/5 125/13/5 126/20/5
f 21/11/5 126/20/5 26/16/5
f 26/16/5 126/20/5 150/21/5
f 26/16/5 150/21/5 81/18/5
f 19/1/5 22/17/5 27/22/5
f 19/1/5 27/22/5 23/2/5
f 23/2/5 27/22/5 99/23/5
f 23/2/5 99/23/5 98/7/5
f 22/17/5 80/19/6 79/24/5
f 22/17/5 79/24/5 27/22/5
f 27/22/5 79/24/5 136/25/5
f 27/22/5 136/25/5 99/23/5
f 28/1/7 32/2/7 33/3/7
f 28/1/7 33/3/7 29/4/7
f 29/4/7 33/3/7 94/5/7
f 29/4/7 94/5/7 95/6/7
f 32/2/7 92/7/7 91/8/7
f 32/2/7 91/8/7 33/3/7
f 33/3/7 91/8/7 135/9/7
f 33/3/7 135/9/7 94/5/7
f 28/1/7 29/4/7 34/10/7
f 28/1/7 34/10/7 30/11/7
f 30/11/7 34/10/7 118/12/7
f 30/11/7 118/12/7 119/13/7
f 29/4/7 95/6/7 96/14/7
f 29/4/7 96/14/7 34/10/7
f 34/10/7 96/14/7 145/15/7
f 34/10/7 145/15/7 118/12/7
f 28/1/7 30/11/7 35/16/7
f 28/1/7 35/16/7 31/17/7
f 31/17/7 35/16/7 87/18/8
f 31/17/7 87/18/8 86/19/7
f 30/11/7 119/13/7 120/20/7
f 30/11/7 120/20/7 35/16/7
f 35/16/7 120/20/7 144/21/8
f 35/16/7 144/21/8 87/18/8
f 28/1/7 31/17/7 36/22/7
f 28/1/7 36/22/7 32/2/7
f 32/2/7 36/22/7 93/23/7
f 32/2/7 93/23/7 92/7/7
f 31/17/7 86/19/7 85/24/7
f 31/17/7 85/24/7 36/22/7
f 36/22/7 85/24/7 142/25/8
f 36/22/7 142/25/8 93/23/7
f 37/1/9 41/2/9 42/3/9
f 37/1/9 42/3/9 38/4/9
f 38/4/9 42/3/9 112/5/9
f 38/4/9 112/5/9 113/6/9
f 41/2/9 110/7/9 109/8/9
f 41/2/9 109/8/9 42/3/9
f 42/3/9 109/8/9 141/9/9
f 42/3/9 141/9/9 112/5/9
f 37/1/9 38/4/9 43/10/9
f 37/1/9 43/10/9 39/11/9
f 39/11/9 43/10/9 115/12/9
f 39/11/9 115/12/9 116/13/9
f 38/4/9 113/6/9 114/14/9
f 38/4/9 114/14/9 43/10/9
f 43/10/9 114/14/9 143/15/10
f 43/10/9 143/15/10 115/12/9
f 37/1/9 39/11/9 44/16/9
f 37/1/9 44/16/9 40/17/9
f 40/17/9 44/16/9 90/18/9
f 40/17/9 90/18/9 89/19/9
f 39/11/9 116/13/9 117/20/9
f 39/11/9 117/20/9 44/16/9
f 44/16/9 117/20/9 146/21/10
f 44/16/9 146/21/10 90/18/9
f 37/1/9 40/17/9 45/22/9
f 37/1/9 45/22/9 41/2/9
f 41/2/9 45/22/9 111/23/9
f 41/2/9 111/23/9 110/7/9
f 40/17/9 89/19/9 88/24/10
f 40/17/9 88/24/10 45/22/9
f 45/22/9 88/24/10 140/25/9
f 45/22/9 140/25/9 111/23/9
f 46/1/11 50/2/11 51/3/11
f 46/1/11 51/3/11 47/4/11
f 47/4/11 51/3/11 102/5/11
f 47/4/11 102/5/11 101/6/11
f 50/2/11 122/7/11 121/8/11
f 50/2/11 121/8/11 51/3/11
f 51/3/11 121/8/11 148/9/11
f 51/3/11 148/9/11 102/5/11
f 46/1/11 47/4/11 52/10/11
f 46/1/11 52/10/11 48/11/11
f 48/11/11 52/10/11 103/12/11
f 48/11/11 103/12/11 104/13/11
f 47/4/11 101/6/11 100/14/11
f 47/4/11 100/14/11 52/10/11
f 52/10/11 100/14/11 137/15/11
f 52/10/11 137/15/11 103/12/11
f 46/1/11 48/11/11 53/16/11
f 46/1/11 53/16/11 49/17/11
f 49/17/11 53/16/11 106/18/11
f 49/17/11 106/18/11 107/19/11
f 48/11/11 104/13/11 105/20/11
f 48/11/11 105/20/11 53/16/11
f 53/16/11 105/20/11 139/21/12
f 53/16/11 139/21/12 106/18/11
f 46/1/11 49/17/11 54/22/11
f 46/1/11 54/22/11 50/2/11
f 50/2/11 54/22/11 123/23/11
f 50/2/11 123/23/11 122/7/11
f 49/17/11 107/19/11 108/24/11
f 49/17/11 108/24/11 54/22/11
f 54/22/11 108/24/11 147/25/11
f 54/22/11 147/25/11 123/23/11
