# Blender v2.58 (sub 1) OBJ File: 'centerfirst.blend'
# www.blender.org
mtllib object01_02.mtl
o Cube.006_Cube.011
v 2.500000 -2.500000 -2.500000
v 2.500000 -2.500000 2.500000
v -2.500000 -2.500000 2.500000
v -2.499999 -2.500000 -2.500001
v 2.500001 2.500000 -2.499999
v 2.499998 2.500000 2.500001
v -2.500001 2.500000 2.499999
v -2.500000 2.500000 -2.500000
vt 0.000000 0.000000
vt 1.000000 0.000000
vt 1.000000 1.000000
vt 0.000000 1.000000
vn 0.000000 -1.000000 0.000000
vn 0.000000 1.000000 0.000000
vn 1.000000 0.000000 0.000000
vn -0.000000 -0.000000 1.000000
vn -1.000000 -0.000000 -0.000000
vn 0.000000 0.000000 -1.000000
usemtl None_texture.png
s off
f 1/1/1 2/2/1 3/3/1
f 1/1/1 3/3/1 4/4/1
f 5/1/2 8/2/2 7/3/2
f 5/1/2 7/3/2 6/4/2
f 1/1/3 5/2/3 6/3/3
f 1/1/3 6/3/3 2/4/3
f 2/1/4 6/2/4 7/3/4
f 2/1/4 7/3/4 3/4/4
f 3/1/5 7/2/5 8/3/5
f 3/1/5 8/3/5 4/4/5
f 5/1/6 1/2/6 4/3/6
f 5/1/6 4/3/6 8/4/6
