# Blender v2.57 (sub 0) OBJ File: 'prototype.blend'
# www.blender.org
mtllib prototype.mtl
o Circle
v 0.000000 -0.000001 -25.000000
v 2.450428 -0.000001 -24.879618
v 4.877258 -0.000001 -24.519630
v 7.257117 -0.000001 -23.923510
v 9.567086 -0.000001 -23.096987
v 11.784919 -0.000001 -22.048031
v 13.889256 -0.000001 -20.786739
v 15.859832 -0.000001 -19.325262
v 17.677670 -0.000001 -17.677671
v 19.325260 -0.000001 -15.859834
v 20.786739 -0.000001 -13.889257
v 22.048031 -0.000001 -11.784920
v 23.096987 -0.000000 -9.567085
v 23.923510 -0.000000 -7.257116
v 24.519632 -0.000000 -4.877256
v 24.879618 -0.000000 -2.450425
v 25.000000 0.000000 0.000004
v 24.879618 0.000000 2.450433
v 24.519630 0.000000 4.877264
v 23.923506 0.000000 7.257124
v 23.096985 0.000000 9.567093
v 22.048027 0.000001 11.784926
v 20.786736 0.000001 13.889263
v 19.325254 0.000001 15.859840
v 17.677660 0.000001 17.677679
v 15.859821 0.000001 19.325270
v 13.889244 0.000001 20.786749
v 11.784905 0.000001 22.048038
v 9.567071 0.000001 23.096994
v 7.257101 0.000001 23.923513
v 4.877240 0.000001 24.519636
v 2.450409 0.000001 24.879620
v -0.000020 0.000001 25.000000
v -2.450449 0.000001 24.879616
v -4.877280 0.000001 24.519629
v -7.257139 0.000001 23.923502
v -9.567108 0.000001 23.096979
v -11.784940 0.000001 22.048019
v -13.889277 0.000001 20.786726
v -15.859853 0.000001 19.325245
v -17.677691 0.000001 17.677650
v -19.325275 0.000001 15.859814
v -20.786751 0.000001 13.889241
v -22.048038 0.000001 11.784906
v -23.096992 0.000000 9.567079
v -23.923510 0.000000 7.257113
v -24.519630 0.000000 4.877260
v -24.879618 0.000000 2.450435
v -25.000000 0.000000 0.000012
v -24.879620 -0.000000 -2.450412
v -24.519636 -0.000000 -4.877237
v -23.923515 -0.000000 -7.257091
v -23.097000 -0.000000 -9.567057
v -22.048048 -0.000001 -11.784886
v -20.786764 -0.000001 -13.889222
v -19.325291 -0.000001 -15.859797
v -17.677706 -0.000001 -17.677633
v -15.859875 -0.000001 -19.325226
v -13.889307 -0.000001 -20.786705
v -11.784977 -0.000001 -22.048000
v -9.567151 -0.000001 -23.096960
v -7.257190 -0.000001 -23.923487
v -4.877337 -0.000001 -24.519617
v -2.450514 -0.000001 -24.879608
v 0.000000 0.000000 0.000000
v 0.000000 1.000000 -0.000000
v -2.450514 0.999999 -24.879608
v -4.877337 0.999999 -24.519617
v -7.257190 0.999999 -23.923487
v -9.567151 0.999999 -23.096960
v -11.784977 0.999999 -22.048000
v -13.889307 0.999999 -20.786705
v -15.859875 0.999999 -19.325226
v -17.677706 0.999999 -17.677633
v -19.325291 0.999999 -15.859797
v -20.786764 0.999999 -13.889222
v -22.048048 0.999999 -11.784886
v -23.097000 1.000000 -9.567057
v -23.923515 1.000000 -7.257091
v -24.519636 1.000000 -4.877237
v -24.879620 1.000000 -2.450412
v -25.000000 1.000000 0.000012
v -24.879618 1.000000 2.450435
v -24.519630 1.000000 4.877260
v -23.923510 1.000000 7.257113
v -23.096992 1.000000 9.567079
v -22.048038 1.000000 11.784906
v -20.786751 1.000001 13.889241
v -19.325275 1.000001 15.859814
v -17.677691 1.000001 17.677650
v -15.859853 1.000001 19.325245
v -13.889277 1.000001 20.786726
v -11.784940 1.000001 22.048019
v -9.567108 1.000001 23.096979
v -7.257139 1.000001 23.923502
v -4.877280 1.000001 24.519629
v -2.450449 1.000001 24.879616
v -0.000020 1.000001 25.000000
v 2.450409 1.000001 24.879620
v 4.877240 1.000001 24.519636
v 7.257101 1.000001 23.923513
v 9.567071 1.000001 23.096994
v 11.784905 1.000001 22.048038
v 13.889244 1.000001 20.786749
v 15.859821 1.000001 19.325270
v 17.677660 1.000001 17.677679
v 19.325254 1.000001 15.859840
v 20.786736 1.000001 13.889263
v 22.048027 1.000000 11.784926
v 23.096985 1.000000 9.567093
v 23.923506 1.000000 7.257124
v 24.519630 1.000000 4.877264
v 24.879618 1.000000 2.450433
v 25.000000 1.000000 0.000004
v 24.879618 1.000000 -2.450425
v 24.519632 1.000000 -4.877256
v 23.923510 1.000000 -7.257116
v 23.096987 1.000000 -9.567085
v 22.048031 0.999999 -11.784920
v 20.786739 0.999999 -13.889257
v 19.325260 0.999999 -15.859834
v 17.677670 0.999999 -17.677671
v 15.859832 0.999999 -19.325262
v 13.889256 0.999999 -20.786739
v 11.784919 0.999999 -22.048031
v 9.567086 0.999999 -23.096987
v 7.257117 0.999999 -23.923510
v 4.877258 0.999999 -24.519630
v 2.450428 0.999999 -24.879618
v 0.000000 0.999999 -25.000000
vt 0.500000 0.500000
vt 0.500000 2.455313
vt 0.691654 2.445898
vt 0.881463 2.417742
vt 1.067598 2.371118
vt 1.248266 2.306474
vt 1.421728 2.224432
vt 1.586314 2.125783
vt 1.740438 2.011478
vt 1.882616 1.882616
vt 2.011477 1.740438
vt 2.125784 1.586314
vt 2.224433 1.421728
vt 2.306474 1.248266
vt 2.371119 1.067597
vt 2.417743 0.881463
vt 2.445898 0.691654
vt 2.455314 0.500000
vt 2.445898 0.308345
vt 2.417743 0.118537
vt 2.371118 -0.067598
vt 2.306474 -0.248267
vt 2.224432 -0.421729
vt 2.125783 -0.586315
vt 2.011477 -0.740438
vt 1.882615 -0.882616
vt 1.740437 -1.011478
vt 1.586313 -1.125784
vt 1.421728 -1.224433
vt 1.248265 -1.306474
vt 1.067597 -1.371119
vt 0.881461 -1.417743
vt 0.691653 -1.445898
vt 0.499999 -1.455313
vt 0.308344 -1.445898
vt 0.118536 -1.417742
vt -0.067599 -1.371118
vt -0.248268 -1.306473
vt -0.421730 -1.224432
vt -0.586315 -1.125782
vt -0.740439 -1.011476
vt -0.882617 -0.882614
vt -1.011479 -0.740436
vt -1.125784 -0.586313
vt -1.224433 -0.421727
vt -1.306474 -0.248266
vt -1.371118 -0.067597
vt -1.417742 0.118537
vt -1.445898 0.308345
vt -1.455313 0.499999
vt -1.445898 0.691653
vt -1.417743 0.881461
vt -1.371119 1.067595
vt -1.306475 1.248263
vt -1.224434 1.421726
vt -1.125785 1.586311
vt -1.011480 1.740435
vt -0.882618 1.882612
vt -0.740441 2.011475
vt -0.586318 2.125781
vt -0.421733 2.224430
vt -0.248271 2.306471
vt -0.067603 2.371116
vt 0.118531 2.417741
vt 0.308339 2.445897
vt 0.303959 2.490369
vt 0.500000 2.500000
vt 0.109813 2.461569
vt -0.080575 2.413879
vt -0.265372 2.347757
vt -0.442798 2.263840
vt -0.611145 2.162936
vt -0.768790 2.046018
vt -0.914216 1.914211
vt -1.046023 1.768784
vt -1.162941 1.611138
vt -1.263844 1.442791
vt -1.347760 1.265364
vt -1.413881 1.080567
vt -1.461571 0.890179
vt -1.490370 0.696033
vt -1.500000 0.499999
vt -1.490369 0.303965
vt -1.461571 0.109819
vt -1.413881 -0.080569
vt -1.347759 -0.265366
vt -1.263843 -0.442793
vt -1.162940 -0.611140
vt -1.046022 -0.768785
vt -0.914215 -0.914212
vt -0.768788 -1.046020
vt -0.611142 -1.162938
vt -0.442795 -1.263842
vt -0.265369 -1.347759
vt -0.080571 -1.413880
vt 0.109818 -1.461571
vt 0.303964 -1.490369
vt 0.499998 -1.500000
vt 0.696033 -1.490370
vt 0.890179 -1.461571
vt 1.080568 -1.413881
vt 1.265366 -1.347760
vt 1.442793 -1.263843
vt 1.611140 -1.162940
vt 1.768786 -1.046022
vt 1.914213 -0.914214
vt 2.046021 -0.768787
vt 2.162939 -0.611141
vt 2.263843 -0.442794
vt 2.347759 -0.265368
vt 2.413881 -0.080570
vt 2.461571 0.109819
vt 2.490369 0.303965
vt 2.500000 0.500000
vt 2.490369 0.696034
vt 2.461571 0.890180
vt 2.413881 1.080569
vt 2.347759 1.265367
vt 2.263843 1.442794
vt 2.162940 1.611141
vt 2.046021 1.768786
vt 1.914214 1.914214
vt 1.768787 2.046021
vt 1.611141 2.162940
vt 1.442794 2.263843
vt 1.265367 2.347759
vt 1.080570 2.413881
vt 0.890181 2.461570
vt 0.696034 2.490369
vn 0.000000 -1.000000 0.000000
vn -0.049070 0.000000 -0.998795
vn -0.146733 0.000000 -0.989176
vn -0.242983 0.000000 -0.970030
vn -0.336893 0.000000 -0.941543
vn -0.427557 0.000000 -0.903988
vn -0.514105 0.000000 -0.857727
vn -0.595701 0.000000 -0.803206
vn -0.671560 0.000000 -0.740950
vn -0.740952 0.000000 -0.671558
vn -0.803208 0.000000 -0.595698
vn -0.857730 0.000000 -0.514101
vn -0.903990 0.000000 -0.427554
vn -0.941544 0.000000 -0.336888
vn -0.970031 0.000000 -0.242980
vn -0.989177 0.000000 -0.146730
vn -0.998795 0.000000 -0.049067
vn -0.998795 0.000000 0.049068
vn -0.989176 0.000000 0.146731
vn -0.970031 0.000000 0.242980
vn -0.941544 0.000000 0.336889
vn -0.903989 0.000000 0.427555
vn -0.857729 0.000000 0.514102
vn -0.803208 0.000000 0.595699
vn -0.740952 0.000000 0.671558
vn -0.671559 0.000000 0.740951
vn -0.595700 0.000000 0.803207
vn -0.514104 0.000000 0.857728
vn -0.427556 0.000000 0.903989
vn -0.336891 0.000000 0.941544
vn -0.242981 0.000000 0.970031
vn -0.146731 0.000000 0.989176
vn -0.049069 0.000000 0.998795
vn 0.049067 0.000000 0.998795
vn 0.146729 0.000000 0.989177
vn 0.242980 0.000000 0.970031
vn 0.336889 0.000000 0.941544
vn 0.427555 0.000000 0.903990
vn 0.514102 0.000000 0.857729
vn 0.595699 0.000000 0.803208
vn 0.671558 0.000000 0.740952
vn 0.740951 0.000000 0.671559
vn 0.803207 0.000000 0.595700
vn 0.857728 0.000000 0.514103
vn 0.903989 0.000000 0.427555
vn 0.941544 0.000000 0.336890
vn 0.970031 0.000000 0.242980
vn 0.989176 0.000000 0.146731
vn 0.998795 0.000000 0.049068
vn 0.998795 0.000000 -0.049068
vn 0.989177 0.000000 -0.146730
vn 0.970031 0.000000 -0.242980
vn 0.941544 0.000000 -0.336891
vn 0.903990 0.000000 -0.427555
vn 0.857729 0.000000 -0.514103
vn 0.803208 0.000000 -0.595699
vn 0.740951 0.000000 -0.671559
vn 0.671559 0.000000 -0.740951
vn 0.595699 0.000000 -0.803208
vn 0.514103 0.000000 -0.857729
vn 0.427555 0.000000 -0.903989
vn 0.336891 0.000000 -0.941544
vn 0.242979 0.000000 -0.970031
vn 0.146731 0.000000 -0.989176
vn 0.049068 0.000000 -0.998796
vn 0.000000 1.000000 -0.000000
usemtl None_tiles_ctfw.jpg
s off
f 65/1/1 1/2/1 2/3/1
f 65/1/1 2/3/1 3/4/1
f 65/1/1 3/4/1 4/5/1
f 65/1/1 4/5/1 5/6/1
f 65/1/1 5/6/1 6/7/1
f 65/1/1 6/7/1 7/8/1
f 65/1/1 7/8/1 8/9/1
f 65/1/1 8/9/1 9/10/1
f 65/1/1 9/10/1 10/11/1
f 65/1/1 10/11/1 11/12/1
f 65/1/1 11/12/1 12/13/1
f 65/1/1 12/13/1 13/14/1
f 65/1/1 13/14/1 14/15/1
f 65/1/1 14/15/1 15/16/1
f 65/1/1 15/16/1 16/17/1
f 65/1/1 16/17/1 17/18/1
f 65/1/1 17/18/1 18/19/1
f 65/1/1 18/19/1 19/20/1
f 65/1/1 19/20/1 20/21/1
f 65/1/1 20/21/1 21/22/1
f 65/1/1 21/22/1 22/23/1
f 65/1/1 22/23/1 23/24/1
f 65/1/1 23/24/1 24/25/1
f 65/1/1 24/25/1 25/26/1
f 65/1/1 25/26/1 26/27/1
f 65/1/1 26/27/1 27/28/1
f 65/1/1 27/28/1 28/29/1
f 65/1/1 28/29/1 29/30/1
f 65/1/1 29/30/1 30/31/1
f 65/1/1 30/31/1 31/32/1
f 65/1/1 31/32/1 32/33/1
f 65/1/1 32/33/1 33/34/1
f 65/1/1 33/34/1 34/35/1
f 65/1/1 34/35/1 35/36/1
f 65/1/1 35/36/1 36/37/1
f 65/1/1 36/37/1 37/38/1
f 65/1/1 37/38/1 38/39/1
f 65/1/1 38/39/1 39/40/1
f 65/1/1 39/40/1 40/41/1
f 65/1/1 40/41/1 41/42/1
f 65/1/1 41/42/1 42/43/1
f 65/1/1 42/43/1 43/44/1
f 65/1/1 43/44/1 44/45/1
f 65/1/1 44/45/1 45/46/1
f 65/1/1 45/46/1 46/47/1
f 65/1/1 46/47/1 47/48/1
f 65/1/1 47/48/1 48/49/1
f 65/1/1 48/49/1 49/50/1
f 65/1/1 49/50/1 50/51/1
f 65/1/1 50/51/1 51/52/1
f 65/1/1 51/52/1 52/53/1
f 65/1/1 52/53/1 53/54/1
f 65/1/1 53/54/1 54/55/1
f 65/1/1 54/55/1 55/56/1
f 65/1/1 55/56/1 56/57/1
f 65/1/1 56/57/1 57/58/1
f 65/1/1 57/58/1 58/59/1
f 65/1/1 58/59/1 59/60/1
f 65/1/1 59/60/1 60/61/1
f 65/1/1 60/61/1 61/62/1
f 65/1/1 61/62/1 62/63/1
f 65/1/1 62/63/1 63/64/1
f 65/1/1 63/64/1 64/65/1
f 64/65/1 1/2/1 65/1/1
f 1/2/2 64/65/2 67/66/2
f 1/2/2 67/66/2 130/67/2
f 64/65/3 63/64/3 68/68/3
f 64/65/3 68/68/3 67/66/3
f 63/64/4 62/63/4 69/69/4
f 63/64/4 69/69/4 68/68/4
f 62/63/5 61/62/5 70/70/5
f 62/63/5 70/70/5 69/69/5
f 61/62/6 60/61/6 71/71/6
f 61/62/6 71/71/6 70/70/6
f 60/61/7 59/60/7 72/72/7
f 60/61/7 72/72/7 71/71/7
f 59/60/8 58/59/8 73/73/8
f 59/60/8 73/73/8 72/72/8
f 58/59/9 57/58/9 74/74/9
f 58/59/9 74/74/9 73/73/9
f 57/58/10 56/57/10 75/75/10
f 57/58/10 75/75/10 74/74/10
f 56/57/11 55/56/11 76/76/11
f 56/57/11 76/76/11 75/75/11
f 55/56/12 54/55/12 77/77/12
f 55/56/12 77/77/12 76/76/12
f 54/55/13 53/54/13 78/78/13
f 54/55/13 78/78/13 77/77/13
f 53/54/14 52/53/14 79/79/14
f 53/54/14 79/79/14 78/78/14
f 52/53/15 51/52/15 80/80/15
f 52/53/15 80/80/15 79/79/15
f 51/52/16 50/51/16 81/81/16
f 51/52/16 81/81/16 80/80/16
f 50/51/17 49/50/17 82/82/17
f 50/51/17 82/82/17 81/81/17
f 49/50/18 48/49/18 83/83/18
f 49/50/18 83/83/18 82/82/18
f 48/49/19 47/48/19 84/84/19
f 48/49/19 84/84/19 83/83/19
f 47/48/20 46/47/20 85/85/20
f 47/48/20 85/85/20 84/84/20
f 46/47/21 45/46/21 86/86/21
f 46/47/21 86/86/21 85/85/21
f 45/46/22 44/45/22 87/87/22
f 45/46/22 87/87/22 86/86/22
f 44/45/23 43/44/23 88/88/23
f 44/45/23 88/88/23 87/87/23
f 43/44/24 42/43/24 89/89/24
f 43/44/24 89/89/24 88/88/24
f 42/43/25 41/42/25 90/90/25
f 42/43/25 90/90/25 89/89/25
f 41/42/26 40/41/26 91/91/26
f 41/42/26 91/91/26 90/90/26
f 40/41/27 39/40/27 92/92/27
f 40/41/27 92/92/27 91/91/27
f 39/40/28 38/39/28 93/93/28
f 39/40/28 93/93/28 92/92/28
f 38/39/29 37/38/29 94/94/29
f 38/39/29 94/94/29 93/93/29
f 37/38/30 36/37/30 95/95/30
f 37/38/30 95/95/30 94/94/30
f 36/37/31 35/36/31 96/96/31
f 36/37/31 96/96/31 95/95/31
f 35/36/32 34/35/32 97/97/32
f 35/36/32 97/97/32 96/96/32
f 34/35/33 33/34/33 98/98/33
f 34/35/33 98/98/33 97/97/33
f 33/34/34 32/33/34 99/99/34
f 33/34/34 99/99/34 98/98/34
f 32/33/35 31/32/35 100/100/35
f 32/33/35 100/100/35 99/99/35
f 31/32/36 30/31/36 101/101/36
f 31/32/36 101/101/36 100/100/36
f 30/31/37 29/30/37 102/102/37
f 30/31/37 102/102/37 101/101/37
f 29/30/38 28/29/38 103/103/38
f 29/30/38 103/103/38 102/102/38
f 28/29/39 27/28/39 104/104/39
f 28/29/39 104/104/39 103/103/39
f 27/28/40 26/27/40 105/105/40
f 27/28/40 105/105/40 104/104/40
f 26/27/41 25/26/41 106/106/41
f 26/27/41 106/106/41 105/105/41
f 25/26/42 24/25/42 107/107/42
f 25/26/42 107/107/42 106/106/42
f 24/25/43 23/24/43 108/108/43
f 24/25/43 108/108/43 107/107/43
f 23/24/44 22/23/44 109/109/44
f 23/24/44 109/109/44 108/108/44
f 22/23/45 21/22/45 110/110/45
f 22/23/45 110/110/45 109/109/45
f 21/22/46 20/21/46 111/111/46
f 21/22/46 111/111/46 110/110/46
f 20/21/47 19/20/47 112/112/47
f 20/21/47 112/112/47 111/111/47
f 19/20/48 18/19/48 113/113/48
f 19/20/48 113/113/48 112/112/48
f 18/19/49 17/18/49 114/114/49
f 18/19/49 114/114/49 113/113/49
f 17/18/50 16/17/50 115/115/50
f 17/18/50 115/115/50 114/114/50
f 16/17/51 15/16/51 116/116/51
f 16/17/51 116/116/51 115/115/51
f 15/16/52 14/15/52 117/117/52
f 15/16/52 117/117/52 116/116/52
f 14/15/53 13/14/53 118/118/53
f 14/15/53 118/118/53 117/117/53
f 13/14/54 12/13/54 119/119/54
f 13/14/54 119/119/54 118/118/54
f 12/13/55 11/12/55 120/120/55
f 12/13/55 120/120/55 119/119/55
f 11/12/56 10/11/56 121/121/56
f 11/12/56 121/121/56 120/120/56
f 10/11/57 9/10/57 122/122/57
f 10/11/57 122/122/57 121/121/57
f 9/10/58 8/9/58 123/123/58
f 9/10/58 123/123/58 122/122/58
f 8/9/59 7/8/59 124/124/59
f 8/9/59 124/124/59 123/123/59
f 7/8/60 6/7/60 125/125/60
f 7/8/60 125/125/60 124/124/60
f 6/7/61 5/6/61 126/126/61
f 6/7/61 126/126/61 125/125/61
f 5/6/62 4/5/62 127/127/62
f 5/6/62 127/127/62 126/126/62
f 4/5/63 3/4/63 128/128/63
f 4/5/63 128/128/63 127/127/63
f 3/4/64 2/3/64 129/129/64
f 3/4/64 129/129/64 128/128/64
f 2/3/65 1/2/65 130/67/65
f 2/3/65 130/67/65 129/129/65
f 129/129/66 130/67/66 66/1/66
f 128/128/66 129/129/66 66/1/66
f 127/127/66 128/128/66 66/1/66
f 126/126/66 127/127/66 66/1/66
f 125/125/66 126/126/66 66/1/66
f 124/124/66 125/125/66 66/1/66
f 123/123/66 124/124/66 66/1/66
f 122/122/66 123/123/66 66/1/66
f 121/121/66 122/122/66 66/1/66
f 120/120/66 121/121/66 66/1/66
f 119/119/66 120/120/66 66/1/66
f 118/118/66 119/119/66 66/1/66
f 117/117/66 118/118/66 66/1/66
f 116/116/66 117/117/66 66/1/66
f 115/115/66 116/116/66 66/1/66
f 114/114/66 115/115/66 66/1/66
f 113/113/66 114/114/66 66/1/66
f 112/112/66 113/113/66 66/1/66
f 111/111/66 112/112/66 66/1/66
f 110/110/66 111/111/66 66/1/66
f 109/109/66 110/110/66 66/1/66
f 108/108/66 109/109/66 66/1/66
f 107/107/66 108/108/66 66/1/66
f 106/106/66 107/107/66 66/1/66
f 105/105/66 106/106/66 66/1/66
f 104/104/66 105/105/66 66/1/66
f 103/103/66 104/104/66 66/1/66
f 102/102/66 103/103/66 66/1/66
f 101/101/66 102/102/66 66/1/66
f 100/100/66 101/101/66 66/1/66
f 99/99/66 100/100/66 66/1/66
f 98/98/66 99/99/66 66/1/66
f 97/97/66 98/98/66 66/1/66
f 96/96/66 97/97/66 66/1/66
f 95/95/66 96/96/66 66/1/66
f 94/94/66 95/95/66 66/1/66
f 93/93/66 94/94/66 66/1/66
f 92/92/66 93/93/66 66/1/66
f 91/91/66 92/92/66 66/1/66
f 90/90/66 91/91/66 66/1/66
f 89/89/66 90/90/66 66/1/66
f 88/88/66 89/89/66 66/1/66
f 87/87/66 88/88/66 66/1/66
f 86/86/66 87/87/66 66/1/66
f 85/85/66 86/86/66 66/1/66
f 84/84/66 85/85/66 66/1/66
f 83/83/66 84/84/66 66/1/66
f 82/82/66 83/83/66 66/1/66
f 81/81/66 82/82/66 66/1/66
f 80/80/66 81/81/66 66/1/66
f 79/79/66 80/80/66 66/1/66
f 78/78/66 79/79/66 66/1/66
f 77/77/66 78/78/66 66/1/66
f 76/76/66 77/77/66 66/1/66
f 75/75/66 76/76/66 66/1/66
f 74/74/66 75/75/66 66/1/66
f 73/73/66 74/74/66 66/1/66
f 72/72/66 73/73/66 66/1/66
f 71/71/66 72/72/66 66/1/66
f 70/70/66 71/71/66 66/1/66
f 69/69/66 70/70/66 66/1/66
f 68/68/66 69/69/66 66/1/66
f 67/66/66 68/68/66 66/1/66
f 66/1/66 130/67/66 67/66/66
