# Blender v2.58 (sub 1) OBJ File: 'centerfirst2.blend'
# www.blender.org
mtllib object02_03.mtl
o Cube.022_Cube.026
v 1.000000 -1.000000 -1.000000
v 1.000000 -1.000000 1.000000
v -1.000000 -1.000000 1.000000
v -1.000000 -1.000000 -1.000000
v 1.000000 1.000000 -0.999999
v 0.999999 1.000000 1.000001
v -1.000000 1.000000 1.000000
v -1.000000 1.000000 -1.000000
v -0.999998 -0.999998 -9.000000
v -0.999998 1.000002 -9.000000
v 1.000002 -0.999998 -9.000000
v 1.000002 1.000002 -8.999999
v -9.000000 -1.000001 -1.000002
v -9.000000 0.999999 -1.000002
v -9.000000 -1.000001 0.999998
v -9.000000 0.999999 0.999998
v -1.000003 -1.000001 9.000000
v -1.000003 0.999999 9.000000
v 0.999997 -1.000001 9.000000
v 0.999997 0.999999 9.000001
v 9.000000 -1.000000 -0.999998
v 9.000000 1.000000 -0.999997
v 9.000000 -1.000000 1.000002
v 8.999999 1.000000 1.000003
vt 0.000000 0.000000
vt 1.000000 0.000000
vt 1.000000 1.000000
vt 0.000000 1.000000
vn 0.000000 -1.000000 0.000000
vn 0.000000 1.000000 0.000000
vn -1.000000 -0.000000 -0.000000
vn 1.000000 -0.000000 0.000000
vn 0.000000 0.000000 -1.000000
vn -0.000000 0.000000 1.000000
usemtl None_black.png
s off
f 1/1/1 2/2/1 3/3/1
f 1/1/1 3/3/1 4/4/1
f 5/1/2 8/2/2 7/3/2
f 5/1/2 7/3/2 6/4/2
f 4/1/3 8/2/3 10/3/3
f 4/1/3 10/3/3 9/4/3
f 5/1/4 1/2/4 11/3/4
f 5/1/4 11/3/4 12/4/4
f 8/1/2 5/2/2 12/3/2
f 8/1/2 12/3/2 10/4/2
f 1/1/1 4/2/1 9/3/1
f 1/1/1 9/3/1 11/4/1
f 12/1/5 11/2/5 9/3/5
f 12/1/5 9/3/5 10/4/5
f 8/1/5 4/2/5 13/3/5
f 8/1/5 13/3/5 14/4/5
f 3/1/6 7/2/6 16/3/6
f 3/1/6 16/3/6 15/4/6
f 7/1/2 8/2/2 14/3/2
f 7/1/2 14/3/2 16/4/2
f 4/1/1 3/2/1 15/3/1
f 4/1/1 15/3/1 13/4/1
f 15/1/3 16/2/3 14/3/3
f 15/1/3 14/3/3 13/4/3
f 7/1/3 3/2/3 17/3/3
f 7/1/3 17/3/3 18/4/3
f 2/1/4 6/2/4 20/3/4
f 2/1/4 20/3/4 19/4/4
f 6/1/2 7/2/2 18/3/2
f 6/1/2 18/3/2 20/4/2
f 3/1/1 2/2/1 19/3/1
f 3/1/1 19/3/1 17/4/1
f 19/1/6 20/2/6 18/3/6
f 19/1/6 18/3/6 17/4/6
f 1/1/5 5/2/5 22/3/5
f 1/1/5 22/3/5 21/4/5
f 6/1/6 2/2/6 23/3/6
f 6/1/6 23/3/6 24/4/6
f 5/1/2 6/2/2 24/3/2
f 5/1/2 24/3/2 22/4/2
f 2/1/1 1/2/1 21/3/1
f 2/1/1 21/3/1 23/4/1
f 21/1/4 22/2/4 24/3/4
f 21/1/4 24/3/4 23/4/4
