# Blender v2.58 (sub 1) OBJ File: 'centerfirst2.blend'
# www.blender.org
mtllib object02_02.mtl
o Cube.021_Cube.012
v 20.000000 -2.000000 18.000000
v 20.000000 -2.000000 20.000000
v 18.000000 -2.000000 20.000000
v 18.000000 -2.000000 18.000000
v 20.000000 0.000000 18.000000
v 20.000000 0.000000 20.000000
v 18.000000 0.000000 20.000000
v 18.000000 0.000000 18.000000
v 18.000002 -1.999998 10.000000
v 18.000002 0.000002 10.000000
v 20.000002 -1.999998 10.000000
v 20.000002 0.000002 10.000001
v 10.000000 -2.000001 17.999998
v 10.000000 -0.000001 17.999998
v 10.000000 -2.000001 19.999998
v 10.000000 -0.000001 19.999998
v 18.000000 -2.000000 20.000000
v 18.000000 -2.000000 18.000000
v 20.000000 -2.000000 18.000000
v 20.000000 -2.000000 20.000000
v 18.000000 -10.000000 20.000000
v 20.000000 -10.000000 20.000000
v 20.000000 -10.000000 18.000000
v 18.000000 -10.000000 18.000000
vt 0.000000 0.000000
vt 1.000000 0.000000
vt 1.000000 1.000000
vt 0.000000 1.000000
vn 0.000000 1.000000 0.000000
vn 1.000000 0.000000 0.000000
vn -0.000000 0.000000 1.000000
vn -1.000000 0.000000 -0.000000
vn 0.000000 -1.000000 -0.000000
vn 0.000000 0.000000 -1.000000
vn 0.000000 0.000000 0.000000
usemtl None_black.png
s off
f 5/1/1 8/2/1 7/3/1
f 5/1/1 7/3/1 6/4/1
f 1/1/2 5/2/2 6/3/2
f 1/1/2 6/3/2 2/4/2
f 2/1/3 6/2/3 7/3/3
f 2/1/3 7/3/3 3/4/3
f 4/1/4 8/2/4 10/3/4
f 4/1/4 10/3/4 9/4/4
f 5/1/2 1/2/2 11/3/2
f 5/1/2 11/3/2 12/4/2
f 8/1/1 5/2/1 12/3/1
f 8/1/1 12/3/1 10/4/1
f 1/1/5 4/2/5 9/3/5
f 1/1/5 9/3/5 11/4/5
f 12/1/6 11/2/6 9/3/6
f 12/1/6 9/3/6 10/4/6
f 8/1/6 4/2/6 13/3/6
f 8/1/6 13/3/6 14/4/6
f 3/1/3 7/2/3 16/3/3
f 3/1/3 16/3/3 15/4/3
f 7/1/1 8/2/1 14/3/1
f 7/1/1 14/3/1 16/4/1
f 4/1/5 3/2/5 15/3/5
f 4/1/5 15/3/5 13/4/5
f 15/1/4 16/2/4 14/3/4
f 15/1/4 14/3/4 13/4/4
f 3/1/7 4/2/7 18/3/7
f 3/1/7 18/3/7 17/4/7
f 4/1/7 1/2/7 19/3/7
f 4/1/7 19/3/7 18/4/7
f 1/1/7 2/2/7 20/3/7
f 1/1/7 20/3/7 19/4/7
f 2/1/7 3/2/7 17/3/7
f 2/1/7 17/3/7 20/4/7
f 20/1/3 17/2/3 21/3/3
f 20/1/3 21/3/3 22/4/3
f 19/1/2 20/2/2 22/3/2
f 19/1/2 22/3/2 23/4/2
f 18/1/6 19/2/6 23/3/6
f 18/1/6 23/3/6 24/4/6
f 17/1/4 18/2/4 24/3/4
f 17/1/4 24/3/4 21/4/4
f 23/1/5 22/2/5 21/3/5
f 23/1/5 21/3/5 24/4/5
