# Blender v2.58 (sub 1) OBJ File: 'centerfirst.blend'
# www.blender.org
mtllib plate02_curve.mtl
o Cylinder_Cylinder.001
v 0.000000 -10.000000 -10.000000
v -0.000003 -10.000000 10.000000
v -1.950907 -10.000000 9.807852
v -3.826839 -10.000000 9.238793
v -5.555707 -10.000000 8.314693
v -7.071073 -10.000000 7.071064
v -8.314700 -10.000000 5.555696
v -9.238798 -10.000000 3.826827
v -9.807855 -10.000000 1.950895
v -10.000000 -10.000000 -0.000010
v -9.807851 -10.000000 -1.950914
v -9.238791 -10.000000 -3.826845
v -8.314690 -10.000000 -5.555713
v -7.071059 -10.000000 -7.071076
v -5.555691 -10.000000 -8.314704
v -3.826821 -10.000000 -9.238801
v -1.950888 -10.000000 -9.807856
v 0.000016 10.000000 -10.000000
v 0.000009 10.000000 10.000000
v -1.950890 10.000000 9.807856
v -3.826818 10.000000 9.238802
v -5.555685 10.000000 8.314708
v -7.071050 10.000000 7.071085
v -8.314680 10.000000 5.555726
v -9.238783 10.000000 3.826865
v -9.807845 10.000000 1.950940
v -10.000000 10.000000 0.000041
v -9.807861 10.000000 -1.950859
v -9.238814 10.000000 -3.826789
v -8.314726 10.000000 -5.555658
v -7.071108 10.000000 -7.071028
v -5.555753 10.000000 -8.314663
v -3.826894 10.000000 -9.238770
v -1.950971 10.000000 -9.807839
vt 0.000005 0.000000
vt 0.062505 0.000001
vt 0.062500 0.999999
vt 0.000000 0.999999
vt 0.125005 0.000001
vt 0.125000 0.999999
vt 0.187504 0.000001
vt 0.187500 1.000000
vt 0.250004 0.000002
vt 0.250000 1.000000
vt 0.312503 0.000002
vt 0.312499 1.000000
vt 0.375003 0.000002
vt 0.374999 1.000000
vt 0.437502 0.000002
vt 0.437499 1.000000
vt 0.500002 0.000002
vt 0.499999 1.000001
vt 0.562502 0.000002
vt 0.562499 1.000001
vt 0.625001 0.000002
vt 0.624999 1.000000
vt 0.687501 0.000001
vt 0.687498 1.000000
vt 0.750001 0.000001
vt 0.749998 1.000000
vt 0.812500 0.000001
vt 0.812498 1.000000
vt 0.875000 0.000001
vt 0.874997 1.000000
vt 0.937500 0.000000
vt 0.937497 1.000000
vt 1.000000 0.000000
vt 1.000000 1.000000
vn 0.097995 0.000000 -0.995178
vn 0.195074 0.000000 -0.980773
vn 0.382672 0.000000 -0.923856
vn 0.555559 0.000000 -0.831446
vn 0.707083 0.000000 -0.707083
vn 0.831446 0.000000 -0.555559
vn 0.923856 0.000000 -0.382672
vn 0.980773 0.000000 -0.195074
vn 0.999969 0.000000 0.000000
vn 0.980773 0.000000 0.195074
vn 0.923856 0.000000 0.382672
vn 0.831446 0.000000 0.555559
vn 0.707083 0.000000 0.707083
vn 0.555559 0.000000 0.831446
vn 0.382672 0.000000 0.923856
vn 0.195074 0.000000 0.980773
vn 0.097995 0.000000 0.995178
usemtl None_blackskin0003.png
s 1
f 2/1/1 3/2/2 20/3/2
f 2/1/1 20/3/2 19/4/1
f 3/2/2 4/5/3 21/6/3
f 3/2/2 21/6/3 20/3/2
f 4/5/3 5/7/4 22/8/4
f 4/5/3 22/8/4 21/6/3
f 5/7/4 6/9/5 23/10/5
f 5/7/4 23/10/5 22/8/4
f 6/9/5 7/11/6 24/12/6
f 6/9/5 24/12/6 23/10/5
f 7/11/6 8/13/7 25/14/7
f 7/11/6 25/14/7 24/12/6
f 8/13/7 9/15/8 26/16/8
f 8/13/7 26/16/8 25/14/7
f 9/15/8 10/17/9 27/18/9
f 9/15/8 27/18/9 26/16/8
f 10/17/9 11/19/10 28/20/10
f 10/17/9 28/20/10 27/18/9
f 11/19/10 12/21/11 29/22/11
f 11/19/10 29/22/11 28/20/10
f 12/21/11 13/23/12 30/24/12
f 12/21/11 30/24/12 29/22/11
f 13/23/12 14/25/13 31/26/13
f 13/23/12 31/26/13 30/24/12
f 14/25/13 15/27/14 32/28/14
f 14/25/13 32/28/14 31/26/13
f 15/27/14 16/29/15 33/30/15
f 15/27/14 33/30/15 32/28/14
f 16/29/15 17/31/16 34/32/16
f 16/29/15 34/32/16 33/30/15
f 17/31/16 1/33/17 18/34/17
f 17/31/16 18/34/17 34/32/16
