# Blender3D v249 OBJ File: addshotgun.blend
# www.blender3d.org
mtllib addshotgun.mtl
v 0.353553 -0.050000 -0.353553
v 0.129409 -0.050000 0.482963
v -0.482963 -0.050000 -0.129410
v 0.353554 0.050000 -0.353553
v 0.129409 0.050000 0.482963
v -0.482963 0.050000 -0.129410
v 0.000000 -0.050000 0.000000
v 0.000000 0.050000 -0.000000
vt 0.500000 0.421890
vt 0.500000 1.019607
vt 1.017638 0.123031
vt -0.017638 0.123032
vt -0.017638 0.123031
vn 0.000000 -1.000000 0.000000
vn -0.000000 1.000000 -0.000000
vn -0.258819 0.000002 -0.965926
vn -0.258819 0.000001 -0.965926
vn -0.707107 -0.000002 0.707107
vn -0.707107 -0.000001 0.707107
vn 0.965926 -0.000002 0.258819
vn 0.965926 0.000002 0.258820
usemtl Material_medpack.png
s off
f 7/1/1 1/2/1 2/3/1
f 8/1/2 5/3/2 4/2/2
f 7/1/1 2/3/1 3/4/1
f 8/1/2 6/5/2 5/3/2
f 3/4/1 1/2/1 7/1/1
f 8/1/2 4/2/2 6/5/2
f 4/2/3 1/2/3 3/4/3
f 4/2/4 3/4/4 6/5/4
f 2/3/5 5/3/5 6/5/5
f 2/3/6 6/5/6 3/4/6
f 1/2/7 4/2/7 2/3/7
f 4/2/8 5/3/8 2/3/8
