# Blender3D v249 OBJ File: fatalshot.blend
# www.blender3d.org
mtllib fatalshot.mtl
v 0.353553 -0.000000 -0.353553
v 0.500000 0.000000 0.000000
v 0.353553 0.000000 0.353553
v -0.000000 0.000000 0.500000
v -0.353553 0.000000 0.353553
v -0.500000 -0.000000 -0.000000
v -0.353553 -0.000000 -0.353553
v -0.000000 -0.000000 -0.500000
v 0.000000 0.000000 0.000000
v 0.000000 0.100000 -0.000000
v -0.000000 0.100000 -0.500000
v -0.353553 0.100000 -0.353553
v -0.500000 0.100000 -0.000000
v -0.353553 0.100000 0.353553
v -0.000000 0.100000 0.500000
v 0.353553 0.100000 0.353553
v 0.500000 0.100000 0.000000
v 0.353553 0.100000 -0.353553
vt 0.500000 0.500000
vt 0.853553 0.146447
vt 1.000000 0.500000
vt 0.853553 0.853553
vt 0.500000 1.000000
vt 0.146447 0.853553
vt 0.000000 0.500000
vt 0.146447 0.146447
vt 0.500000 0.000000
vn 0.000000 -1.000000 0.000000
vn 0.000000 1.000000 -0.000000
vn 0.923880 0.000000 -0.382683
vn 0.923880 0.000000 0.382683
vn 0.382683 0.000000 0.923880
vn -0.382684 0.000000 0.923880
vn -0.923880 0.000000 0.382683
vn -0.923880 -0.000000 -0.382683
vn -0.382684 0.000000 -0.923879
vn 0.382683 0.000000 -0.923880
usemtl Material_medpack.png
s off
f 9/1/1 1/2/1 2/3/1
f 9/1/1 2/3/1 3/4/1
f 9/1/1 3/4/1 4/5/1
f 9/1/1 4/5/1 5/6/1
f 9/1/1 5/6/1 6/7/1
f 9/1/1 6/7/1 7/8/1
f 9/1/1 7/8/1 8/9/1
f 8/9/1 1/2/1 9/1/1
f 17/3/2 18/4/2 10/1/2
f 16/2/2 17/3/2 10/1/2
f 15/9/2 16/2/2 10/1/2
f 14/8/2 15/9/2 10/1/2
f 13/7/2 14/8/2 10/1/2
f 12/6/2 13/7/2 10/1/2
f 11/5/2 12/6/2 10/1/2
f 10/1/2 18/4/2 11/5/2
f 2/3/3 1/2/3 18/2/3
f 2/3/3 18/2/3 17/3/3
f 3/4/4 2/3/4 17/3/4
f 3/4/4 17/3/4 16/4/4
f 4/5/5 3/4/5 16/4/5
f 4/5/5 16/4/5 15/5/5
f 5/6/6 4/5/6 15/5/6
f 5/6/6 15/5/6 14/6/6
f 6/7/7 5/6/7 14/6/7
f 6/7/7 14/6/7 13/7/7
f 7/8/8 6/7/8 13/7/8
f 7/8/8 13/7/8 12/8/8
f 8/9/9 7/8/9 12/8/9
f 8/9/9 12/8/9 11/9/9
f 1/2/10 8/9/10 11/9/10
f 1/2/10 11/9/10 18/2/10
