# Blender3D v249 OBJ File: silde.blend
# www.blender3d.org
mtllib silde.mtl
v 24.000002 2.999999 -24.000002
v 24.000002 3.000001 24.000002
v -24.000006 3.000001 23.999996
v -23.999992 2.999999 -24.000011
v 17.999996 3.000001 27.000000
v 5.399999 3.000001 24.300003
v -5.400003 3.000001 24.299999
v -18.000002 3.000001 26.999998
v 18.000000 2.999999 -27.000002
v 5.400004 2.999999 -24.300007
v -5.399995 2.999999 -24.300011
v -17.999990 2.999999 -27.000008
v 27.000002 2.999999 -16.200001
v 24.300003 3.000000 -4.860001
v 24.300003 3.000000 4.860002
v 27.000002 3.000001 16.200001
v -27.000000 3.000001 16.199995
v -24.300001 3.000000 4.859993
v -24.299999 3.000000 -4.860009
v -26.999994 2.999999 -16.200010
v 17.999998 0.000001 17.999998
v 18.000000 0.000000 5.999999
v 18.000000 -0.000000 -6.000002
v 18.000002 -0.000001 -18.000000
v 6.000000 0.000001 17.999996
v 6.000000 -2.999999 5.999997
v 6.000002 -3.000000 -6.000004
v 6.000003 -0.000001 -18.000004
v -6.000002 0.000001 17.999996
v -6.000000 -2.999999 5.999995
v -5.999999 -3.000000 -6.000007
v -5.999997 -0.000001 -18.000008
v -18.000002 0.000001 17.999996
v -17.999998 0.000000 5.999995
v -17.999996 -0.000000 -6.000007
v -17.999994 -0.000001 -18.000008
vt 1.489100 1.096948
vt 1.488480 1.489558
vt 1.080960 1.081223
vt 1.095870 1.488939
vt 1.498456 0.699950
vt 1.083490 0.696180
vt 1.500000 0.303422
vt 1.086036 0.306291
vt 1.494393 -0.093227
vt 1.082732 -0.079660
vt 1.494627 -0.491259
vt 1.096594 -0.491492
vt 0.699733 1.497199
vt 0.696741 1.084077
vt 0.685748 0.683898
vt 0.684984 0.315668
vt 0.696206 -0.082754
vt 0.699751 -0.497694
vt 0.305095 1.497197
vt 0.307746 1.084701
vt 0.316775 0.687466
vt 0.317728 0.319189
vt 0.305741 -0.083601
vt 0.301691 -0.499066
vt -0.076930 1.083462
vt -0.087656 1.492295
vt -0.081029 0.699794
vt -0.084514 0.309334
vt -0.082281 -0.078871
vt -0.097180 -0.492367
vt -0.481238 1.495974
vt -0.484917 1.102391
vt -0.496619 0.705277
vt -0.500000 0.307638
vt -0.495797 -0.091174
vt -0.497085 -0.491079
vn 0.349742 0.936796 -0.005799
vn 0.248512 0.942625 -0.222785
vn 0.110050 0.975219 -0.191778
vn 0.044557 0.947722 -0.315897
vn 0.422101 0.905179 0.049257
vn 0.235908 0.970824 -0.042146
vn 0.422681 0.905087 -0.045839
vn 0.234657 0.971160 0.042146
vn 0.349742 0.936796 0.005799
vn 0.110050 0.975219 0.191778
vn 0.248512 0.942625 0.222785
vn 0.044557 0.947722 0.315897
vn -0.032105 0.925779 -0.376629
vn 0.056032 0.973907 -0.219825
vn 0.120487 0.985351 -0.120487
vn 0.118320 0.985626 0.120487
vn 0.056429 0.974242 0.218268
vn -0.030488 0.924741 0.379345
vn 0.030488 0.924741 -0.379345
vn -0.056032 0.974212 -0.218421
vn -0.119358 0.985626 -0.119358
vn -0.121586 0.985351 0.119358
vn -0.055635 0.973907 0.219977
vn 0.032105 0.925779 0.376629
vn -0.110050 0.975219 -0.191778
vn -0.044557 0.947722 -0.315897
vn -0.235969 0.970855 -0.041871
vn -0.234596 0.971160 0.042421
vn -0.110050 0.975219 0.191778
vn -0.044557 0.947722 0.315897
vn -0.248512 0.942625 -0.222785
vn -0.349742 0.936796 -0.005799
vn -0.422101 0.905179 0.049257
vn -0.422681 0.905087 -0.045839
vn -0.349742 0.936796 0.005799
vn -0.248512 0.942625 0.222785
usemtl Material_metal047.jpg
s 1
f 17/1/1 3/2/2 33/3/3
f 3/2/2 8/4/4 33/3/3
f 18/5/5 17/1/1 34/6/6
f 17/1/1 33/3/3 34/6/6
f 19/7/7 18/5/5 34/6/6
f 19/7/7 34/6/6 35/8/8
f 20/9/9 19/7/7 35/8/8
f 20/9/9 35/8/8 36/10/10
f 4/11/11 20/9/9 36/10/10
f 4/11/11 36/10/10 12/12/12
f 33/3/3 8/4/4 7/13/13
f 33/3/3 7/13/13 29/14/14
f 34/6/6 33/3/3 29/14/14
f 34/6/6 29/14/14 30/15/15
f 35/8/8 34/6/6 30/15/15
f 35/8/8 30/15/15 31/16/16
f 36/10/10 35/8/8 32/17/17
f 35/8/8 31/16/16 32/17/17
f 12/12/12 36/10/10 11/18/18
f 36/10/10 32/17/17 11/18/18
f 29/14/14 7/13/13 6/19/19
f 29/14/14 6/19/19 25/20/20
f 30/15/15 29/14/14 25/20/20
f 30/15/15 25/20/20 26/21/21
f 31/16/16 30/15/15 26/21/21
f 31/16/16 26/21/21 27/22/22
f 32/17/17 31/16/16 28/23/23
f 31/16/16 27/22/22 28/23/23
f 11/18/18 32/17/17 28/23/23
f 11/18/18 28/23/23 10/24/24
f 25/20/20 6/19/19 21/25/25
f 6/19/19 5/26/26 21/25/25
f 26/21/21 25/20/20 22/27/27
f 25/20/20 21/25/25 22/27/27
f 27/22/22 26/21/21 22/27/27
f 27/22/22 22/27/27 23/28/28
f 28/23/23 27/22/22 23/28/28
f 28/23/23 23/28/28 24/29/29
f 10/24/24 28/23/23 24/29/29
f 10/24/24 24/29/29 9/30/30
f 21/25/25 5/26/26 2/31/31
f 21/25/25 2/31/31 16/32/32
f 22/27/27 21/25/25 16/32/32
f 22/27/27 16/32/32 15/33/33
f 23/28/28 22/27/27 14/34/34
f 22/27/27 15/33/33 14/34/34
f 24/29/29 23/28/28 13/35/35
f 23/28/28 14/34/34 13/35/35
f 13/35/35 1/36/36 24/29/29
f 1/36/36 9/30/30 24/29/29
