# Blender3D v249 OBJ File: sunshine.blend
# www.blender3d.org
mtllib sunshine.mtl
v 30.000000 -0.000001 -29.999998
v 30.000000 0.000001 30.000000
v -30.000004 0.000001 29.999994
v -29.999989 -0.000001 -30.000011
v 30.000000 -0.000000 -9.999998
v 30.000000 0.000000 10.000002
v -29.999998 0.000000 9.999992
v -29.999994 -0.000000 -10.000010
v 9.999998 0.000001 29.999998
v -10.000004 0.000001 29.999996
v 10.000003 -0.000001 -30.000004
v -9.999994 -0.000001 -30.000008
v -9.999996 -2.665995 -10.000007
v 10.000003 -4.065995 -10.000002
v 10.000000 -2.665994 9.999999
v -10.000000 -4.065994 9.999996
v -20.000004 0.000001 29.999996
v -19.999992 -0.000001 -30.000008
v -19.999996 2.499999 -10.000009
v -19.999998 2.500000 9.999994
v 30.000000 0.000001 20.000000
v -30.000000 0.000001 19.999994
v -10.000002 2.500001 19.999994
v 9.999999 2.500001 19.999998
v -20.000002 2.500001 19.999994
v 19.999998 0.000001 30.000000
v 20.000002 -0.000001 -30.000000
v 20.000002 2.499999 -10.000000
v 20.000000 2.500000 10.000000
v 19.999998 2.500001 19.999998
v 30.000000 -0.000001 -19.999998
v -29.999992 -0.000001 -20.000010
v -9.999995 2.499999 -20.000006
v 10.000003 2.499999 -20.000002
v -19.999994 2.499999 -20.000008
v 20.000002 2.499999 -20.000000
v -9.999998 -2.665994 -0.000005
v 10.000001 -2.665994 -0.000002
v -3.333329 -3.365995 -10.000005
v 3.333337 -2.665995 -10.000004
v 3.333333 -3.365994 9.999998
v -3.333334 -2.665994 9.999997
vt 1.607581 0.472829
vt 3.055137 -0.766661
vt 3.054679 1.759524
vt 1.642838 1.603859
vt 1.588253 -0.575137
vt -0.603906 0.507836
vt -2.053495 1.746124
vt -2.048449 -0.779644
vt -0.637150 -0.623746
vt -0.586339 1.556543
vt 0.146639 1.614695
vt -0.763924 3.029259
vt 0.889886 1.555788
vt 1.758170 3.027143
vt 0.857279 -0.632195
vt 1.758826 -2.042229
vt 0.115463 -0.574235
vt -0.747905 -2.050884
vt -3.416617 -2.142262
vt -3.403543 -3.454854
vt -2.090952 -3.441780
vt -2.005806 -2.032299
vt -3.479983 -0.841025
vt -0.792344 -3.481250
vt 1.799861 -3.476918
vt 3.105690 -3.438021
vt 3.017953 -2.020803
vt 4.437188 -2.125178
vt 4.427872 -3.447355
vt 4.492332 -0.815671
vt -2.026140 2.999743
vt -3.500000 1.775382
vt -3.439841 3.103385
vt -0.811847 4.475893
vt -2.136175 4.411139
vt -3.441892 4.409107
vt 3.016661 3.013079
vt 1.787367 4.475803
vt 3.111612 4.424243
vt 4.500000 1.809225
vt 4.425792 3.132058
vt 4.414795 4.435242
vn 0.151524 0.987152 0.050264
vn 0.189856 0.975066 0.114750
vn 0.271523 0.954405 -0.123875
vn 0.173101 0.963042 -0.206336
vn 0.275430 0.934996 0.223365
vn -0.151524 0.987152 -0.050264
vn -0.191748 0.974639 -0.115238
vn -0.271523 0.954405 0.123875
vn -0.173101 0.963042 0.206336
vn -0.275430 0.934996 -0.223365
vn 0.013367 0.975585 -0.219092
vn -0.099094 0.967498 -0.232643
vn -0.045351 0.976409 -0.211066
vn 0.111667 0.953246 -0.280770
vn -0.013367 0.975585 0.219092
vn 0.098727 0.967956 0.230811
vn 0.045351 0.976409 0.211066
vn -0.111332 0.953795 0.279031
vn 0.168645 0.978820 -0.115909
vn 0.000000 1.000000 0.000000
vn 0.114231 0.978820 -0.169744
vn 0.121586 0.985351 -0.119358
vn 0.242531 0.970122 0.000000
vn 0.000000 0.970122 -0.242531
vn -0.114231 0.978820 -0.169744
vn -0.120457 0.985382 -0.120457
vn -0.169744 0.978820 -0.114231
vn -0.242531 0.970122 0.000000
vn 0.120487 0.985351 0.120487
vn 0.168645 0.978820 0.115909
vn 0.000000 0.970122 0.242531
vn 0.115909 0.978820 0.168645
vn -0.120487 0.985351 0.120487
vn -0.115909 0.978820 0.168645
vn -0.168645 0.978820 0.115909
usemtl Material.001_sand017.jpg
s 1
f 37/1/1 19/2/2 20/3/3
f 16/4/4 37/1/1 20/3/3
f 37/1/1 13/5/5 19/2/2
f 38/6/6 29/7/7 28/8/8
f 14/9/9 38/6/6 28/8/8
f 38/6/6 15/10/10 29/7/7
f 15/10/10 41/11/11 24/12/12
f 42/13/13 16/4/4 23/14/14
f 13/5/5 39/15/15 33/16/16
f 40/17/17 14/9/9 34/18/18
f 16/4/4 42/13/13 37/1/1
f 41/11/11 15/10/10 38/6/6
f 14/9/9 40/17/17 38/6/6
f 39/15/15 13/5/5 37/1/1
f 40/17/17 39/15/15 37/1/1
f 40/17/17 37/1/1 38/6/6
f 42/13/13 41/11/11 38/6/6
f 42/13/13 38/6/6 37/1/1
f 39/15/15 40/17/17 33/16/16
f 40/17/17 34/18/18 33/16/16
f 41/11/11 42/13/13 24/12/12
f 42/13/13 23/14/14 24/12/12
f 31/19/19 1/20/20 27/21/21
f 31/19/19 27/21/21 36/22/22
f 5/23/23 31/19/19 36/22/22
f 5/23/23 36/22/22 28/8/8
f 36/22/22 27/21/21 34/18/18
f 27/21/21 11/24/24 34/18/18
f 28/8/8 36/22/22 34/18/18
f 28/8/8 34/18/18 14/9/9
f 33/16/16 12/25/24 18/26/25
f 33/16/16 18/26/25 35/27/26
f 13/5/5 33/16/16 19/2/2
f 33/16/16 35/27/26 19/2/2
f 35/27/26 18/26/25 32/28/27
f 18/26/25 4/29/20 32/28/27
f 19/2/2 35/27/26 32/28/27
f 19/2/2 32/28/27 8/30/28
f 34/18/18 11/24/24 12/25/24
f 34/18/18 12/25/24 33/16/16
f 29/7/7 15/10/10 24/12/12
f 29/7/7 24/12/12 30/31/29
f 6/32/23 29/7/7 30/31/29
f 6/32/23 30/31/29 21/33/30
f 30/31/29 24/12/12 9/34/31
f 30/31/29 9/34/31 26/35/32
f 21/33/30 30/31/29 26/35/32
f 21/33/30 26/35/32 2/36/20
f 29/7/7 6/32/23 5/23/23
f 29/7/7 5/23/23 28/8/8
f 23/14/14 16/4/4 20/3/3
f 23/14/14 20/3/3 25/37/33
f 10/38/31 23/14/14 25/37/33
f 10/38/31 25/37/33 17/39/34
f 25/37/33 20/3/3 7/40/28
f 25/37/33 7/40/28 22/41/35
f 17/39/34 25/37/33 22/41/35
f 17/39/34 22/41/35 3/42/20
f 9/34/31 24/12/12 23/14/14
f 9/34/31 23/14/14 10/38/31
f 7/40/28 20/3/3 19/2/2
f 7/40/28 19/2/2 8/30/28
