# Blender3D v249 OBJ File: taravel.blend
# www.blender3d.org
mtllib taravel.mtl
v 30.000004 7.500000 -7.499997
v 29.999996 7.500000 7.500004
v -30.000004 7.500000 7.499995
v -29.999996 7.500000 -7.500003
v 19.999990 5.250000 15.000003
v -0.000009 2.000001 15.000000
v -20.000008 5.250000 14.999996
v 20.000008 5.250000 -14.999997
v 0.000007 1.999999 -15.000000
v -19.999990 5.250000 -15.000001
v 20.000000 -1.000000 -7.500001
v 0.000003 -1.000000 -7.500003
v -19.999994 -1.000000 -7.500004
v 20.000000 -1.000000 7.500000
v -0.000001 -1.000000 7.499998
v -20.000000 -1.000000 7.499996
v -20.000000 9.500000 -7.500000
v 0.000003 3.000000 -7.499997
v 20.000006 9.500000 -7.499994
v -20.000008 9.500000 7.499997
v -0.000009 3.000000 7.500002
v 19.999992 9.500000 7.500005
v 27.500006 7.437500 -13.124996
v 27.499994 7.437500 13.125004
v -27.500006 7.437500 13.124995
v -27.499994 7.437500 -13.125002
v 27.500000 1.125000 -7.499999
v 27.500000 1.125000 7.500001
v -27.500000 1.125000 7.499996
v -27.499994 1.125000 -7.500004
v 27.500006 12.250000 -7.499994
v 27.499994 12.250000 7.500006
v -27.500006 12.250000 7.499996
v -27.500000 12.250000 -7.500002
v 30.000000 7.000000 0.000004
v -30.000000 7.000000 -0.000004
v 20.000004 0.562499 -13.125000
v 0.000005 -0.250001 -13.125003
v -19.999990 0.562499 -13.125004
v 19.999998 0.562501 13.125001
v -0.000004 -0.249999 13.124998
v -20.000004 0.562501 13.124996
v 20.000010 9.437499 -13.124994
v 0.000007 3.750000 -13.124997
v -19.999994 9.437499 -13.124999
v 19.999987 9.437501 13.125006
v -0.000012 3.750000 13.125002
v -20.000011 9.437501 13.124996
v 20.000000 -1.000000 -0.000001
v 0.000001 -1.000000 -0.000002
v -19.999998 -1.000000 -0.000004
v 20.000000 8.500000 0.000006
v -0.000003 2.000000 0.000002
v -20.000004 8.500000 -0.000002
v 9.999990 2.812501 15.000002
v -10.000010 2.812501 14.999998
v 10.000008 2.812499 -14.999998
v -9.999992 2.812499 -15.000000
v 10.000002 -1.000000 -7.500002
v -9.999996 -1.000000 -7.500003
v 10.000000 -1.000000 7.499999
v -10.000001 -1.000000 7.499997
v -9.999998 4.625000 -7.499998
v 10.000004 4.625000 -7.499996
v -10.000009 4.625000 7.500000
v 9.999990 4.625000 7.500004
v 25.555557 2.750000 -11.666664
v 25.555552 2.750000 11.666669
v -25.555559 2.750000 11.666663
v -25.555548 2.750000 -11.666671
v 25.555563 10.472221 -11.666661
v 25.555548 10.472223 11.666672
v -25.555565 10.472223 11.666663
v -25.555552 10.472221 -11.666667
v 27.500000 1.000000 0.000001
v -27.499998 1.000000 -0.000004
v 27.500000 11.375000 0.000006
v -27.500002 11.375000 -0.000003
v 10.000004 -0.046876 -13.125001
v -9.999992 -0.046876 -13.125002
v 9.999997 -0.046874 13.125000
v -10.000004 -0.046874 13.124998
v 10.000008 5.171875 -13.124995
v -9.999994 5.171875 -13.124998
v 9.999988 5.171875 13.125004
v -10.000011 5.171875 13.124999
v 10.000001 -1.000000 -0.000002
v -9.999998 -1.000000 -0.000003
v 9.999998 3.625000 0.000004
v -10.000004 3.625000 0.000001
vt 0.500000 0.500000
vt 0.500000 1.500000
vt -0.500000 0.500000
vt -0.500000 1.500000
vt 1.500000 0.500000
vt 1.500000 1.500000
vt 0.500000 -0.500000
vt 1.500000 -0.500000
vt -0.500000 -0.500000
vn -0.000000 -1.000000 0.000000
vn -0.272568 -0.962003 0.016033
vn -0.257663 -0.966235 -0.000000
vn -0.410093 -0.878771 0.244103
vn -0.243585 -0.859710 0.448960
vn -0.000000 -0.985946 0.167063
vn -0.058613 -0.961861 0.267184
vn -0.000000 -0.991228 0.132164
vn -0.020023 -0.985749 0.167030
vn 0.020023 -0.985749 0.167030
vn 0.257663 -0.966235 0.000000
vn 0.272568 -0.962003 0.016033
vn 0.058613 -0.961861 0.267184
vn 0.243584 -0.859710 0.448960
vn 0.410093 -0.878770 0.244103
vn -0.058613 -0.961861 -0.267184
vn 0.000000 -0.985946 -0.167063
vn -0.243585 -0.859710 -0.448960
vn -0.410093 -0.878770 -0.244103
vn -0.272568 -0.962003 -0.016033
vn 0.000000 -0.991228 -0.132164
vn 0.020023 -0.985749 -0.167030
vn -0.020023 -0.985749 -0.167030
vn 0.272568 -0.962003 -0.016033
vn 0.410093 -0.878770 -0.244103
vn 0.243585 -0.859710 -0.448960
vn 0.058613 -0.961861 -0.267184
vn 0.171732 0.402594 -0.899125
vn 0.149938 0.615130 -0.774037
vn -0.108336 0.406260 -0.907313
vn -0.132538 0.497020 -0.857557
vn -0.363313 -0.346012 -0.865031
vn -0.330826 -0.402744 -0.853435
vn -0.090158 -0.369878 -0.924696
vn -0.033397 -0.548051 -0.835778
vn -0.059294 0.729770 -0.681117
vn -0.088120 0.619743 -0.779842
vn 0.059294 0.729770 -0.681117
vn 0.088120 0.619743 -0.779842
vn -0.013003 -0.640130 -0.768157
vn -0.044510 -0.547813 -0.835416
vn 0.044510 -0.547813 -0.835416
vn 0.013003 -0.640130 -0.768157
vn 0.108336 0.406260 -0.907313
vn 0.132539 0.497021 -0.857557
vn -0.149938 0.615130 -0.774037
vn -0.171731 0.402594 -0.899125
vn 0.090158 -0.369878 -0.924696
vn 0.033397 -0.548051 -0.835778
vn 0.330826 -0.402745 -0.853435
vn 0.363313 -0.346012 -0.865031
vn -0.090158 -0.369878 0.924695
vn -0.033397 -0.548051 0.835778
vn -0.330826 -0.402745 0.853435
vn -0.363313 -0.346013 0.865031
vn -0.108336 0.406259 0.907313
vn -0.132539 0.497020 0.857557
vn 0.149938 0.615129 0.774038
vn 0.171731 0.402594 0.899126
vn 0.013003 -0.640131 0.768156
vn 0.044510 -0.547814 0.835415
vn -0.044510 -0.547814 0.835416
vn -0.013003 -0.640131 0.768156
vn 0.059294 0.729769 0.681118
vn 0.088119 0.619742 0.779843
vn -0.059294 0.729769 0.681118
vn -0.088120 0.619742 0.779843
vn 0.363313 -0.346012 0.865031
vn 0.330826 -0.402745 0.853435
vn 0.090158 -0.369878 0.924695
vn 0.033397 -0.548051 0.835778
vn -0.171731 0.402593 0.899126
vn -0.149938 0.615129 0.774038
vn 0.108336 0.406259 0.907313
vn 0.132539 0.497020 0.857557
vn -0.930697 -0.364980 -0.024332
vn -0.923058 -0.384608 -0.006411
vn -0.817608 -0.450650 -0.358374
vn -0.806425 -0.316245 -0.499668
vn -0.754893 0.397312 -0.521804
vn -0.717255 0.616047 -0.325625
vn -0.867769 0.495867 0.033057
vn -0.883615 0.465060 0.054257
vn -0.806425 -0.316246 0.499667
vn -0.817608 -0.450650 0.358374
vn -0.930697 -0.364980 0.024332
vn -0.923058 -0.384608 0.006410
vn -0.883615 0.465060 -0.054257
vn -0.867769 0.495868 -0.033058
vn -0.717255 0.616046 0.325625
vn -0.754894 0.397312 0.521803
vn 0.930698 -0.364979 0.024332
vn 0.923058 -0.384607 0.006410
vn 0.817608 -0.450650 0.358374
vn 0.806425 -0.316245 0.499668
vn 0.754893 0.397312 0.521804
vn 0.717255 0.616047 0.325625
vn 0.867769 0.495868 -0.033057
vn 0.883615 0.465061 -0.054256
vn 0.883615 0.465060 0.054258
vn 0.867769 0.495868 0.033058
vn 0.717255 0.616047 -0.325625
vn 0.754894 0.397312 -0.521803
vn 0.806425 -0.316245 -0.499667
vn 0.817608 -0.450650 -0.358374
vn 0.930697 -0.364980 -0.024331
vn 0.923058 -0.384607 -0.006410
vn -0.326670 0.944487 0.034730
vn -0.398938 0.916959 0.000000
vn -0.294382 0.949400 -0.109317
vn -0.297433 0.954741 0.000000
vn 0.383862 0.901028 0.201910
vn 0.323710 0.946135 0.000000
vn -0.169225 0.809442 0.562212
vn 0.241462 0.818964 0.520524
vn -0.251350 0.861751 0.440626
vn 0.000000 0.991211 -0.132145
vn 0.000000 1.000000 0.000000
vn 0.297433 0.954741 0.000000
vn 0.294382 0.949400 -0.109317
vn 0.000000 0.925718 0.378155
vn 0.251350 0.861751 0.440626
vn 0.326670 0.944487 0.034730
vn 0.398938 0.916959 0.000000
vn -0.323710 0.946135 0.000000
vn -0.383862 0.901028 0.201910
vn 0.169225 0.809442 0.562212
vn -0.241462 0.818964 0.520524
vn -0.326670 0.944487 -0.034730
vn -0.169225 0.809442 -0.562212
vn -0.251350 0.861751 -0.440626
vn -0.294382 0.949400 0.109317
vn 0.383862 0.901028 -0.201910
vn 0.241462 0.818964 -0.520524
vn 0.000000 0.991211 0.132145
vn 0.000000 0.925718 -0.378155
vn 0.294382 0.949400 0.109317
vn 0.251350 0.861751 -0.440626
vn 0.326670 0.944487 -0.034730
vn 0.169225 0.809442 -0.562212
vn -0.241462 0.818964 -0.520524
vn -0.383862 0.901028 -0.201910
usemtl Material_Darkon_Tree02.jpg
s off
f 16/1/1 51/2/1 62/3/1
f 51/2/1 88/4/1 62/3/1
f 16/1/2 29/5/2 76/6/2
f 16/1/3 76/6/3 51/2/3
f 16/1/4 42/7/4 69/8/4
f 16/1/5 69/8/5 29/5/5
f 16/1/6 62/3/6 82/9/6
f 16/1/7 82/9/7 42/7/7
f 15/1/1 50/2/1 61/3/1
f 50/2/1 87/4/1 61/3/1
f 15/1/1 62/5/1 88/6/1
f 15/1/1 88/6/1 50/2/1
f 15/1/8 41/7/8 62/5/8
f 41/7/9 82/8/9 62/5/9
f 15/1/8 61/3/8 41/7/8
f 61/3/10 81/9/10 41/7/10
f 14/1/11 49/2/11 75/4/11
f 14/1/12 75/4/12 28/3/12
f 14/1/1 61/5/1 49/2/1
f 61/5/1 87/6/1 49/2/1
f 14/1/13 40/7/13 81/8/13
f 14/1/6 81/8/6 61/5/6
f 14/1/14 28/3/14 68/9/14
f 14/1/15 68/9/15 40/7/15
f 13/1/16 39/2/16 80/4/16
f 13/1/17 80/4/17 60/3/17
f 13/1/18 30/5/18 70/6/18
f 13/1/19 70/6/19 39/2/19
f 13/1/3 51/7/3 76/8/3
f 13/1/20 76/8/20 30/5/20
f 13/1/1 60/3/1 88/9/1
f 13/1/1 88/9/1 51/7/1
f 12/1/21 38/2/21 59/3/21
f 38/2/22 79/4/22 59/3/22
f 12/1/21 60/5/21 38/2/21
f 60/5/23 80/6/23 38/2/23
f 12/1/1 50/7/1 60/5/1
f 50/7/1 88/8/1 60/5/1
f 12/1/1 59/3/1 87/9/1
f 12/1/1 87/9/1 50/7/1
f 11/1/1 49/2/1 87/4/1
f 11/1/1 87/4/1 59/3/1
f 11/1/24 27/5/24 75/6/24
f 11/1/11 75/6/11 49/2/11
f 11/1/25 37/7/25 67/8/25
f 11/1/26 67/8/26 27/5/26
f 11/1/17 59/3/17 79/9/17
f 11/1/27 79/9/27 37/7/27
f 10/1/28 45/2/28 84/4/28
f 10/1/29 84/4/29 58/3/29
f 10/1/30 26/5/30 45/2/30
f 26/5/31 74/6/31 45/2/31
f 10/1/32 39/7/32 70/8/32
f 10/1/33 70/8/33 26/5/33
f 10/1/34 58/3/34 39/7/34
f 58/3/35 80/9/35 39/7/35
f 9/1/36 44/2/36 57/3/36
f 44/2/37 83/4/37 57/3/37
f 9/1/38 58/5/38 44/2/38
f 58/5/39 84/6/39 44/2/39
f 9/1/40 38/7/40 80/8/40
f 9/1/41 80/8/41 58/5/41
f 9/1/42 57/3/42 79/9/42
f 9/1/43 79/9/43 38/7/43
f 8/1/44 43/2/44 23/3/44
f 43/2/45 71/4/45 23/3/45
f 8/1/46 57/5/46 83/6/46
f 8/1/47 83/6/47 43/2/47
f 8/1/48 37/7/48 57/5/48
f 37/7/49 79/8/49 57/5/49
f 8/1/50 23/3/50 67/9/50
f 8/1/51 67/9/51 37/7/51
f 7/1/52 42/2/52 56/3/52
f 42/2/53 82/4/53 56/3/53
f 7/1/54 25/5/54 69/6/54
f 7/1/55 69/6/55 42/2/55
f 7/1/56 48/7/56 25/5/56
f 48/7/57 73/8/57 25/5/57
f 7/1/58 56/3/58 86/9/58
f 7/1/59 86/9/59 48/7/59
f 6/1/60 41/2/60 81/4/60
f 6/1/61 81/4/61 55/3/61
f 6/1/62 56/5/62 82/6/62
f 6/1/63 82/6/63 41/2/63
f 6/1/64 47/7/64 56/5/64
f 47/7/65 86/8/65 56/5/65
f 6/1/66 55/3/66 47/7/66
f 55/3/67 85/9/67 47/7/67
f 5/1/68 40/2/68 68/4/68
f 5/1/69 68/4/69 24/3/69
f 5/1/70 55/5/70 40/2/70
f 55/5/71 81/6/71 40/2/71
f 5/1/72 46/7/72 85/8/72
f 5/1/73 85/8/73 55/5/73
f 5/1/74 24/3/74 46/7/74
f 24/3/75 72/9/75 46/7/75
f 4/1/76 30/2/76 36/3/76
f 30/2/77 76/4/77 36/3/77
f 4/1/78 26/5/78 70/6/78
f 4/1/79 70/6/79 30/2/79
f 4/1/80 34/7/80 74/8/80
f 4/1/81 74/8/81 26/5/81
f 4/1/82 36/3/82 78/9/82
f 4/1/83 78/9/83 34/7/83
f 3/1/84 29/2/84 69/4/84
f 3/1/85 69/4/85 25/3/85
f 3/1/86 36/5/86 29/2/86
f 36/5/87 76/6/87 29/2/87
f 3/1/88 33/7/88 78/8/88
f 3/1/89 78/8/89 36/5/89
f 3/1/90 25/3/90 73/9/90
f 3/1/91 73/9/91 33/7/91
f 2/1/92 28/2/92 35/3/92
f 28/2/93 75/4/93 35/3/93
f 2/1/94 24/5/94 68/6/94
f 2/1/95 68/6/95 28/2/95
f 2/1/96 32/7/96 72/8/96
f 2/1/97 72/8/97 24/5/97
f 2/1/98 35/3/98 77/9/98
f 2/1/99 77/9/99 32/7/99
f 1/1/100 31/2/100 77/4/100
f 1/1/101 77/4/101 35/3/101
f 1/1/102 23/5/102 71/6/102
f 1/1/103 71/6/103 31/2/103
f 1/1/104 27/7/104 67/8/104
f 1/1/105 67/8/105 23/5/105
f 1/1/106 35/3/106 27/7/106
f 35/3/107 75/9/107 27/7/107
s 1
f 22/1/108 52/2/109 66/3/110
f 52/2/109 89/4/111 66/3/110
f 22/1/108 32/5/112 77/6/113
f 22/1/108 77/6/113 52/2/109
f 22/1/108 46/7/114 72/8/115
f 22/1/108 72/8/115 32/5/112
f 22/1/108 66/3/110 85/9/116
f 22/1/108 85/9/116 46/7/114
f 21/1/117 53/2/118 90/4/119
f 21/1/117 90/4/119 65/3/120
f 21/1/117 66/5/110 89/6/111
f 21/1/117 89/6/111 53/2/118
f 21/1/117 47/7/121 66/5/110
f 47/7/121 85/8/116 66/5/110
f 21/1/117 65/3/120 47/7/121
f 65/3/120 86/9/122 47/7/121
f 20/1/123 54/2/124 78/4/125
f 20/1/123 78/4/125 33/3/126
f 20/1/123 65/5/120 54/2/124
f 65/5/120 90/6/119 54/2/124
f 20/1/123 48/7/127 86/8/122
f 20/1/123 86/8/122 65/5/120
f 20/1/123 33/3/126 73/9/128
f 20/1/123 73/9/128 48/7/127
f 19/1/129 43/2/130 83/4/131
f 19/1/129 83/4/131 64/3/132
f 19/1/129 31/5/133 71/6/134
f 19/1/129 71/6/134 43/2/130
f 19/1/129 52/7/109 77/8/113
f 19/1/129 77/8/113 31/5/133
f 19/1/129 64/3/132 52/7/109
f 64/3/132 89/9/111 52/7/109
f 18/1/135 44/2/136 63/3/137
f 44/2/136 84/4/138 63/3/137
f 18/1/135 64/5/132 44/2/136
f 64/5/132 83/6/131 44/2/136
f 18/1/135 53/7/118 89/8/111
f 18/1/135 89/8/111 64/5/132
f 18/1/135 63/3/137 90/9/119
f 18/1/135 90/9/119 53/7/118
f 17/1/139 45/2/140 74/4/141
f 17/1/139 74/4/141 34/3/142
f 17/1/139 63/5/137 84/6/138
f 17/1/139 84/6/138 45/2/140
f 17/1/139 54/7/124 63/5/137
f 54/7/124 90/8/119 63/5/137
f 17/1/139 34/3/142 78/9/125
f 17/1/139 78/9/125 54/7/124
