# Blender3D v249 OBJ File: jumper.blend
# www.blender3d.org
mtllib jumper.mtl
v 0.642760 -0.101000 -0.642760
v 0.878027 -0.101000 0.235267
v 0.235266 -0.101000 0.878027
v -0.642760 -0.101000 0.642760
v -0.878027 -0.101000 -0.235267
v -0.235266 -0.101000 -0.878027
v 0.707107 -0.000000 -0.707107
v 0.965926 0.000000 0.258819
v 0.258819 0.000000 0.965926
v -0.707107 0.000000 0.707107
v -0.965926 -0.000000 -0.258819
v -0.258819 -0.000000 -0.965926
v 0.678823 0.102000 -0.678823
v 0.927289 0.102000 0.248466
v 0.248466 0.102000 0.927289
v -0.678823 0.102000 0.678822
v -0.927289 0.102000 -0.248467
v -0.248466 0.102000 -0.927289
vt 0.832717 0.832717
vt 0.954500 0.378217
vt 0.045500 0.621783
vt 0.378217 0.954500
vt 0.621783 0.045500
vt 0.167283 0.167283
vt 0.980000 0.371384
vt 0.020000 0.628616
vt 0.148615 0.148616
vt 0.628615 0.020000
vt 0.851384 0.851384
vt 0.371384 0.980000
vt 0.366026 1.000000
vt 0.866025 0.866025
vt 0.000000 0.633975
vt 0.133974 0.133975
vt 0.633974 0.000000
vt 1.000000 0.366025
vn 0.361278 -0.859615 -0.361278
vn 0.493149 -0.860073 0.130589
vn -0.493149 -0.860073 -0.130589
vn -0.133122 -0.857540 -0.496841
vn 0.134342 -0.858089 0.495590
vn -0.360851 -0.859066 0.362957
vn 0.656148 0.733451 0.177404
vn -0.656148 0.733451 -0.177404
vn -0.482864 0.731956 0.480697
vn 0.175268 0.730430 0.660085
vn 0.482406 0.731101 -0.482406
vn -0.176519 0.731284 -0.658803
vn -0.255440 -0.160680 -0.953368
vn 0.697256 -0.166295 -0.697256
vn -0.952971 -0.163488 -0.255104
vn -0.697409 -0.163488 0.697745
vn 0.255562 -0.163488 0.952849
vn 0.952971 -0.163488 0.255104
usemtl None_jumper.jpg.001
s 1
f 1/1/1 2/2/2 5/3/3
f 1/1/1 5/3/3 6/4/4
f 2/2/2 3/5/5 4/6/6
f 2/2/2 4/6/6 5/3/3
f 14/7/7 17/8/8 16/9/9
f 14/7/7 16/9/9 15/10/10
f 13/11/11 18/12/12 17/8/8
f 13/11/11 17/8/8 14/7/7
f 12/13/13 18/12/12 13/11/11
f 12/13/13 13/11/11 7/14/14
f 12/13/13 11/15/15 17/8/8
f 12/13/13 17/8/8 18/12/12
f 11/15/15 10/16/16 16/9/9
f 11/15/15 16/9/9 17/8/8
f 10/16/16 9/17/17 15/10/10
f 10/16/16 15/10/10 16/9/9
f 9/17/17 8/18/18 14/7/7
f 9/17/17 14/7/7 15/10/10
f 8/18/18 7/14/14 13/11/11
f 8/18/18 13/11/11 14/7/7
f 7/14/14 1/1/1 6/4/4
f 7/14/14 6/4/4 12/13/13
f 6/4/4 5/3/3 11/15/15
f 6/4/4 11/15/15 12/13/13
f 5/3/3 4/6/6 10/16/16
f 5/3/3 10/16/16 11/15/15
f 4/6/6 3/5/5 9/17/17
f 4/6/6 9/17/17 10/16/16
f 3/5/5 2/2/2 8/18/18
f 3/5/5 8/18/18 9/17/17
f 2/2/2 1/1/1 7/14/14
f 2/2/2 7/14/14 8/18/18
