<?xml version="1.0" encoding="UTF-8" standalone="no"?>
<!-- Created with Inkscape (http://www.inkscape.org/) -->
<svg xmlns:dc="http://purl.org/dc/elements/1.1/" xmlns:cc="http://creativecommons.org/ns#" xmlns:rdf="http://www.w3.org/1999/02/22-rdf-syntax-ns#" xmlns:svg="http://www.w3.org/2000/svg" xmlns="http://www.w3.org/2000/svg" xmlns:xlink="http://www.w3.org/1999/xlink" xmlns:sodipodi="http://sodipodi.sourceforge.net/DTD/sodipodi-0.dtd" xmlns:inkscape="http://www.inkscape.org/namespaces/inkscape" width="128" height="64" id="svg4315" version="1.1" inkscape:version="0.48.0 r9654" sodipodi:docname="swicth.svg" inkscape:export-filename="C:\Documents and Settings\Newin\Bureau\Ball\GUI\Img\GUI\Button\swicth.png" inkscape:export-xdpi="180" inkscape:export-ydpi="180">
  <defs id="defs4317">
    <linearGradient id="linearGradient3837">
      <stop style="stop-color:#00ccff;stop-opacity:1" offset="0" id="stop3839"/>
      <stop id="stop3847" offset="0.03571428" style="stop-color:#4d4d4d;stop-opacity:1;"/>
      <stop id="stop3845" offset="0.96428567" style="stop-color:#4d4d4d;stop-opacity:1;"/>
      <stop style="stop-color:#00ccff;stop-opacity:1" offset="1" id="stop3841"/>
    </linearGradient>
    <linearGradient inkscape:collect="always" xlink:href="#linearGradient3837" id="linearGradient3887" gradientUnits="userSpaceOnUse" x1="19.200001" y1="8" x2="108.8" y2="8"/>
  </defs>
  <sodipodi:namedview id="base" pagecolor="#ffffff" bordercolor="#666666" borderopacity="1.0" inkscape:pageopacity="0.0" inkscape:pageshadow="2" inkscape:zoom="4" inkscape:cx="126.94228" inkscape:cy="45.888846" inkscape:current-layer="layer1" showgrid="true" inkscape:document-units="px" inkscape:grid-bbox="true" inkscape:window-width="1920" inkscape:window-height="1037" inkscape:window-x="-4" inkscape:window-y="-4" inkscape:window-maximized="1" showguides="true" inkscape:guide-bbox="true">
    <inkscape:grid type="xygrid" id="grid4323" empspacing="4" visible="true" enabled="true" snapvisiblegridlinesonly="true" spacingx="0.08px" spacingy="0.08px"/>
    <sodipodi:guide orientation="0,1" position="0,32" id="guide4865"/>
    <sodipodi:guide orientation="0,1" position="0,96" id="guide4867"/>
    <sodipodi:guide orientation="0,1" position="0,64" id="guide4869"/>
    <sodipodi:guide orientation="0,1" position="0,48" id="guide2990"/>
    <sodipodi:guide orientation="0,1" position="0,16" id="guide2992"/>
  </sodipodi:namedview>
  <metadata id="metadata4320">
    <rdf:RDF>
      <cc:Work rdf:about="">
        <dc:format>image/svg+xml</dc:format>
        <dc:type rdf:resource="http://purl.org/dc/dcmitype/StillImage"/>
        <dc:title/>
      </cc:Work>
    </rdf:RDF>
  </metadata>
  <g id="layer1" inkscape:label="Layer 1" inkscape:groupmode="layer">
    <g id="g3997">
      <rect y="0" x="17.92" height="16" width="92.160004" id="rect3999" style="fill:#ffffff;stroke:none"/>
      <g style="fill:#ffffff" id="g4001">
        <path sodipodi:nodetypes="cccccc" inkscape:connector-curvature="0" d="m 17.92,0.24 92.16,0 z m 0,15.52 92.16,0 z" style="fill:none;stroke:#666666;stroke-width:0.47999998999999999;stroke-linecap:butt;stroke-linejoin:miter;stroke-miterlimit:4;stroke-opacity:1;stroke-dasharray:none" id="path4003"/>
      </g>
    </g>
    <g transform="translate(0, 16)" id="g4005">
      <rect y="0" x="17.92" height="16" width="92.160004" id="rect4007" style="fill:#ffffff;stroke:none"/>
      <g style="fill:#ffffff" id="g4009">
        <path sodipodi:nodetypes="cccccc" inkscape:connector-curvature="0" d="m 17.92,0.24 92.16,0 z m 0,15.52 92.16,0 z" style="fill:none;stroke:#666666;stroke-width:0.47999998999999999;stroke-linecap:butt;stroke-linejoin:miter;stroke-miterlimit:4;stroke-opacity:1;stroke-dasharray:none" id="path4011"/>
      </g>
    </g>
    <g transform="translate(0, 32)" id="g4013">
      <rect y="0" x="17.92" height="16" width="92.160004" id="rect4015" style="fill:#ffffff;stroke:none"/>
      <g style="fill:#ffffff" id="g4017">
        <path sodipodi:nodetypes="cccccc" inkscape:connector-curvature="0" d="m 17.92,0.24 92.16,0 z m 0,15.52 92.16,0 z" style="fill:none;stroke:#666666;stroke-width:0.47999998999999999;stroke-linecap:butt;stroke-linejoin:miter;stroke-miterlimit:4;stroke-opacity:1;stroke-dasharray:none" id="path4019"/>
      </g>
    </g>
    <g id="g3989" transform="translate(0, 48)">
      <rect style="fill:#ffffff;stroke:none" id="rect3991" width="92.160004" height="16" x="17.92" y="0"/>
      <g id="g3993" style="fill:#ffffff">
        <path id="path3995" style="fill:none;stroke:#c4c4c4;stroke-width:0.47999998999999999;stroke-linecap:butt;stroke-linejoin:miter;stroke-miterlimit:4;stroke-opacity:1;stroke-dasharray:none" d="m 17.92,0.24 92.16,0 z m 0,15.52 92.16,0 z" inkscape:connector-curvature="0" sodipodi:nodetypes="cccccc"/>
      </g>
    </g>
    <path sodipodi:nodetypes="sccssss" inkscape:connector-curvature="0" id="path3897" d="m 3.2,0 16,0 0,16 -16,0 C 1.4272,16 0,14.5728 0,12.8 L 0,3.2 C 0,1.4272 1.4272,0 3.2,0 z" style="fill:#666666;fill-opacity:1;fill-rule:nonzero;stroke:none"/>
    <path style="fill:#666666;fill-opacity:1;fill-rule:nonzero;stroke:none" d="m 124.8,0 -16,0 0,16 16,0 c 1.7728,0 3.2,-1.4272 3.2,-3.2 l 0,-9.6 C 128,1.4272 126.5728,0 124.8,0 z" id="path3899" inkscape:connector-curvature="0" sodipodi:nodetypes="sccssss"/>
    <path inkscape:connector-curvature="0" id="path3905" d="M 12.8,10.4 12.8,5.6 5.6,8 z" style="fill:#ffffff;fill-opacity:1;stroke:none"/>
    <path style="fill:#ffffff;fill-opacity:1;stroke:none" d="m 115.2,10.4 0,-4.8 7.2,2.4 z" id="path3907" inkscape:connector-curvature="0"/>
    <path style="fill:#c4c4c4;fill-opacity:1;fill-rule:nonzero;stroke:none" d="m 3.2,48 16,0 0,16 -16,0 C 1.4272,64 0,62.5728 0,60.8 L 0,51.2 C 0,49.4272 1.4272,48 3.2,48 z" id="path3821" inkscape:connector-curvature="0" sodipodi:nodetypes="sccssss"/>
    <path sodipodi:nodetypes="sccssss" inkscape:connector-curvature="0" id="path3823" d="m 124.8,48 -16,0 0,16 16,0 c 1.7728,0 3.2,-1.4272 3.2,-3.2 l 0,-9.6 c 0,-1.7728 -1.4272,-3.2 -3.2,-3.2 z" style="fill:#c4c4c4;fill-opacity:1;fill-rule:nonzero;stroke:none"/>
    <path style="fill:#ffffff;fill-opacity:1;stroke:none" d="m 12.8,58.4 0,-4.8 -7.2,2.4 z" id="path3829" inkscape:connector-curvature="0"/>
    <path inkscape:connector-curvature="0" id="path3831" d="m 115.2,58.4 0,-4.8 7.2,2.4 z" style="fill:#ffffff;fill-opacity:1;stroke:none"/>
    <g transform="translate(0, 16)" id="g3865">
      <path sodipodi:nodetypes="sccssss" inkscape:connector-curvature="0" id="path3875" d="m 3.2,0 16,0 0,16 -16,0 C 1.4272,16 0,14.5728 0,12.8 L 0,3.2 C 0,1.4272 1.4272,0 3.2,0 z" style="fill:#00ccff;fill-opacity:1;fill-rule:nonzero;stroke:none"/>
      <path inkscape:connector-curvature="0" id="path3877" d="M 12.8,10.4 12.8,5.6 5.6,8 z" style="fill:#ffffff;fill-opacity:1;stroke:none"/>
      <path style="fill:#00ccff;fill-opacity:1;fill-rule:nonzero;stroke:none" d="m 124.8,0 -16,0 0,16 16,0 c 1.7728,0 3.2,-1.4272 3.2,-3.2 l 0,-9.6 C 128,1.4272 126.5728,0 124.8,0 z" id="path3879" inkscape:connector-curvature="0" sodipodi:nodetypes="sccssss"/>
      <path style="fill:#ffffff;fill-opacity:1;stroke:none" d="m 115.2,10.4 0,-4.8 7.2,2.4 z" id="path3881" inkscape:connector-curvature="0"/>
    </g>
    <path sodipodi:nodetypes="sccssss" inkscape:connector-curvature="0" id="path3863" d="m 3.2,32 16,0 0,16 -16,0 C 1.4272,48 0,46.5728 0,44.8 L 0,35.2 C 0,33.4272 1.4272,32 3.2,32 z" style="fill:#00ccff;fill-opacity:1;fill-rule:nonzero;stroke:none"/>
    <path inkscape:connector-curvature="0" id="path3806" d="m 11.2,42.4 0,-4.8 L 4,40 z" style="fill:#ffffff;fill-opacity:1;stroke:none"/>
    <path style="fill:#00ccff;fill-opacity:1;fill-rule:nonzero;stroke:none" d="m 124.8,32 -16,0 0,16 16,0 c 1.7728,0 3.2,-1.4272 3.2,-3.2 l 0,-9.6 c 0,-1.7728 -1.4272,-3.2 -3.2,-3.2 z" id="rect3023" inkscape:connector-curvature="0" sodipodi:nodetypes="sccssss"/>
    <path style="fill:#ffffff;fill-opacity:1;stroke:none" d="m 116.8,42.4 0,-4.8 7.2,2.4 z" id="path3804" inkscape:connector-curvature="0"/>
  </g>
</svg>