# Blender3D v249 OBJ File: ammopack.blend
# www.blender3d.org
mtllib ammopack.mtl
v 0.187500 -0.250000 -0.187500
v 0.187500 -0.250000 0.187500
v -0.187500 -0.250000 0.187500
v -0.187500 -0.250000 -0.187500
v 0.187500 0.250000 -0.187500
v -0.187500 0.250000 -0.187500
v -0.187500 0.250000 0.187500
v 0.187500 0.250000 0.187500
v 0.250000 -0.187500 -0.187500
v 0.250000 0.187500 -0.187500
v 0.250000 0.187500 0.187500
v 0.250000 -0.187500 0.187500
v 0.187500 -0.187500 0.250000
v 0.187500 0.187500 0.250000
v -0.187500 0.187500 0.250000
v -0.187500 -0.187500 0.250000
v -0.250000 -0.187500 0.187500
v -0.250000 0.187500 0.187500
v -0.250000 0.187500 -0.187500
v -0.250000 -0.187500 -0.187500
v 0.187500 0.187500 -0.250000
v 0.187500 -0.187500 -0.250000
v -0.187500 -0.187500 -0.250000
v -0.187500 0.187500 -0.250000
vt 0.000000 0.000000
vt 1.000000 0.000000
vt 1.000000 1.000000
vt 0.000000 1.000000
vn 0.346477 -0.871700 -0.346477
vn 0.346477 -0.349010 -0.870693
vn 0.870540 -0.347942 -0.347942
vn 0.349010 -0.870693 0.346477
vn 0.871700 -0.346477 0.346477
vn 0.347942 -0.347942 0.870540
vn -0.346873 -0.871395 0.346873
vn -0.346477 -0.346477 0.871700
vn -0.871548 -0.345408 0.347911
vn -0.346477 -0.870693 -0.349010
vn -0.870540 -0.347942 -0.347942
vn -0.346477 -0.346477 -0.871700
vn 0.346873 0.871395 -0.346873
vn 0.871700 0.346477 -0.346477
vn 0.347911 0.345408 -0.871548
vn 0.346477 0.870693 0.349010
vn 0.346477 0.346477 0.871700
vn 0.870540 0.347942 0.347942
vn -0.346477 0.871700 0.346477
vn -0.870693 0.349010 0.346477
vn -0.347942 0.347942 0.870540
vn -0.349010 0.870693 -0.346477
vn -0.347942 0.347942 -0.870540
vn -0.871700 0.346477 -0.346477
usemtl Color
s 1
f 1/1/1 22/2/2 9/3/3
f 2/1/4 12/2/5 13/3/6
f 3/1/7 16/2/8 17/3/9
f 4/1/10 20/2/11 23/3/12
f 5/1/13 10/2/14 21/3/15
f 8/1/16 14/2/17 11/3/18
f 7/1/19 18/2/20 15/3/21
f 6/1/22 24/2/23 19/3/24
f 19/1/24 24/2/23 20/4/11
f 24/2/23 23/3/12 20/4/11
f 15/1/21 18/2/20 17/3/9
f 15/1/21 17/3/9 16/4/8
f 11/1/18 14/2/17 13/3/6
f 11/1/18 13/3/6 12/4/5
f 21/1/15 10/2/14 9/3/3
f 21/1/15 9/3/3 22/4/2
f 7/1/19 15/2/21 8/4/16
f 15/2/21 14/3/17 8/4/16
f 8/1/16 11/2/18 5/4/13
f 11/2/18 10/3/14 5/4/13
f 6/1/22 19/2/24 18/3/20
f 6/1/22 18/3/20 7/4/19
f 24/1/23 6/2/22 5/3/13
f 24/1/23 5/3/13 21/4/15
f 20/1/11 4/2/10 3/3/7
f 20/1/11 3/3/7 17/4/9
f 22/1/2 1/2/1 4/3/10
f 22/1/2 4/3/10 23/4/12
f 16/1/8 3/2/7 13/4/6
f 3/2/7 2/3/4 13/4/6
f 1/1/1 9/2/3 2/4/4
f 9/2/3 12/3/5 2/4/4
usemtl Texture_medpack.png
f 23/2/12 24/3/23 21/4/15
f 23/2/12 21/4/15 22/1/2
f 19/4/24 20/1/11 17/2/9
f 19/4/24 17/2/9 18/3/20
f 15/4/21 16/1/8 14/3/17
f 16/1/8 13/2/6 14/3/17
f 11/4/18 12/1/5 10/3/14
f 12/1/5 9/2/3 10/3/14
f 7/1/19 8/2/16 5/3/13
f 7/1/19 5/3/13 6/4/22
f 1/2/1 2/3/4 3/4/7
f 1/2/1 3/4/7 4/1/10
