# Blender3D v249 OBJ File: superlife.blend
# www.blender3d.org
mtllib superlife.mtl
v 0.191342 0.138582 -0.000000
v 0.353553 0.106066 -0.000000
v 0.461940 0.057403 -0.000000
v 0.500000 -0.000000 0.000000
v 0.461940 -0.057403 0.000000
v 0.353553 -0.106066 0.000000
v 0.191342 -0.138582 0.000000
v 0.135299 -0.138582 -0.135299
v 0.250000 -0.106066 -0.250000
v 0.293977 -0.051662 -0.293977
v 0.318198 -0.000000 -0.318198
v 0.293977 0.051662 -0.293977
v 0.250000 0.106066 -0.250000
v 0.135299 0.138582 -0.135299
v 0.000000 0.150000 -0.000000
v -0.000000 0.138582 -0.191342
v -0.000000 0.106066 -0.353553
v -0.000000 0.057402 -0.461940
v -0.000000 -0.000000 -0.500000
v -0.000000 -0.057403 -0.461940
v -0.000000 -0.106066 -0.353553
v -0.000000 -0.138582 -0.191342
v -0.135299 -0.138582 -0.135299
v -0.250000 -0.106066 -0.250000
v -0.293977 -0.051662 -0.293977
v -0.318198 -0.000000 -0.318198
v -0.293977 0.051662 -0.293977
v -0.250000 0.106066 -0.250000
v -0.135299 0.138582 -0.135299
v -0.191342 0.138582 0.000000
v -0.353553 0.106066 0.000000
v -0.461940 0.057403 0.000000
v -0.500000 0.000000 0.000000
v -0.461940 -0.057403 0.000000
v -0.353553 -0.106066 0.000000
v -0.191342 -0.138582 0.000000
v -0.000000 -0.150000 0.000000
v -0.135299 -0.138582 0.135299
v -0.250000 -0.106066 0.250000
v -0.326641 -0.057403 0.326641
v -0.353553 0.000000 0.353553
v -0.326641 0.057403 0.326641
v -0.250000 0.106066 0.250000
v -0.135299 0.138582 0.135299
v 0.000000 0.138582 0.191342
v 0.000000 0.106066 0.353553
v 0.000000 0.057403 0.461940
v 0.000000 0.000000 0.500000
v 0.000000 -0.057403 0.461940
v 0.000000 -0.106066 0.353553
v 0.000000 -0.138582 0.191342
v 0.135299 -0.138582 0.135299
v 0.250000 -0.106066 0.250000
v 0.326641 -0.057403 0.326641
v 0.353554 0.000000 0.353553
v 0.326641 0.057403 0.326641
v 0.250000 0.106066 0.250000
v 0.135299 0.138582 0.135299
vt 0.498662 0.495453
vt 0.633056 0.359458
vt 0.690105 0.494325
vt 0.692578 0.497274
vt 0.635530 0.632141
vt 0.501338 0.495453
vt 0.499814 0.687141
vt 0.497341 0.304458
vt 0.362458 0.361543
vt 0.364931 0.630056
vt 0.309895 0.494325
vt 0.307422 0.497274
vt 0.364470 0.632141
vt 0.366944 0.359458
vt 0.502659 0.304458
vt 0.500186 0.687141
vt 0.635069 0.630056
vt 0.637542 0.361543
vt 0.852607 0.494061
vt 0.750913 0.744859
vt 0.961428 0.494700
vt 0.828557 0.822384
vt 1.000000 0.496147
vt 0.856182 0.850829
vt 0.856182 0.149171
vt 1.000000 0.503853
vt 0.962452 0.501820
vt 0.829582 0.174137
vt 0.854500 0.499510
vt 0.752805 0.248712
vt 0.503575 0.143232
vt 0.503947 0.036320
vt 0.503718 0.000000
vt 0.502923 0.960200
vt 0.503718 1.000000
vt 0.501683 0.850338
vt 0.250913 0.748712
vt 0.175276 0.827418
vt 0.149076 0.856278
vt 0.149076 0.143722
vt 0.176300 0.169102
vt 0.252805 0.244858
vt 0.147393 0.494060
vt 0.038572 0.494700
vt 0.000000 0.496147
vt 0.037548 0.501820
vt 0.000000 0.503853
vt 0.145500 0.499510
vt 0.247195 0.248712
vt 0.203376 0.206723
vt 0.179436 0.184254
vt 0.179436 0.815746
vt 0.204298 0.790145
vt 0.249088 0.744859
vt 0.498318 0.850338
vt 0.497077 0.960200
vt 0.496282 1.000000
vt 0.496053 0.036320
vt 0.496282 0.000000
vt 0.496425 0.143232
vt 0.747195 0.244859
vt 0.791330 0.202192
vt 0.815832 0.179350
vt 0.815832 0.820650
vt 0.792252 0.794676
vt 0.749088 0.748712
vn 0.000000 -1.000000 0.000000
vn 0.101108 -0.989502 -0.103030
vn 0.144353 -0.989502 -0.001343
vn 0.143468 0.989654 0.000000
vn 0.103030 0.989502 -0.101108
vn 0.000000 1.000000 0.000000
vn 0.001343 0.989502 -0.144353
vn -0.001343 -0.989502 -0.144353
vn -0.103030 -0.989502 -0.101108
vn -0.101108 0.989502 -0.103030
vn -0.144353 0.989502 -0.001343
vn -0.144353 -0.989502 0.001343
vn -0.101108 -0.989502 0.103030
vn -0.103030 0.989502 0.101108
vn -0.001343 0.989502 0.144353
vn 0.001343 -0.989502 0.144353
vn 0.103030 -0.989502 0.101108
vn 0.102695 0.989380 0.102695
vn 0.403516 -0.910001 -0.095096
vn 0.228980 -0.946348 0.227912
vn 0.672811 -0.738060 -0.050661
vn 0.478195 -0.737236 0.477218
vn 0.998260 -0.001587 -0.058748
vn 0.707083 0.000000 0.707083
vn 0.674459 0.736595 -0.050020
vn 0.477218 0.737236 0.478195
vn 0.402539 0.910581 -0.093661
vn 0.228156 0.945982 0.230293
vn -0.000763 0.946348 0.323069
vn -0.000671 0.737236 0.675588
vn 0.000000 0.000000 1.000000
vn 0.000671 -0.737236 0.675588
vn 0.000763 -0.946348 0.323069
vn -0.227912 -0.946348 0.228980
vn -0.477218 -0.737236 0.478195
vn -0.707083 0.000000 0.707083
vn -0.478195 0.737236 0.477218
vn -0.228980 0.946348 0.227912
vn -0.403516 0.910001 -0.095096
vn -0.672811 0.738060 -0.050661
vn -0.998260 0.001587 -0.058748
vn -0.674459 -0.736595 -0.050020
vn -0.403577 -0.910031 -0.094577
vn -0.343486 -0.873806 -0.344096
vn -0.476150 -0.739250 -0.476150
vn -0.707083 0.000000 -0.707083
vn -0.476150 0.739250 -0.476150
vn -0.344096 0.873806 -0.343486
vn -0.000305 0.897671 -0.440596
vn 0.000000 0.739372 -0.673269
vn 0.000000 0.000000 -1.000000
vn 0.000000 -0.739372 -0.673269
vn 0.000305 -0.897671 -0.440596
vn 0.344096 -0.873806 -0.343486
vn 0.476150 -0.739250 -0.476150
vn 0.707083 0.000000 -0.707083
vn 0.476150 0.739250 -0.476150
vn 0.343486 0.873806 -0.344096
usemtl Material_medpack.png
s 1
f 37/1/1 8/2/2 7/3/3
f 1/4/4 14/5/5 15/6/6
f 14/5/5 16/7/7 15/6/6
f 37/1/1 22/8/8 8/2/2
f 37/1/1 23/9/9 22/8/8
f 16/7/7 29/10/10 15/6/6
f 29/10/10 30/11/11 15/6/6
f 37/1/1 36/12/12 23/9/9
f 37/1/1 38/13/13 36/12/12
f 30/11/11 44/14/14 15/6/6
f 44/14/14 45/15/15 15/6/6
f 37/1/1 51/16/16 38/13/13
f 37/1/1 52/17/17 51/16/16
f 45/15/15 58/18/18 15/6/6
f 58/18/18 1/4/4 15/6/6
f 37/1/1 7/3/3 52/17/17
f 52/17/17 7/3/3 6/19/19
f 52/17/17 6/19/19 53/20/20
f 53/20/20 6/19/19 5/21/21
f 53/20/20 5/21/21 54/22/22
f 54/22/22 5/21/21 4/23/23
f 54/22/22 4/23/23 55/24/24
f 55/25/24 4/26/23 3/27/25
f 55/25/24 3/27/25 56/28/26
f 56/28/26 3/27/25 2/29/27
f 56/28/26 2/29/27 57/30/28
f 1/4/4 58/18/18 2/29/27
f 58/18/18 57/30/28 2/29/27
f 46/31/29 57/30/28 58/18/18
f 46/31/29 58/18/18 45/15/15
f 47/32/30 56/28/26 57/30/28
f 47/32/30 57/30/28 46/31/29
f 48/33/31 55/25/24 56/28/26
f 48/33/31 56/28/26 47/32/30
f 49/34/32 54/22/22 55/24/24
f 49/34/32 55/24/24 48/35/31
f 50/36/33 53/20/20 54/22/22
f 50/36/33 54/22/22 49/34/32
f 51/16/16 52/17/17 53/20/20
f 51/16/16 53/20/20 50/36/33
f 38/13/13 51/16/16 50/36/33
f 38/13/13 50/36/33 39/37/34
f 39/37/34 50/36/33 49/34/32
f 39/37/34 49/34/32 40/38/35
f 40/38/35 49/34/32 48/35/31
f 40/38/35 48/35/31 41/39/36
f 41/40/36 48/33/31 47/32/30
f 41/40/36 47/32/30 42/41/37
f 42/41/37 47/32/30 46/31/29
f 42/41/37 46/31/29 43/42/38
f 43/42/38 46/31/29 45/15/15
f 43/42/38 45/15/15 44/14/14
f 31/43/39 43/42/38 44/14/14
f 31/43/39 44/14/14 30/11/11
f 32/44/40 42/41/37 43/42/38
f 32/44/40 43/42/38 31/43/39
f 33/45/41 41/40/36 42/41/37
f 33/45/41 42/41/37 32/44/40
f 34/46/42 40/38/35 41/39/36
f 34/46/42 41/39/36 33/47/41
f 35/48/43 39/37/34 40/38/35
f 35/48/43 40/38/35 34/46/42
f 36/12/12 38/13/13 39/37/34
f 36/12/12 39/37/34 35/48/43
f 23/9/9 36/12/12 35/48/43
f 23/9/9 35/48/43 24/49/44
f 24/49/44 35/48/43 25/50/45
f 35/48/43 34/46/42 25/50/45
f 25/50/45 34/46/42 26/51/46
f 34/46/42 33/47/41 26/51/46
f 26/52/46 33/45/41 32/44/40
f 26/52/46 32/44/40 27/53/47
f 27/53/47 32/44/40 31/43/39
f 27/53/47 31/43/39 28/54/48
f 28/54/48 31/43/39 30/11/11
f 28/54/48 30/11/11 29/10/10
f 17/55/49 28/54/48 29/10/10
f 17/55/49 29/10/10 16/7/7
f 18/56/50 27/53/47 17/55/49
f 27/53/47 28/54/48 17/55/49
f 19/57/51 26/52/46 18/56/50
f 26/52/46 27/53/47 18/56/50
f 20/58/52 25/50/45 26/51/46
f 20/58/52 26/51/46 19/59/51
f 21/60/53 24/49/44 25/50/45
f 21/60/53 25/50/45 20/58/52
f 22/8/8 23/9/9 24/49/44
f 22/8/8 24/49/44 21/60/53
f 8/2/2 22/8/8 21/60/53
f 8/2/2 21/60/53 9/61/54
f 9/61/54 21/60/53 10/62/55
f 21/60/53 20/58/52 10/62/55
f 10/62/55 20/58/52 11/63/56
f 20/58/52 19/59/51 11/63/56
f 11/64/56 19/57/51 18/56/50
f 11/64/56 18/56/50 12/65/57
f 12/65/57 18/56/50 17/55/49
f 12/65/57 17/55/49 13/66/58
f 13/66/58 17/55/49 16/7/7
f 13/66/58 16/7/7 14/5/5
f 14/5/5 1/4/4 2/29/27
f 14/5/5 2/29/27 13/66/58
f 3/27/25 12/65/57 2/29/27
f 12/65/57 13/66/58 2/29/27
f 4/26/23 11/64/56 3/27/25
f 11/64/56 12/65/57 3/27/25
f 5/21/21 10/62/55 11/63/56
f 5/21/21 11/63/56 4/23/23
f 6/19/19 9/61/54 10/62/55
f 6/19/19 10/62/55 5/21/21
f 7/3/3 8/2/2 9/61/54
f 7/3/3 9/61/54 6/19/19
