<?xml version="1.0" encoding="UTF-8" standalone="no"?>
<!-- Created with Inkscape (http://www.inkscape.org/) -->
<svg xmlns:dc="http://purl.org/dc/elements/1.1/" xmlns:cc="http://creativecommons.org/ns#" xmlns:rdf="http://www.w3.org/1999/02/22-rdf-syntax-ns#" xmlns:svg="http://www.w3.org/2000/svg" xmlns="http://www.w3.org/2000/svg" xmlns:xlink="http://www.w3.org/1999/xlink" xmlns:sodipodi="http://sodipodi.sourceforge.net/DTD/sodipodi-0.dtd" xmlns:inkscape="http://www.inkscape.org/namespaces/inkscape" width="128" height="64" id="svg4315" version="1.1" inkscape:version="0.48.0 r9654" sodipodi:docname="editbox.svg" inkscape:export-filename="C:\Documents and Settings\Newin\Bureau\Ball\GUI\Img\GUI\Button\editbox-profil.png" inkscape:export-xdpi="180" inkscape:export-ydpi="180">
  <defs id="defs4317">
    <linearGradient id="linearGradient3837">
      <stop style="stop-color:#00ccff;stop-opacity:1" offset="0" id="stop3839"/>
      <stop id="stop3847" offset="0.03571428" style="stop-color:#4d4d4d;stop-opacity:1;"/>
      <stop id="stop3845" offset="0.96428567" style="stop-color:#4d4d4d;stop-opacity:1;"/>
      <stop style="stop-color:#00ccff;stop-opacity:1" offset="1" id="stop3841"/>
    </linearGradient>
    <linearGradient inkscape:collect="always" xlink:href="#linearGradient3837" id="linearGradient3887" gradientUnits="userSpaceOnUse" x1="19.200001" y1="8" x2="108.8" y2="8"/>
  </defs>
  <sodipodi:namedview id="base" pagecolor="#ffffff" bordercolor="#666666" borderopacity="1.0" inkscape:pageopacity="0.0" inkscape:pageshadow="2" inkscape:zoom="5.6568543" inkscape:cx="92.017401" inkscape:cy="45.575446" inkscape:current-layer="layer3" showgrid="true" inkscape:document-units="px" inkscape:grid-bbox="true" inkscape:window-width="1920" inkscape:window-height="1037" inkscape:window-x="-4" inkscape:window-y="-4" inkscape:window-maximized="1" showguides="true" inkscape:guide-bbox="true">
    <inkscape:grid type="xygrid" id="grid4323" empspacing="4" visible="true" enabled="true" snapvisiblegridlinesonly="true" spacingx="0.08px" spacingy="0.08px"/>
    <sodipodi:guide orientation="0,1" position="0,32" id="guide4865"/>
    <sodipodi:guide orientation="0,1" position="0,96" id="guide4867"/>
    <sodipodi:guide orientation="0,1" position="0,64" id="guide4869"/>
    <sodipodi:guide orientation="0,1" position="0,48" id="guide2990"/>
    <sodipodi:guide orientation="0,1" position="0,16" id="guide2992"/>
  </sodipodi:namedview>
  <metadata id="metadata4320">
    <rdf:RDF>
      <cc:Work rdf:about="">
        <dc:format>image/svg+xml</dc:format>
        <dc:type rdf:resource="http://purl.org/dc/dcmitype/StillImage"/>
        <dc:title/>
      </cc:Work>
    </rdf:RDF>
  </metadata>
  <g id="layer1" inkscape:label="Layer 1" inkscape:groupmode="layer">
    <path style="fill:#ffffff;stroke:#666666;stroke-width:0.47999998999999999;stroke-miterlimit:4;stroke-opacity:1;stroke-dasharray:none;fill-opacity:1" d="m 16.64,15.76 108,0 c 1.71962,0 3.12,-1.384384 3.12,-3.104 l 0,-9.312 c 0,-1.719616 -1.40038,-3.104 -3.12,-3.104 l -108,0" id="path4127" inkscape:connector-curvature="0" sodipodi:nodetypes="cssssc"/>
    <path style="fill:#ffffff;stroke:#00ccff;stroke-width:0.47999998999999999;stroke-miterlimit:4;stroke-opacity:1;stroke-dasharray:none;fill-opacity:1" d="m 16.64,31.76 108,0 c 1.71962,0 3.12,-1.384384 3.12,-3.104 l 0,-9.312 c 0,-1.719616 -1.40038,-3.104 -3.12,-3.104 l -108,0" id="path4129" inkscape:connector-curvature="0" sodipodi:nodetypes="cssssc"/>
    <path style="fill:#ffffff;stroke:#00ccff;stroke-width:0.47999998999999999;stroke-miterlimit:4;stroke-opacity:1;stroke-dasharray:none;fill-opacity:1" d="m 16.8,47.76 108,0 c 1.71962,0 3.12,-1.384384 3.12,-3.104 l 0,-9.312 c 0,-1.719616 -1.40038,-3.104 -3.12,-3.104 l -108,0" id="path4131" inkscape:connector-curvature="0" sodipodi:nodetypes="cssssc"/>
    <path sodipodi:nodetypes="cssssc" inkscape:connector-curvature="0" id="path4021" d="m 16.8,63.76 108,0 c 1.71962,0 3.12,-1.384384 3.12,-3.104 l 0,-9.312 c 0,-1.719616 -1.40038,-3.104 -3.12,-3.104 l -108,0" style="fill:#ffffff;stroke:#c4c4c4;stroke-width:0.47999998999999999;stroke-miterlimit:4;stroke-opacity:1;stroke-dasharray:none;fill-opacity:1"/>
  </g>
  <g inkscape:groupmode="layer" id="layer3" inkscape:label="big" style="display:none">
    <path style="fill:#ffffff;fill-opacity:1;stroke:#666666;stroke-width:0.47999999;stroke-miterlimit:4;stroke-opacity:1;stroke-dasharray:none" d="m 111.36,15.76 -108,0 c -1.71962,0 -3.12,-1.384384 -3.12,-3.104 l 0,-9.312 C 0.24,1.624384 1.64038,0.24 3.36,0.24 l 108,0" id="path4127-3" inkscape:connector-curvature="0" sodipodi:nodetypes="cssssc"/>
    <path style="fill:#ffffff;fill-opacity:1;stroke:#00ccff;stroke-width:0.47999999;stroke-miterlimit:4;stroke-opacity:1;stroke-dasharray:none" d="m 111.36,31.76 -108,0 c -1.71962,0 -3.12,-1.384384 -3.12,-3.104 l 0,-9.312 c 0,-1.719616 1.40038,-3.104 3.12,-3.104 l 108,0" id="path4129-3" inkscape:connector-curvature="0" sodipodi:nodetypes="cssssc"/>
    <path style="fill:#ffffff;fill-opacity:1;stroke:#00ccff;stroke-width:0.47999999;stroke-miterlimit:4;stroke-opacity:1;stroke-dasharray:none" d="m 111.2,47.76 -108,0 c -1.71962,0 -3.12,-1.384384 -3.12,-3.104 l 0,-9.312 c 0,-1.719616 1.40038,-3.104 3.12,-3.104 l 108,0" id="path4131-1" inkscape:connector-curvature="0" sodipodi:nodetypes="cssssc"/>
    <path sodipodi:nodetypes="cssssc" inkscape:connector-curvature="0" id="path4021-0" d="m 111.2,63.76 -108,0 c -1.71962,0 -3.12,-1.384384 -3.12,-3.104 l 0,-9.312 c 0,-1.719616 1.40038,-3.104 3.12,-3.104 l 108,0" style="fill:#ffffff;fill-opacity:1;stroke:#c4c4c4;stroke-width:0.47999999;stroke-miterlimit:4;stroke-opacity:1;stroke-dasharray:none"/>
  </g>
  <g inkscape:groupmode="layer" id="layer2" inkscape:label="profil" sodipodi:insensitive="true" style="display:inline">
    <path sodipodi:nodetypes="sccssss" inkscape:connector-curvature="0" id="path3897" d="m 3.2,0 16,0 0,16 -16,0 C 1.4272,16 0,14.5728 0,12.8 L 0,3.2 C 0,1.4272 1.4272,0 3.2,0 z" style="fill:#666666;fill-opacity:1;fill-rule:nonzero;stroke:none"/>
    <path style="fill:#c4c4c4;fill-opacity:1;fill-rule:nonzero;stroke:none" d="m 3.2,48 16,0 0,16 -16,0 C 1.4272,64 0,62.5728 0,60.8 L 0,51.2 C 0,49.4272 1.4272,48 3.2,48 z" id="path3821" inkscape:connector-curvature="0" sodipodi:nodetypes="sccssss"/>
    <g transform="translate(0, 16)" id="g3865">
      <path sodipodi:nodetypes="sccssss" inkscape:connector-curvature="0" id="path3875" d="m 3.2,0 16,0 0,16 -16,0 C 1.4272,16 0,14.5728 0,12.8 L 0,3.2 C 0,1.4272 1.4272,0 3.2,0 z" style="fill:#00ccff;fill-opacity:1;fill-rule:nonzero;stroke:none"/>
    </g>
    <path sodipodi:nodetypes="sccssss" inkscape:connector-curvature="0" id="path3863" d="m 3.2,32 16,0 0,16 -16,0 C 1.4272,48 0,46.5728 0,44.8 L 0,35.2 C 0,33.4272 1.4272,32 3.2,32 z" style="fill:#00ccff;fill-opacity:1;fill-rule:nonzero;stroke:none"/>
    <g style="fill:#ffffff;fill-opacity:1;display:inline" transform="matrix(0.152616, 0, 0, 0.152616, -252.385, -4.38161)" id="g4038">
      <path sodipodi:type="arc" style="fill:#ffffff;fill-opacity:1;fill-rule:nonzero;stroke:none" id="path4040" sodipodi:cx="1610" sodipodi:cy="80" sodipodi:rx="10" sodipodi:ry="10" d="m 1620,80 a 10,10 0 1 1 -20,0 10,10 0 1 1 20,0 z" transform="matrix(0.85867, 0, 0, 0.85867, 334.368, -0.178146)"/>
      <path style="fill:#ffffff;fill-opacity:1;stroke:none" d="m 1699.6532,100 c 0,0 0,-22.897861 17.1734,-22.897861 C 1734,77.102139 1734,100 1734,100 z" id="path4042" inkscape:connector-curvature="0" sodipodi:nodetypes="cscc"/>
    </g>
    <g style="fill:#ffffff;fill-opacity:1;display:inline" transform="matrix(0.152616, 0, 0, 0.152616, -252.385, 11.6184)" id="g4044">
      <path sodipodi:type="arc" style="fill:#ffffff;fill-opacity:1;fill-rule:nonzero;stroke:none" id="path4046" sodipodi:cx="1610" sodipodi:cy="80" sodipodi:rx="10" sodipodi:ry="10" d="m 1620,80 a 10,10 0 1 1 -20,0 10,10 0 1 1 20,0 z" transform="matrix(0.85867, 0, 0, 0.85867, 334.368, -0.178146)"/>
      <path style="fill:#ffffff;fill-opacity:1;stroke:none" d="m 1699.6532,100 c 0,0 0,-22.897861 17.1734,-22.897861 C 1734,77.102139 1734,100 1734,100 z" id="path4048" inkscape:connector-curvature="0" sodipodi:nodetypes="cscc"/>
    </g>
    <g style="fill:#ffffff;fill-opacity:1;display:inline" transform="matrix(0.152616, 0, 0, 0.152616, -252.385, 27.6184)" id="g4050">
      <path sodipodi:type="arc" style="fill:#ffffff;fill-opacity:1;fill-rule:nonzero;stroke:none" id="path4052" sodipodi:cx="1610" sodipodi:cy="80" sodipodi:rx="10" sodipodi:ry="10" d="m 1620,80 a 10,10 0 1 1 -20,0 10,10 0 1 1 20,0 z" transform="matrix(0.85867, 0, 0, 0.85867, 334.368, -0.178146)"/>
      <path style="fill:#ffffff;fill-opacity:1;stroke:none" d="m 1699.6532,100 c 0,0 0,-22.897861 17.1734,-22.897861 C 1734,77.102139 1734,100 1734,100 z" id="path4054" inkscape:connector-curvature="0" sodipodi:nodetypes="cscc"/>
    </g>
    <g id="g4304" transform="matrix(0.152616, 0, 0, 0.152616, -252.385, 43.6184)" style="fill:#ffffff;fill-opacity:1;display:inline">
      <path transform="matrix(0.85867, 0, 0, 0.85867, 334.368, -0.178146)" d="m 1620,80 a 10,10 0 1 1 -20,0 10,10 0 1 1 20,0 z" sodipodi:ry="10" sodipodi:rx="10" sodipodi:cy="80" sodipodi:cx="1610" id="path4395" style="fill:#ffffff;fill-opacity:1;fill-rule:nonzero;stroke:none" sodipodi:type="arc"/>
      <path sodipodi:nodetypes="cscc" inkscape:connector-curvature="0" id="path4397" d="m 1699.6532,100 c 0,0 0,-22.897861 17.1734,-22.897861 C 1734,77.102139 1734,100 1734,100 z" style="fill:#ffffff;fill-opacity:1;stroke:none"/>
    </g>
  </g>
</svg>